<?xml version="1.0" encoding="UTF-8"?>
<svg id="Layer_2" xmlns="http://www.w3.org/2000/svg" viewBox="0 0 182.07 157.32">
  <defs>
    <style>
      .cls-1 {
        fill: #fff;
      }

      .cls-2 {
        fill: #fed504;
      }
    </style>
  </defs>
  <g id="Layer_1-2" data-name="Layer_1">
    <g>
      <g>
        <g>
          <path class="cls-2" d="M77.35,20.85c-.13,0-.25-.09-.29-.23l-.83-3.54c-.04-.16.06-.32.22-.36.16-.03.32.06.36.22l.83,3.54c.04.16-.06.32-.22.36-.02,0-.05,0-.07,0Z"/>
          <path class="cls-2" d="M75.65,13.62c-.13,0-.25-.09-.29-.23l-.84-3.54c-.04-.16.06-.32.22-.35.16-.04.32.06.35.22l.84,3.54c.04.16-.06.32-.22.35-.02,0-.05,0-.07,0Z"/>
          <path class="cls-2" d="M80.76,35.32c-.13,0-.25-.09-.29-.23l-2.56-10.85c-.04-.16.06-.32.22-.36.16-.03.32.06.36.22l2.56,10.85c.04.16-.06.32-.22.36-.02,0-.05,0-.07,0Z"/>
        </g>
        <g>
          <path class="cls-2" d="M32.7,50.93s-.09,0-.13-.03l-3.56-1.71c-.15-.07-.21-.25-.14-.39.07-.15.25-.21.39-.14l3.56,1.71c.15.07.21.25.14.39-.05.11-.16.17-.27.17Z"/>
          <path class="cls-2" d="M25.44,47.44s-.09,0-.13-.03l-3.56-1.71c-.15-.07-.21-.25-.14-.39.07-.15.25-.21.39-.14l3.56,1.71c.15.07.21.25.14.39-.05.11-.16.17-.27.17Z"/>
          <path class="cls-2" d="M47.23,57.91s-.09,0-.13-.03l-10.9-5.24c-.15-.07-.21-.25-.14-.39.07-.15.25-.21.39-.14l10.9,5.24c.15.07.21.25.14.39-.05.11-.16.17-.27.17Z"/>
        </g>
        <g>
          <path class="cls-2" d="M18.04,98.55c-.13,0-.25-.09-.29-.22-.04-.16.05-.32.21-.36l4.19-1.12c.16-.04.32.05.36.21.04.16-.05.32-.21.36l-4.19,1.12s-.05.01-.08.01Z"/>
          <path class="cls-2" d="M9.47,100.85c-.13,0-.25-.09-.29-.22-.04-.16.05-.32.21-.36l4.19-1.13c.16-.04.32.05.36.21.04.16-.05.32-.21.36l-4.19,1.13s-.05.01-.08.01Z"/>
          <path class="cls-2" d="M26.51,96.27c-.13,0-.25-.09-.29-.22-.04-.16.05-.32.21-.36l12.85-3.45c.16-.04.32.05.36.21.04.16-.05.32-.21.36l-12.85,3.45s-.05.01-.08.01Z"/>
        </g>
        <g>
          <path class="cls-2" d="M49.68,136.4c-.06,0-.12-.02-.17-.06-.13-.1-.16-.28-.07-.41l2.38-3.3c.1-.13.28-.16.41-.07.13.1.16.28.07.41l-2.38,3.3c-.06.08-.15.12-.24.12Z"/>
          <path class="cls-2" d="M44.83,143.14c-.06,0-.12-.02-.17-.06-.13-.09-.16-.28-.07-.41l2.37-3.3c.1-.13.28-.16.41-.07.13.09.16.28.07.41l-2.37,3.3c-.06.08-.15.12-.24.12Z"/>
          <path class="cls-2" d="M54.49,129.73c-.06,0-.12-.02-.17-.06-.13-.09-.16-.28-.07-.41l7.28-10.11c.1-.13.28-.16.41-.07.13.09.16.28.07.41l-7.28,10.11c-.06.08-.15.12-.24.12Z"/>
        </g>
        <g>
          <path class="cls-2" d="M105.56,140.6c-.13,0-.25-.09-.29-.23l-.83-3.54c-.04-.16.06-.32.22-.36.16-.04.32.06.36.22l.83,3.54c.04.16-.06.32-.22.36-.02,0-.05,0-.07,0Z"/>
          <path class="cls-2" d="M107.26,147.83c-.13,0-.25-.09-.29-.23l-.84-3.54c-.04-.16.06-.32.22-.35.16-.04.32.06.35.22l.84,3.54c.04.16-.06.32-.22.35-.02,0-.05,0-.07,0Z"/>
          <path class="cls-2" d="M103.87,133.44c-.13,0-.25-.09-.29-.23l-2.56-10.85c-.04-.16.06-.32.22-.36.16-.04.32.06.36.22l2.56,10.85c.04.16-.06.32-.22.36-.02,0-.05,0-.07,0Z"/>
        </g>
        <g>
          <path class="cls-2" d="M152.92,108.69s-.09,0-.13-.03l-3.56-1.71c-.15-.07-.21-.25-.14-.39.07-.15.25-.21.39-.14l3.56,1.71c.15.07.21.25.14.39-.05.11-.16.17-.27.17Z"/>
          <path class="cls-2" d="M160.18,112.18s-.09,0-.13-.03l-3.56-1.71c-.15-.07-.21-.25-.14-.39.07-.15.25-.21.39-.14l3.56,1.71c.15.07.21.25.14.39-.05.11-.16.17-.27.17Z"/>
          <path class="cls-2" d="M145.74,105.24s-.09,0-.13-.03l-10.89-5.23c-.15-.07-.21-.25-.14-.39.07-.15.25-.21.39-.14l10.89,5.23c.15.07.21.25.14.39-.05.11-.16.17-.27.17Z"/>
        </g>
        <g>
          <path class="cls-2" d="M159.84,60.49c-.13,0-.25-.09-.29-.22-.04-.16.05-.32.21-.36l4.19-1.13c.16-.04.32.05.36.21.04.16-.05.32-.21.36l-4.19,1.13s-.05.01-.08.01Z"/>
          <path class="cls-2" d="M168.41,58.19c-.13,0-.25-.09-.29-.22-.04-.16.05-.32.21-.36l4.19-1.13c.16-.04.32.05.36.21.04.16-.05.32-.21.36l-4.19,1.13s-.05.01-.08.01Z"/>
          <path class="cls-2" d="M142.71,65.09c-.13,0-.25-.09-.29-.22-.04-.16.05-.32.21-.36l12.85-3.45c.16-.04.32.05.36.21.04.16-.05.32-.21.36l-12.85,3.45s-.05,0-.08,0Z"/>
        </g>
        <g>
          <path class="cls-2" d="M130.01,24.82c-.06,0-.12-.02-.17-.06-.13-.09-.16-.28-.07-.41l2.38-3.3c.1-.13.28-.16.41-.07.13.09.16.28.07.41l-2.38,3.3c-.06.08-.15.12-.24.12Z"/>
          <path class="cls-2" d="M134.86,18.08c-.06,0-.12-.02-.17-.06-.13-.1-.16-.28-.07-.41l2.37-3.3c.1-.13.28-.16.41-.07.13.1.16.28.07.41l-2.37,3.3c-.06.08-.15.12-.24.12Z"/>
          <path class="cls-2" d="M120.31,38.29c-.06,0-.12-.02-.17-.06-.13-.09-.16-.28-.07-.41l7.28-10.11c.09-.13.28-.16.41-.07.13.1.16.28.07.41l-7.28,10.11c-.06.08-.15.12-.24.12Z"/>
        </g>
      </g>
      <g>
        <g>
          <path class="cls-2" d="M62.7,22.62c-.11,0-.21-.06-.26-.16l-1.57-3.12c-.07-.15-.01-.32.13-.4.15-.07.32-.01.4.13l1.57,3.12c.07.15.01.32-.13.4-.04.02-.09.03-.13.03Z"/>
          <path class="cls-2" d="M69.11,35.35c-.11,0-.21-.06-.26-.16l-4.8-9.55c-.07-.15-.01-.32.13-.4.15-.07.32-.01.4.13l4.8,9.55c.07.15.01.32-.13.4-.04.02-.09.03-.13.03Z"/>
        </g>
        <g>
          <path class="cls-2" d="M22.63,61.09s-.05,0-.07,0l-3.78-.99c-.16-.04-.25-.2-.21-.36.04-.16.2-.25.36-.21l3.78.99c.16.04.25.2.21.36-.03.13-.15.22-.29.22Z"/>
          <path class="cls-2" d="M38.09,65.13s-.05,0-.07,0l-11.59-3.03c-.16-.04-.25-.2-.21-.36.04-.16.2-.25.36-.21l11.59,3.03c.16.04.25.2.21.36-.03.13-.15.22-.29.22Z"/>
        </g>
        <g>
          <path class="cls-2" d="M18.85,111.75c-.11,0-.22-.06-.27-.17-.07-.15,0-.32.15-.39l3.78-1.72c.15-.07.32,0,.39.15.07.15,0,.32-.15.39l-3.78,1.72s-.08.03-.12.03Z"/>
          <path class="cls-2" d="M26.5,108.28c-.11,0-.22-.06-.27-.17-.07-.15,0-.32.15-.39l11.59-5.27c.15-.07.32,0,.39.15.07.15,0,.32-.15.39l-11.59,5.27s-.08.03-.12.03Z"/>
        </g>
        <g>
          <path class="cls-2" d="M61.14,144.19s-.08,0-.12-.03c-.15-.07-.21-.24-.15-.39l1.57-3.42c.07-.15.24-.21.39-.15.15.07.21.24.15.39l-1.57,3.42c-.05.11-.16.17-.27.17Z"/>
          <path class="cls-2" d="M64.3,137.27s-.08,0-.12-.03c-.15-.07-.21-.24-.15-.39l4.8-10.48c.07-.15.24-.21.39-.15.15.07.21.24.15.39l-4.8,10.48c-.05.11-.16.17-.27.17Z"/>
        </g>
        <g>
          <path class="cls-2" d="M120.94,138.41c-.11,0-.21-.06-.26-.16l-1.57-3.11c-.07-.15-.01-.32.13-.4.15-.07.32-.01.4.13l1.57,3.11c.07.15.01.32-.13.4-.04.02-.09.03-.13.03Z"/>
          <path class="cls-2" d="M117.77,132.11c-.11,0-.21-.06-.26-.16l-4.8-9.55c-.07-.15-.01-.32.13-.4.15-.07.32-.01.4.13l4.8,9.55c.07.15.01.32-.13.4-.04.02-.09.03-.13.03Z"/>
        </g>
        <g>
          <path class="cls-2" d="M163.22,97.81s-.05,0-.07,0l-3.78-.99c-.16-.04-.25-.2-.21-.36.04-.16.2-.25.36-.21l3.78.99c.16.04.25.2.21.36-.03.13-.15.22-.29.22Z"/>
          <path class="cls-2" d="M155.57,95.81s-.05,0-.07,0l-11.59-3.03c-.16-.04-.25-.2-.21-.36.04-.16.2-.25.36-.21l11.59,3.03c.16.04.25.2.21.36-.03.13-.15.22-.29.22Z"/>
        </g>
        <g>
          <path class="cls-2" d="M159.44,47.88c-.11,0-.22-.06-.27-.17-.07-.15,0-.32.15-.39l3.78-1.72c.15-.07.32,0,.39.15.07.15,0,.32-.15.39l-3.78,1.72s-.08.03-.12.03Z"/>
          <path class="cls-2" d="M143.98,54.9c-.11,0-.22-.06-.27-.17-.07-.15,0-.32.15-.39l11.59-5.27c.15-.07.32,0,.39.15.07.15,0,.32-.15.39l-11.59,5.27s-.08.03-.12.03Z"/>
        </g>
        <g>
          <path class="cls-2" d="M119.37,17.15s-.08,0-.12-.03c-.15-.07-.21-.24-.15-.39l1.57-3.42c.07-.15.24-.21.39-.15.15.07.21.24.15.39l-1.57,3.42c-.05.11-.16.17-.27.17Z"/>
          <path class="cls-2" d="M112.97,31.12s-.08,0-.12-.03c-.15-.07-.21-.24-.15-.39l4.8-10.48c.07-.15.24-.21.39-.15.15.07.21.24.15.39l-4.8,10.48c-.05.11-.16.17-.27.17Z"/>
        </g>
      </g>
      <g>
        <g>
          <path class="cls-2" d="M52.17,32.48c-.08,0-.17-.04-.23-.11l-2.42-2.89c-.1-.12-.09-.31.04-.42.12-.1.31-.09.42.04l2.42,2.89c.1.12.09.31-.04.42-.06.05-.12.07-.19.07Z"/>
          <path class="cls-2" d="M47.23,26.57c-.08,0-.17-.04-.23-.11l-2.42-2.89c-.1-.13-.09-.31.04-.42.12-.1.31-.09.42.04l2.42,2.89c.1.13.09.31-.04.42-.06.05-.12.07-.19.07Z"/>
          <path class="cls-2" d="M62.06,44.31c-.08,0-.17-.04-.23-.11l-7.41-8.87c-.1-.13-.09-.31.04-.42.12-.1.31-.09.42.04l7.41,8.87c.1.13.09.31-.04.42-.06.05-.12.07-.19.07Z"/>
        </g>
        <g>
          <path class="cls-2" d="M22.43,73.8s-.02,0-.02,0l-4.27-.32c-.16-.01-.28-.15-.27-.32.01-.16.16-.28.32-.27l4.27.32c.16.01.28.15.27.32-.01.16-.14.27-.29.27Z"/>
          <path class="cls-2" d="M13.7,73.14s-.01,0-.02,0l-4.27-.32c-.16-.01-.28-.15-.27-.32.01-.16.16-.28.32-.27l4.27.32c.16.01.28.15.27.32-.01.16-.14.27-.29.27Z"/>
          <path class="cls-2" d="M39.89,75.11s-.01,0-.02,0l-13.09-.98c-.16-.01-.28-.15-.27-.32.01-.16.16-.28.32-.27l13.09.98c.16.01.28.15.27.32-.01.16-.14.27-.29.27Z"/>
        </g>
        <g>
          <path class="cls-2" d="M29.26,120.58c-.09,0-.19-.05-.25-.13-.09-.14-.06-.32.08-.41l3.62-2.44c.14-.09.32-.05.41.08.09.14.06.32-.08.41l-3.62,2.44c-.05.03-.11.05-.16.05Z"/>
          <path class="cls-2" d="M21.86,125.56c-.09,0-.19-.05-.25-.13-.09-.14-.06-.32.08-.41l3.62-2.44c.14-.09.32-.05.41.08.09.14.06.32-.08.41l-3.62,2.44c-.05.03-.11.05-.16.05Z"/>
          <path class="cls-2" d="M36.57,115.65c-.09,0-.19-.05-.25-.13-.09-.14-.06-.32.08-.41l11.1-7.48c.14-.09.32-.05.41.08.09.14.06.32-.08.41l-11.1,7.48c-.05.03-.11.05-.16.05Z"/>
        </g>
        <g>
          <path class="cls-2" d="M76.54,143.29s-.04,0-.07,0c-.16-.04-.26-.19-.22-.35l.85-3.77c.04-.16.19-.26.35-.22.16.04.26.19.22.35l-.85,3.77c-.03.14-.15.23-.29.23Z"/>
          <path class="cls-2" d="M74.8,151s-.04,0-.07,0c-.16-.04-.26-.19-.22-.35l.85-3.77c.04-.16.19-.26.35-.22.16.04.26.19.22.35l-.85,3.77c-.03.14-.15.23-.29.23Z"/>
          <path class="cls-2" d="M78.26,135.67s-.04,0-.07,0c-.16-.04-.26-.19-.22-.35l2.6-11.56c.04-.16.19-.26.35-.22.16.04.26.19.22.35l-2.6,11.56c-.03.14-.15.23-.29.23Z"/>
        </g>
        <g>
          <path class="cls-2" d="M132.32,128.32c-.08,0-.17-.04-.23-.11l-2.42-2.89c-.1-.13-.09-.31.04-.42.12-.1.31-.09.42.04l2.42,2.89c.1.13.09.31-.04.42-.06.05-.12.07-.19.07Z"/>
          <path class="cls-2" d="M137.26,134.24c-.08,0-.17-.04-.23-.11l-2.42-2.9c-.1-.12-.09-.31.04-.42.12-.1.31-.09.42.04l2.42,2.9c.1.12.09.31-.04.42-.06.05-.12.07-.19.07Z"/>
          <path class="cls-2" d="M127.43,122.47c-.08,0-.17-.04-.23-.11l-7.42-8.87c-.1-.13-.09-.31.04-.42.12-.1.31-.09.42.04l7.42,8.87c.1.13.09.31-.04.42-.06.05-.12.07-.19.07Z"/>
        </g>
        <g>
          <path class="cls-2" d="M163.91,84.44s-.01,0-.02,0l-4.27-.32c-.16-.01-.28-.15-.27-.32.01-.16.15-.28.32-.27l4.27.32c.16.01.28.15.27.32-.01.16-.14.27-.29.27Z"/>
          <path class="cls-2" d="M172.64,85.09s-.02,0-.02,0l-4.27-.32c-.16-.01-.28-.15-.27-.32.01-.16.16-.28.32-.27l4.27.32c.16.01.28.15.27.32-.01.16-.14.27-.29.27Z"/>
          <path class="cls-2" d="M155.28,83.79s-.01,0-.02,0l-13.09-.98c-.16-.01-.28-.15-.27-.32.01-.16.17-.28.32-.27l13.09.98c.16.01.28.15.27.32-.01.16-.14.27-.29.27Z"/>
        </g>
        <g>
          <path class="cls-2" d="M149.2,39.78c-.09,0-.19-.05-.25-.13-.09-.14-.06-.32.08-.41l3.62-2.44c.14-.09.32-.05.41.08.09.14.06.32-.08.41l-3.62,2.44c-.05.03-.11.05-.16.05Z"/>
          <path class="cls-2" d="M156.59,34.79c-.09,0-.19-.05-.25-.13-.09-.14-.06-.32.08-.41l3.62-2.44c.14-.09.32-.05.41.08.09.14.06.32-.08.41l-3.62,2.44c-.05.03-.11.05-.16.05Z"/>
          <path class="cls-2" d="M134.4,49.75c-.09,0-.19-.05-.25-.13-.09-.14-.06-.32.08-.41l11.1-7.48c.14-.09.32-.05.41.08.09.14.06.32-.08.41l-11.1,7.48c-.05.03-.11.05-.16.05Z"/>
        </g>
        <g>
          <path class="cls-2" d="M104.68,18.39s-.04,0-.07,0c-.16-.04-.26-.19-.22-.35l.85-3.77c.04-.16.19-.26.35-.22.16.04.26.19.22.35l-.85,3.77c-.03.14-.15.23-.29.23Z"/>
          <path class="cls-2" d="M106.42,10.68s-.04,0-.07,0c-.16-.04-.26-.19-.22-.35l.85-3.77c.04-.16.19-.26.35-.22.16.04.26.19.22.35l-.85,3.77c-.03.14-.15.23-.29.23Z"/>
          <path class="cls-2" d="M101.21,33.8s-.04,0-.07,0c-.16-.04-.26-.19-.22-.35l2.6-11.56c.04-.16.19-.26.35-.22.16.04.26.19.22.35l-2.6,11.56c-.03.14-.15.23-.29.23Z"/>
        </g>
      </g>
      <g>
        <g>
          <path class="cls-2" d="M91.04,7.3c-.16,0-.3-.13-.3-.3V.3c0-.16.13-.3.3-.3s.3.13.3.3v6.71c0,.16-.13.3-.3.3Z"/>
          <path class="cls-2" d="M91.04,21.75c-.16,0-.3-.13-.3-.3v-10.48c0-.16.13-.3.3-.3s.3.13.3.3v10.48c0,.16-.13.3-.3.3Z"/>
          <path class="cls-2" d="M91.04,36.84c-.16,0-.3-.13-.3-.3v-11.32c0-.16.13-.3.3-.3s.3.13.3.3v11.32c0,.16-.13.3-.3.3Z"/>
        </g>
        <g>
          <path class="cls-2" d="M32.36,33.95c-.06,0-.13-.02-.18-.06l-5.49-4.21c-.13-.1-.15-.28-.05-.41.1-.13.28-.15.41-.05l5.49,4.21c.13.1.15.28.05.41-.06.08-.15.12-.23.12Z"/>
          <path class="cls-2" d="M44.2,43.03c-.06,0-.13-.02-.18-.06l-8.58-6.58c-.13-.1-.15-.28-.05-.41.1-.13.28-.15.41-.05l8.58,6.58c.13.1.15.28.05.41-.06.08-.15.12-.23.12Z"/>
          <path class="cls-2" d="M56.55,52.51c-.06,0-.13-.02-.18-.06l-9.26-7.11c-.13-.1-.15-.28-.05-.41.1-.13.28-.15.41-.05l9.26,7.11c.13.1.15.28.05.41-.06.08-.15.12-.23.12Z"/>
        </g>
        <g>
          <path class="cls-2" d="M.29,87.72c-.15,0-.28-.11-.29-.27-.02-.16.1-.31.27-.32l7.76-.75c.16-.02.31.1.32.27.02.16-.1.31-.27.32l-7.76.75s-.02,0-.03,0Z"/>
          <path class="cls-2" d="M12.67,86.53c-.15,0-.28-.11-.29-.27-.02-.16.1-.31.27-.32l12.13-1.17c.16-.02.31.1.32.27.02.16-.1.31-.27.32l-12.13,1.17s-.02,0-.03,0Z"/>
          <path class="cls-2" d="M29.17,84.93c-.15,0-.28-.11-.29-.27-.02-.16.1-.31.27-.32l13.1-1.27c.16-.02.31.1.32.27.02.16-.1.31-.27.32l-13.1,1.27s-.02,0-.03,0Z"/>
        </g>
        <g>
          <path class="cls-2" d="M26.87,140.57c-.08,0-.16-.03-.21-.09-.11-.12-.11-.3,0-.42l5.49-5.27c.12-.11.3-.11.42,0,.11.12.11.3,0,.42l-5.49,5.27c-.06.05-.13.08-.2.08Z"/>
          <path class="cls-2" d="M35.62,132.17c-.08,0-.16-.03-.21-.09-.11-.12-.11-.3,0-.42l8.58-8.24c.12-.11.3-.11.42,0,.11.12.11.3,0,.42l-8.58,8.24c-.06.05-.13.08-.2.08Z"/>
          <path class="cls-2" d="M47.29,120.97c-.08,0-.16-.03-.21-.09-.11-.12-.11-.3,0-.42l9.26-8.9c.12-.11.3-.11.42,0,.11.12.11.3,0,.42l-9.26,8.9c-.06.05-.13.08-.2.08Z"/>
        </g>
        <g>
          <path class="cls-2" d="M91.04,157.32c-.16,0-.3-.13-.3-.3v-6.7c0-.16.13-.3.3-.3s.3.13.3.3v6.7c0,.16-.13.3-.3.3Z"/>
          <path class="cls-2" d="M91.04,146.64c-.16,0-.3-.13-.3-.3v-10.48c0-.16.13-.3.29-.3s.3.13.3.3v10.48c0,.16-.13.3-.29.3Z"/>
          <path class="cls-2" d="M91.04,132.39c-.16,0-.3-.13-.3-.3v-11.32c0-.16.13-.3.3-.3s.3.13.3.3v11.32c0,.16-.13.3-.3.3Z"/>
        </g>
        <g>
          <path class="cls-2" d="M155.2,128.17c-.06,0-.13-.02-.18-.06l-5.49-4.21c-.13-.1-.15-.28-.05-.41.1-.13.28-.15.41-.05l5.49,4.21c.13.1.15.28.05.41-.06.08-.15.12-.23.12Z"/>
          <path class="cls-2" d="M146.45,121.46c-.06,0-.13-.02-.18-.06l-8.58-6.58c-.13-.1-.15-.28-.05-.41.1-.13.28-.15.41-.05l8.58,6.58c.13.1.15.28.05.41-.06.08-.15.12-.23.12Z"/>
          <path class="cls-2" d="M134.78,112.51c-.06,0-.13-.02-.18-.06l-9.27-7.11c-.13-.1-.15-.28-.05-.41.1-.13.28-.15.41-.05l9.27,7.11c.13.1.15.28.05.41-.06.08-.15.12-.23.12Z"/>
        </g>
        <g>
          <path class="cls-2" d="M174.01,70.94c-.15,0-.28-.11-.29-.27-.02-.16.1-.31.27-.32l7.76-.75c.16-.02.31.1.32.27.02.16-.1.31-.27.32l-7.76.75s-.02,0-.03,0Z"/>
          <path class="cls-2" d="M157.27,72.56c-.15,0-.28-.11-.29-.27-.02-.16.1-.31.27-.32l12.13-1.17c.16-.02.31.1.32.27.02.16-.1.31-.27.32l-12.13,1.17s-.02,0-.03,0Z"/>
          <path class="cls-2" d="M139.8,74.25c-.15,0-.28-.11-.29-.27-.02-.16.1-.31.27-.32l13.1-1.27c.16-.02.31.1.32.27.02.16-.1.31-.27.32l-13.1,1.27s-.02,0-.03,0Z"/>
        </g>
        <g>
          <path class="cls-2" d="M149.71,22.62c-.08,0-.16-.03-.21-.09-.11-.12-.11-.3,0-.42l5.49-5.27c.12-.11.3-.11.42,0,.11.12.11.3,0,.42l-5.49,5.27c-.06.06-.13.08-.2.08Z"/>
          <path class="cls-2" d="M137.87,33.99c-.08,0-.16-.03-.21-.09-.11-.12-.11-.3,0-.42l8.57-8.24c.12-.11.3-.11.42,0,.11.12.11.3,0,.42l-8.57,8.24c-.06.06-.13.08-.2.08Z"/>
          <path class="cls-2" d="M125.52,45.85c-.08,0-.16-.03-.21-.09-.11-.12-.11-.3,0-.42l9.27-8.9c.12-.11.3-.11.42,0,.11.12.11.3,0,.42l-9.27,8.9c-.06.06-.13.08-.2.08Z"/>
        </g>
      </g>
    </g>
    <g>
      <path class="cls-2" d="M53.68,80.37c1.64-1.63,3.69-2.62,6.16-2.96,2.46-.34,4.95-.45,7.46-.33l-1.83,6.5c-2.6-.24-4.4-.29-5.41-.15-1.28.18-2,.77-2.16,1.78-.06.4.18.74.74,1.03.55.29,1.23.58,2.04.87.81.29,1.6.66,2.38,1.11.78.45,1.39,1.17,1.84,2.15.44.98.56,2.16.34,3.55-.4,2.53-1.4,4.58-3.01,6.16-1.61,1.58-3.68,2.54-6.23,2.9-2.55.35-4.97.31-7.27-.12l1.39-6.01c2.78.42,4.74.55,5.89.39,1.14-.16,1.79-.73,1.95-1.72.08-.51-.15-.93-.7-1.27-.55-.34-1.22-.66-2.02-.97-.8-.3-1.6-.68-2.4-1.11-.8-.44-1.42-1.14-1.86-2.12-.44-.98-.55-2.2-.32-3.67.37-2.37,1.38-4.37,3.02-6Z"/>
      <path class="cls-2" d="M71.52,78.71c1.88-2.21,4.6-3.57,8.17-4.06,3.57-.5,5.96.13,7.19,1.89,1.23,1.76,1.49,4.85.79,9.28-.7,4.43-2.01,7.82-3.92,10.17-1.91,2.35-4.64,3.77-8.18,4.26-3.54.49-5.92-.21-7.13-2.09-1.22-1.89-1.48-5.05-.78-9.48.7-4.43,1.99-7.75,3.87-9.97ZM80.84,81.92c-.26-.81-.99-1.13-2.2-.96-1.21.17-2.06.71-2.55,1.62-.49.91-.93,2.58-1.31,5l-.15.96c-.41,2.58-.48,4.25-.21,5.01.27.76,1,1.05,2.22.88,1.21-.17,2.05-.66,2.53-1.48.47-.82.9-2.44,1.29-4.86l.2-1.28c.39-2.45.45-4.08.19-4.89Z"/>
      <path class="cls-2" d="M93.48,75.66c1.88-2.21,4.6-3.57,8.17-4.06,3.56-.5,5.96.13,7.19,1.89,1.23,1.76,1.49,4.85.79,9.28-.7,4.43-2.01,7.82-3.92,10.17-1.91,2.35-4.64,3.77-8.18,4.26-3.54.49-5.92-.21-7.13-2.09-1.22-1.89-1.48-5.05-.78-9.48.7-4.43,1.99-7.75,3.87-9.97ZM102.8,78.87c-.26-.81-.99-1.13-2.2-.96-1.21.17-2.06.71-2.55,1.62-.49.91-.93,2.58-1.31,5l-.15.96c-.41,2.58-.48,4.25-.21,5.01.27.76,1,1.05,2.22.88,1.21-.17,2.05-.66,2.53-1.48.47-.82.9-2.44,1.29-4.86l.2-1.28c.39-2.45.45-4.08.19-4.89Z"/>
      <path class="cls-2" d="M128.9,92.45l-6.69.93-3.44-10.81-.33.05-1.82,11.54-6.2.86,3.92-24.79,6.9-.96,3.14,11.2.33-.05,1.88-11.9,6.25-.87-3.92,24.79Z"/>
    </g>
    <g>
      <path class="cls-1" d="M75.19,50.75c1.8,3.69-1.17,10.09-2.97,11.72-4.81,4.36-5.67,2.52-4.85,1.59,3.36-3.96,8.79-8.68,6.84-13.17-1.56-3.61-5.67-2.01-9.57,1.67-2.54,2.35-7.62,9.56-8.21,16.45-1.09,13.8,8.6,9.84,17.82-3.2l-.23,1.13c-13.75,21.11-22.39,11.98-21.73,2.89.39-5.8,2.03-11.9,7.74-17.71,4.92-5,12.93-5.9,15.16-1.37Z"/>
      <path class="cls-1" d="M81.4,63.82c.04.19-.31.36-.43-.06-.39-.96-1.88-1.34-3.4.56-1.88,2.42-3.4,6.42-3.4,8.81,0,1.56,2.93-1,4.69-8.29.08-.32,3.56-.78,3.48-.46-2.7,8.59-7.78,10.45-8.64,10.29-3.17-.64-3.09-2.61-1.37-7.11.43-1.19,2.07-4.2,4.22-4.9,3.67-1.15,4.73.11,4.85,1.15Z"/>
      <path class="cls-1" d="M100.9,65.19c-2.85,3.41-3.95,4.9-4.84,5.77-.98.96-1.33,1.4-2.74.97-1.45-.38-1.6-1.3-.7-3.54.23-.54.59-1.45,1.05-2.46-1.56,1.79-2.89,3.19-3.83,4.77-.04.08-.12.17-.16.22-.66,2.13.55,2.19-1.91,1.21-1.56-.64-1.91-.94-.7-3.57.78-1.75,1.45-3.14,2.15-4.41-1.88,2.22-3.44,3.81-4.65,5.47-.16.3-.31.63-.47.97-1.41,3.05.51,3.29-2.31,2.16-1.56-.64-1.88-.95-.7-3.57,1.52-3.27,2.5-5.2,4.1-7.5.35-.52,1.25-.49,1.95-.36.7.17,1.88.36,1.56.83-1.09,1.64-1.95,3.05-2.74,4.57,1.95-2.19,4.38-4.57,5.16-5.66.35-.52,1.25-.49,1.95-.36.74.17,1.88.36,1.56.83-1.48,2.24-2.46,4.02-3.56,6.25,1.13-1.41,2.62-2.91,3.83-4.22,1.09-1.8,2.38-3.31,3.71-3.03.43.06,2.23.39,1.84.79-1.99,2.04-2.27,2.86-3.24,4.72-.74,1.43-1.48,3.57-1.37,3.67.62.03,3.44-3.46,4.49-4.9.31-.4.78.08.55.35Z"/>
      <path class="cls-1" d="M107.27,60.06c-1.99,2.04-2.23,2.86-3.24,4.72-.74,1.43-1.48,3.57-1.37,3.67.66.02,3.48-3.23,4.57-4.68.27-.39.78.08.55.35-2.81,3.41-4.03,4.68-4.88,5.54-1.02.96-1.37,1.41-2.77.98-1.45-.38-1.6-1.3-.7-3.53.74-1.86,3.4-8.38,6.02-7.85.43.06,2.23.39,1.84.79ZM107.9,55.36c-1.21-.22-1.76-.1-2.23.82-.39.8-.63,1.18,1.25,1.58,1.29.29,1.33.16,2.03-1.07.47-.85.16-1.12-1.06-1.34Z"/>
      <path class="cls-1" d="M120.44,62.37c-2.85,3.41-4.18,5.05-5.08,5.92-.98.96-1.33,1.4-2.77.98-1.41-.39-1.56-1.3-.66-3.54.27-.7.78-2.03,1.48-3.38-1.52,1.74-2.85,3.06-3.91,4.42l-.16.3c-1.41,3.05.51,3.29-2.31,2.16-1.56-.64-1.88-.94-.7-3.57,1.52-3.26,2.5-5.2,4.1-7.5.35-.52,1.25-.49,1.95-.36.7.17,1.88.36,1.56.83-1.37,2.03-2.31,3.69-3.28,5.66,1.48-1.66,3.2-3.35,4.26-4.51.94-1.27,1.95-2.11,3.01-1.91.43.06,2.23.39,1.84.79-1.99,2.04-2.27,2.86-3.24,4.72-.74,1.43-1.48,3.57-1.37,3.67.62.03,3.67-3.61,4.73-5.05.27-.39.78.08.55.35Z"/>
      <path class="cls-1" d="M131.54,56.58c-2.27,4.07-4.34,9.49-6.64,16.38-.43,1.35-1.68,4.15-3.91,4.97-4.53,1.89-6.68-.81-5.63-4.36,1.05-3.47,3.83-4.53,5.47-4.29l-.16.41c-1.29.34-2.23,1.8-2.93,3.54-1.41,3.44.47,7.05,2.58,2.13.04-.16.12-.37.2-.54.47-1.16,1.05-2.69,1.76-4.71.27-.82,1.25-3.46,2.38-6.24-1.09,1.56-1.88,2.65-2.34,3.11-1.02,1-1.37,1.44-2.77,1.02-1.45-.42-1.6-1.3-.7-3.57.74-1.86,3.24-7.18,6.02-7.85,1.64-.39,2.81-.32,3.63-.13.16-.18.31-.32.47-.34.43-.1,2.85-.01,2.58.45ZM125.52,61.93c.98-2.17,1.95-4.19,2.7-5.15-.59,0-1.37.47-2.31,1.46-.86.9-1.48,2.01-2.46,3.91-.74,1.43-1.48,3.57-1.37,3.67.35-.01,1.95-1.96,3.44-3.89Z"/>
    </g>
    <g>
      <path class="cls-1" d="M68.1,105.25c.45-.45,1.01-.72,1.69-.81.68-.09,1.36-.12,2.05-.09l-.5,1.79c-.71-.07-1.21-.08-1.49-.04-.35.05-.55.21-.59.49-.02.11.05.2.2.28s.34.16.56.24c.22.08.44.18.65.31.21.12.38.32.5.59.12.27.15.59.09.97-.11.7-.39,1.26-.83,1.69-.44.43-1.01.7-1.71.8-.7.1-1.37.09-2-.03l.38-1.65c.76.12,1.3.15,1.62.11.31-.04.49-.2.54-.47.02-.14-.04-.26-.19-.35-.15-.09-.34-.18-.56-.27-.22-.08-.44-.19-.66-.31-.22-.12-.39-.31-.51-.58-.12-.27-.15-.61-.09-1.01.1-.65.38-1.2.83-1.65Z"/>
      <path class="cls-1" d="M77.04,105.16l-1.3.18-.81,5.16-1.92.27.81-5.16-1.38.19.37-1.67,4.6-.64-.37,1.67Z"/>
      <path class="cls-1" d="M82.34,109.46l-1.87.26-.04-1.05-1.32.18-.38,1.11-1.78.25,2.36-6.99,2.85-.4.2,6.64ZM80.42,107.42v-2.38s-.09.01-.09.01l-.78,2.49.86-.12Z"/>
      <path class="cls-1" d="M89.28,101.83l-2.4,4.94-.33,2.11-1.91.26.33-2.11-.89-4.48,2.11-.29.16,2.15h.09s.83-2.3.83-2.3l2.02-.28Z"/>
      <path class="cls-1" d="M97.04,102.38l-1.3.18-.81,5.16-1.92.27.81-5.16-1.38.19.37-1.67,4.6-.64-.37,1.67Z"/>
      <path class="cls-1" d="M99.72,105.35c.08.1.23.13.45.1.22-.03.38-.1.49-.22.1-.12.17-.3.21-.54l.72-4.57,1.93-.27-.74,4.68c-.12.78-.43,1.38-.93,1.8-.49.42-1.17.69-2.01.81-.85.12-1.45.03-1.81-.27-.36-.3-.48-.83-.35-1.61l.74-4.7,1.96-.27-.72,4.58c-.04.23-.01.39.07.48Z"/>
      <path class="cls-1" d="M109.07,105.75l-1.84.26-.95-2.97h-.09s-.5,3.18-.5,3.18l-1.71.24,1.08-6.82,1.9-.26.86,3.08h.09s.52-3.28.52-3.28l1.72-.24-1.08,6.82Z"/>
      <path class="cls-1" d="M114.39,105.01l-3.77.52,1.08-6.82,3.88-.54-.38,1.69-1.85.26-.16,1.02,1.6-.22-.23,1.45-1.6.22-.18,1.13,1.96-.27-.35,1.55Z"/>
      <path class="cls-1" d="M121.46,100.55c-.37,2.37-1.52,3.69-3.43,3.96l-2.31.32,1.08-6.82,2.36-.33c1.02-.14,1.71.04,2.05.54.34.5.43,1.28.26,2.33ZM119.08,102.41c.16-.29.29-.76.39-1.41s.11-1.1.03-1.35c-.08-.25-.32-.35-.73-.3l-.34.05-.56,3.58.37-.05c.4-.05.67-.23.83-.52Z"/>
    </g>
  </g>
</svg>