<?xml version="1.0" encoding="UTF-8"?>
<svg id="Layer_2" xmlns="http://www.w3.org/2000/svg" xmlns:xlink="http://www.w3.org/1999/xlink" viewBox="0 0 1847.32 4777.91">
  <defs>
    <style>
      .cls-1 {
        fill: url(#linear-gradient-15);
      }

      .cls-2 {
        fill: url(#linear-gradient-13);
      }

      .cls-3 {
        fill: url(#linear-gradient-2);
      }

      .cls-4 {
        fill: url(#linear-gradient-25);
      }

      .cls-5 {
        fill: url(#linear-gradient-10);
      }

      .cls-6 {
        fill: url(#linear-gradient-12);
      }

      .cls-7 {
        fill: url(#linear-gradient-4);
      }

      .cls-8 {
        fill: url(#radial-gradient);
      }

      .cls-9 {
        fill: url(#radial-gradient-3);
      }

      .cls-10 {
        fill: url(#linear-gradient-3);
      }

      .cls-11 {
        fill: url(#linear-gradient-5);
      }

      .cls-12 {
        fill: url(#linear-gradient-22);
      }

      .cls-13 {
        fill: url(#linear-gradient-24);
      }

      .cls-14 {
        fill: url(#linear-gradient-8);
      }

      .cls-15 {
        fill: url(#radial-gradient-2);
      }

      .cls-16 {
        fill: url(#linear-gradient-14);
      }

      .cls-17 {
        fill: url(#linear-gradient-20);
      }

      .cls-18 {
        fill: url(#linear-gradient-17);
      }

      .cls-19 {
        fill: url(#linear-gradient-7);
      }

      .cls-20 {
        fill: url(#linear-gradient-9);
      }

      .cls-21 {
        fill: url(#New_Gradient_Swatch);
      }

      .cls-22 {
        fill: url(#linear-gradient-11);
      }

      .cls-23 {
        fill: url(#linear-gradient-19);
      }

      .cls-24 {
        fill: url(#linear-gradient-6);
      }

      .cls-25 {
        fill: url(#linear-gradient-21);
      }

      .cls-26 {
        fill: url(#linear-gradient-16);
      }

      .cls-27 {
        fill: url(#linear-gradient);
      }

      .cls-28 {
        fill: url(#linear-gradient-23);
      }

      .cls-29 {
        fill: url(#linear-gradient-18);
      }
    </style>
    <linearGradient id="New_Gradient_Swatch" data-name="New Gradient Swatch" x1="916.33" y1="4777.91" x2="916.33" y2="47.8" gradientUnits="userSpaceOnUse">
      <stop offset="0" stop-color="#a87c4f"/>
      <stop offset="0" stop-color="#a87c4f"/>
      <stop offset=".15" stop-color="#b89169"/>
      <stop offset=".31" stop-color="#c3a07c"/>
      <stop offset=".47" stop-color="#caa988"/>
      <stop offset=".64" stop-color="#cdac8c"/>
    </linearGradient>
    <linearGradient id="linear-gradient" x1="1607.71" y1="2952.36" x2="1443.26" y2="3912.84" gradientUnits="userSpaceOnUse">
      <stop offset="0" stop-color="#c3996b"/>
      <stop offset="1" stop-color="#8a5d3b"/>
    </linearGradient>
    <linearGradient id="linear-gradient-2" x1="1798.01" y1="2984.93" x2="1633.56" y2="3945.43" xlink:href="#linear-gradient"/>
    <linearGradient id="linear-gradient-3" x1="1703.29" y1="3548.06" x2="1483.4" y2="4832.39" xlink:href="#linear-gradient"/>
    <linearGradient id="linear-gradient-4" x1="1383.53" y1="2128.17" x2="1383.53" y2="116.43" gradientUnits="userSpaceOnUse">
      <stop offset="0" stop-color="#a87c4f"/>
      <stop offset=".47" stop-color="#ba946d"/>
      <stop offset="1" stop-color="#cdac8c"/>
    </linearGradient>
    <linearGradient id="linear-gradient-5" x1="1383.44" y1="-40.78" x2="1052.87" y2="1889.93" xlink:href="#linear-gradient"/>
    <linearGradient id="linear-gradient-6" x1="1533.42" y1="-15.1" x2="1202.86" y2="1915.61" xlink:href="#linear-gradient"/>
    <linearGradient id="linear-gradient-7" x1="1250.46" y1="2542.36" x2="1250.46" y2="3565.48" gradientUnits="userSpaceOnUse">
      <stop offset="0" stop-color="#8a5d3b"/>
      <stop offset="1" stop-color="#c3996b"/>
    </linearGradient>
    <linearGradient id="linear-gradient-8" x1="1537.11" y1="-14.47" x2="1206.55" y2="1916.24" xlink:href="#linear-gradient"/>
    <linearGradient id="linear-gradient-9" x1="1000.98" y1="1579.56" x2="1000.98" y2="2622.38" xlink:href="#linear-gradient"/>
    <radialGradient id="radial-gradient" cx="1115.58" cy="2759.34" fx="1115.58" fy="2759.34" r="1993.56" gradientUnits="userSpaceOnUse">
      <stop offset="0" stop-color="#a87c4f"/>
      <stop offset="0" stop-color="#a87c4f"/>
      <stop offset=".24" stop-color="#b89169"/>
      <stop offset=".48" stop-color="#c3a07c"/>
      <stop offset=".74" stop-color="#caa988"/>
      <stop offset="1" stop-color="#cdac8c"/>
    </radialGradient>
    <linearGradient id="linear-gradient-10" x1="614.42" y1="2276.49" x2="498.29" y2="2954.78" xlink:href="#linear-gradient"/>
    <linearGradient id="linear-gradient-11" x1="971.03" y1="2337.54" x2="854.89" y2="3015.83" xlink:href="#linear-gradient"/>
    <linearGradient id="linear-gradient-12" x1="749.92" y1="1587.84" x2="749.92" y2="47.8" xlink:href="#linear-gradient-4"/>
    <linearGradient id="linear-gradient-13" x1="332.96" y1="2875.18" x2="638.42" y2="2222.46" xlink:href="#linear-gradient-4"/>
    <linearGradient id="linear-gradient-14" x1="591.52" y1="1587.84" x2="591.52" y2="47.8" xlink:href="#linear-gradient-4"/>
    <linearGradient id="linear-gradient-15" x1="1110.53" y1="1610.04" x2="1110.53" y2="3015" xlink:href="#linear-gradient"/>
    <linearGradient id="linear-gradient-16" x1="875.78" y1="-44.94" x2="571.5" y2="1732.29" xlink:href="#linear-gradient"/>
    <linearGradient id="linear-gradient-17" x1="548.99" y1="2600.19" x2="548.99" y2="1490.99" xlink:href="#linear-gradient-4"/>
    <linearGradient id="linear-gradient-18" x1="711.41" y1="-73.08" x2="407.13" y2="1704.15" xlink:href="#linear-gradient"/>
    <linearGradient id="linear-gradient-19" x1="657.89" y1="3721.89" x2="454.05" y2="4912.43" xlink:href="#linear-gradient"/>
    <radialGradient id="radial-gradient-2" cx="1115.58" cy="2797.71" fx="1115.58" fy="2797.71" r="2049.18" xlink:href="#radial-gradient"/>
    <linearGradient id="linear-gradient-20" x1="562.6" y1="-98.56" x2="258.31" y2="1678.66" xlink:href="#linear-gradient"/>
    <radialGradient id="radial-gradient-3" cx="1115.58" cy="2759.34" fx="1115.58" fy="2759.34" r="1993.56" xlink:href="#radial-gradient"/>
    <linearGradient id="linear-gradient-21" x1="880.82" y1="2081.86" x2="880.82" y2="1494.87" gradientUnits="userSpaceOnUse">
      <stop offset="0" stop-color="#a87c4f"/>
      <stop offset=".59" stop-color="#c9a581"/>
      <stop offset="1" stop-color="#debea0"/>
    </linearGradient>
    <linearGradient id="linear-gradient-22" x1="640.75" y1="1579.58" x2="640.75" y2="2622.4" xlink:href="#linear-gradient"/>
    <linearGradient id="linear-gradient-23" x1="1581.85" y1="-2986.78" x2="-235.84" y2="7629.89" xlink:href="#linear-gradient"/>
    <linearGradient id="linear-gradient-24" x1="1001.75" y1="2154.08" x2="1001.75" y2="2744.33" xlink:href="#linear-gradient"/>
    <linearGradient id="linear-gradient-25" x1="987.92" y1="3134.98" x2="761.85" y2="2390.37" xlink:href="#linear-gradient-4"/>
  </defs>
  <g id="Hand_Peace_Sign">
    <g id="Color">
      <g id="Color-2" data-name="Color">
        <g>
          <path class="cls-21" d="M1711.24,3488.3c-17.01,51.03-35.06,87.81-17.01,85.05,0,0-71.23,119.15-159.67,153.16-88.46,34.03-188.61,94.17-118.83,86.63,26.61-2.88,51.15-8.27,73.79-15.69-.23,1.4-.47,2.86-.71,4.37-87.36,26.15-190.53,18.82-217.7,10.82-38.56-11.34,122.49-108.88,93-122.49-29.49-13.61,192.81-56.71,277.88-179.2,84.76-122.03,69.92-416.05,69.81-418.27,5.35,12.49,10.26,27.46,12.66,45.66,8.9,67.55,3.8,298.92-13.21,349.96Z"/>
          <path class="cls-21" d="M1699.59,3577.57c-3.22-2.78-5.36-4.22-5.36-4.22,1.91-.28,3.7,1.25,5.36,4.22Z"/>
          <path class="cls-21" d="M1494.46,4697.71c64.95-16.87,129.95-35.75,194.19-55.98-3.2-54.31-8.73-266.27-18.31-314.17-22.68-113.42-45.37-299.43-39.86-372.02,3.69-48.4,2.45-142.75,1.23-200.29-.61-28.76-1.23-48.32-1.23-48.32-14.01,14.89-29.6,19.96-46.91,32.8l-33.26,24.19c-24.28,25.18-24.88,17.85-61.52,28.82-12.48,77.3-45.48,304.77-36.23,400.98,7.19,74.83,28.13,389.31,41.88,503.98Z"/>
          <path class="cls-21" d="M1529.21,295.13c23.82,85.05,35.73,299.4,37.43,370.86,1.7,71.45-1.7,188.83,0,229.66s25.52,227.96,13.61,272.2c-11.91,44.23-20.42,49.34-22.12,129.29-1.7,79.96,5.1,159.92-11.91,280.7-17.01,120.79-23.82,168.42-17.01,207.55,6.81,39.13,35.73,188.63,45.93,249.98,7.77,46.69-6.14,73.61-7.22,92.81-5.98-16.34-10.63-29.31-13.27-37.24-18.15-54.44-115.69-242.72-170.13-274.47-12.76-7.44-29.78-15.81-49.14-24.62,30.99-20.04-63.92-92.8,31.95-56.14,95.88,36.66-23.82-78.26-74.9-101.15-13.13-10.48-28.71-20.9-43.31-28.01-18.62-17.16-30.61-36.58-52.12-57.92-34.22-33.96,4.53-215.88,28.47-257.36,23.94-41.47,12.56-21.75,73.81-5.95,61.26,15.8,187.69,0,241.59-45.49,53.92-45.5-120.27-69.45-142.91-99.17-22.63-29.73-132.71-20.86-176.96-58.29-44.23-37.44-17.01-156.54,0-279.05,7.92-57.04,41.1-80.77,76.1-90.87,31.44,1.44,64.05,4.23,89.2,8.01,68.04,10.21,176.92,27.22,161.61,17.01-10.34-6.9-85.09-30.86-151.39-46.22-5.7-6.45-29.41-17.65-87.05-47.86-94.78-49.7-61.25-159.94-67.68-251.83-6.41-91.54,23.09-254.77,23.3-255.92h0c14.76-8.59,32.29-14.64,53.16-17.42,127.59-17,187.13,91.87,210.95,176.93Z"/>
          <path class="cls-21" d="M1396.53,691.23c-31.87-7.38-61.79-12.77-81.67-13.33-61.25-1.7-112.29,6.81-119.09-6.81-6.81-13.61-8.51-219.46-8.51-307.92,0-73.99,2.38-183.71,77.84-227.55-.2,1.15-29.7,164.38-23.3,255.92,6.43,91.88-27.11,202.12,67.68,251.83,57.64,30.21,81.34,41.41,87.05,47.86Z"/>
          <path class="cls-21" d="M1292.42,1634.55c51.08,22.89,170.79,137.8,74.9,101.15-95.87-36.66-.96,36.1-31.95,56.14-.01-.01-.01,0-.01,0-63.28-28.81-151.57-62.4-198.1-84.26-33.74-15.86-53.44-23.35-64.29-26.89,25.79-11.39,48.42-38.76,92.18-45,59.53-8.51,60.42-8,103.02,16.59,42.61,24.6,56.43,30.87,55.69,17.05-.33-6.26-13.64-20.57-31.44-34.77Z"/>
          <path class="cls-21" d="M955.58,3137.71c-51.04,129.31-30.11,427.76-30.11,427.76-.01-.02-.02-.05-.03-.07-18.51-55.31-41.05-128.1-35.87-185.99,8.51-95.26,13.61-178.62,0-253.48-13.61-74.85-30.62-148-30.62-148,0,0,141.2-5.1,137.79-136.1,0-2.46-.11-5.05-.32-7.72-.69-13.21-2.26-26.11-4.53-38.65-2.65-44.01-1.2-108.85,24.69-146.49,41.86-60.88,124.6-67.28,124.6-67.28,22.59,55.11,64.21,142.66,123.12,210.19,45.47,52.13,106.13,103.71,162.09,143.35t.02.02c114.49,93.91,189.34,158.22,213.16,195.66,23.82,37.43-136.11-26.77-136.11-26.77-64.66-26.76-258.62-153.59-323.28-160.4-64.66-6.81-173.55,64.65-224.59,193.97Z"/>
          <path class="cls-21" d="M1149.84,1281.82c-1.7-47.62-15.31-95.26,18.71-86.75,34.01,8.51,74.21,52.74,155.34,64.64,81.13,11.91,137.26-17,172.99-18.7,35.73-1.7,25.52-25.52-11.91-20.42s-66.35,34.01-134.39,17.01c-68.05-17.01-189.39-61.98-175.22-66.35,14.15-4.37,69.74-19.45,137.79-11.91,68.05,7.54,108.87,32.32,129.29,30.62,20.42-1.7-56.13-42.53-120.78-49.34-64.65-6.81-151.4,1.7-153.1-6.81-1.7-8.51,10.21-91.87,8.51-241.57-1.7-149.7,5.53-162.26,12.12-173.66,4.15-7.19,54.34-8.64,107.92-6.17-35,10.11-68.19,33.83-76.1,90.87-17.01,122.5-44.23,241.61,0,279.05,44.24,37.43,154.33,28.56,176.96,58.29,22.64,29.73,196.83,53.67,142.91,99.17-53.91,45.49-180.34,61.29-241.59,45.49-61.26-15.8-49.87-35.51-73.81,5.95-23.94,41.48-62.69,223.4-28.47,257.36,21.5,21.35,33.49,40.76,52.12,57.92-9.3-4.53-18.23-7.7-25.87-8.7-35.98-4.68-109.12,20.84-105.72,3.82,3.4-17.01,34.03-272.2,32.32-319.83Z"/>
          <path class="cls-21" d="M1016.58,2551.42c17.47-3.57,49.85-42.23,62.87-58.56l9.13,10.94s-30.71,31.75-60.19,56.69c-29.49,24.95-70.69,4.91-83-6.43-12.31-11.34-42.14-63.89-28.52-141.01,13.61-77.13,62.63-95.08,62.63-95.08l11.24,3.97c-16.51,17.97-48.34,53.79-59.89,75.23-15.88,29.49,0,93,8.11,126.8,8.11,33.79,55.41,31.98,77.62,27.45Z"/>
          <path class="cls-21" d="M1049.66,1698.14c.95,2.21-.68,8.08-1.26,24.36-.74,20.88-67.65,165.01-147.05,165.01s-183.16-91.47-192.23-107.35c-9.07-15.88-23.26-45.37,1.69-138.37,18.39-68.55,79.9-95.19,110.99-104.47,0,0,.01,0,.03.01.65.26,10.88,4.4,23.52,10.67.5.27,1,.56,1.5.83-16.93,5.22-47.81,16.57-86.14,39-58.98,34.52-47.64,160.57-45.37,180.98s163.32,111.15,183.74,108.88c20.42-2.27,81.75-63.11,106.24-105.53,23.51-40.72,41.82-72.44,43.24-74.89l.45.06.64.78h.01Z"/>
          <path class="cls-21" d="M867.15,2911.86c24.4-1.3,35.16,17.52,71.81-6.58,18.91-12.43,30.77-23.16,37.84-30.63-2.74,18.17-9.21,32.7-20.88,40.33-16.53,10.81-39.92,23.74-68.27,31.98-20.5,6.52-37.33,8.94-67.78,8h-.01c-33.05-1.89-69.37-12.64-107.22-38.28-105.48-71.45-163.32-115.68-195.65-166.72-17.36-27.44-29.98-48.04-37.93-61.25-6.84-11.36-10.23-17.23-10.23-17.23,0,0-17.24-3.41-39.83-11.67-13.42-4.91-28.73-11.51-43.44-20.13-9.34-5.82-18.09-9.72-30.69-22.53-45.53-41.7-175.12-187.66-179.82-186.11-23.81-61.68-28.31-125.06-25.96-150.89,3.4-37.43,57.84,13.61,122.5,102.09,64.66,88.48,91.88,112.3,187.16,160.11,95.27,47.82,68.05-24,116.84-54.62,48.79-30.62,5.66,51.04.54,88.48-5.1,37.43,25.53,78.26,96.98,146.32,71.47,68.06,121.61,73.86,121.61,73.86,2.27,95.27,48.01,116.77,72.41,115.46Z"/>
          <path class="cls-21" d="M938.95,2905.29c-36.65,24.1-47.41,5.27-71.81,6.58-24.4,1.3-70.14-20.19-72.41-115.46l21.11,61.97s24.93,46.91,76.49,46.91,85.92-46.91,85.92-46.91l-1.46,16.28c-7.07,7.47-18.93,18.2-37.84,30.63Z"/>
          <path class="cls-21" d="M841.09,1171.73c11.81,5.17,66.31,299.69,97.86,416.11-29.69-33.48-84.67-69.41-101.11-79.88-13.61-8.67-55.56-14.62-105.63-3.15-1.25-.53-81.22-34.9-116.71-51.55-35.77-16.8-63.22-154.67-52.1-173.91,11.1-19.24,7.66-13.26,77.34-16.66,69.7-3.4,117.47-27.22,141.29-34.03,18.12-5.17,42.84-35.4,51.02-63.25,1.61,2.47,4.21,4.63,8.05,6.32Z"/>
          <path class="cls-21" d="M809.6,2448.85c7.1,15.62,80.54,149.71,118.5,223.32-41.6,26.58-135.25,44.83-133.36,124.23,0,0-50.14-5.8-121.61-73.86-71.45-68.06-102.09-108.89-96.98-146.32,5.12-37.44,48.25-119.1-.54-88.48-48.79,30.62-21.57,102.44-116.84,54.62-95.28-47.82-122.5-71.64-187.16-160.11-64.66-88.48-119.1-139.52-122.5-102.09-2.35,25.84,2.15,89.22,25.96,150.89-.17.06-.18.32,0,.78,5.1,13.61,13.04,68.19,56.71,103,31.69,25.26,59.18,60.85,84.24,85.62-2.78-1.37-9.14-4.89-18.02-10.01-44.96-26.02-154.64-93.43-193.13-132.67-22.68-23.11-38.46-41.55-46.08-45.41-.18-28.66,6.9-67.06,41.43-121.3,57.13-89.7,107.18-156.51,131-171.82,23.82-15.31,67.94-40.79,67.94-40.79,0,0,47.74-34.07,93.67-18.76,45.93,15.31,142.9,95.26,175.22,125.88,32.32,30.62,233.07,224.56,241.57,243.27Z"/>
          <path class="cls-21" d="M792.59,865.03c52.74,170.12,47.64,263.69,42.53,275.6-4.6-23.99-41.45-29.19-95.53-36.57,8.53-2.53,12.28-4.65,8.77-5.97-6.77-2.54-30.41-3.39-61.03-1.72h-.01c-81.66-13.63-135.41,23.21-187.4,25.93-51.99,2.72-58.17-145.45-58.17-233.93s0-139.52,85.48-156.54c64.1-12.76,72.15-38.91,92.32-63.9,35.67-10.97,57.99-21.97,26.74-24.06,47.79-30.11-116.07-24.34-167.11-34.55-51.05-10.21-105.49-125.91-129.31-323.28-23.83-197.36,45.58-232.2,45.58-232.2,104.41-26.63,200.7,33.86,250.84,200.46,52.74,175.22,88.46,318.12,81.66,347.04-6.81,28.92-42.88,43.21-17.89,48.11,24.99,4.91,29.78,45.46,82.52,215.58Z"/>
          <path class="cls-21" d="M1061.28,2349.81s26.09,4.25,51.04,0c24.95-4.25,24.42-29.82,25.47-60.62,1.07-30.8-14.13,8.17-64.04,24.04-49.9,15.88-165.59-70.32-240.45-111.15-12.86-7.02-24.52-15.84-35.38-26.21-52.25-49.94-85.6-135.55-143.83-226.37-70.32-109.67-63.51-230.58-15.88-339.46,0,0,5.04,318.42,127.49,397.59,122.47,79.17,237.51,121.09,322.87,120.54,85.36-.54,193.55-62.68,194.22,0,.67,62.69-47.62,138.1,0,232.07,47.62,93.97,278.95,218.63,258.55,288.97-20.42,70.34,42.21,155.16,42.21,155.16,0,0,92.11,257.76-19.85,203,49.9,4.54-163.32-131.57-244.99-210.96-81.66-79.39-106.61-165.59-120.22-190.54-13.61-24.95,104.35,43.1,156.52,54.44,52.17,11.34-136.1-99.81-217.19-161.06-81.08-61.25-76.57-149.43-76.57-149.43Z"/>
          <path class="cls-21" d="M513.51,1329.46c-27.13-79.96-32.4-108.87,0-100.36,32.4,8.51,81.74,15.31,156.6,3.4,74.85-11.91,164.2-45.66,152.7-56.86-11.5-11.19-105.06,26.23-178.22,31.34-73.16,5.1-137.8-1.7-141.21-20.42-3.39-18.71,44.23-52.74,103.78-59.55,44.15-5.05,107.94-15.71,132.43-22.96,54.08,7.37,90.93,12.58,95.53,36.57-3.74,8.73-6.54,17.98-2.08,24.78-8.18,27.86-32.89,58.08-51.02,63.25-23.82,6.81-71.59,30.62-141.29,34.03-69.68,3.4-66.24-2.57-77.34,16.66-11.12,19.24,16.33,157.11,52.1,173.91,35.49,16.65,115.46,51.02,116.71,51.55-39.44,9.04-83.9,28.88-123.5,66.72-27.15-65.74-76.05-185.66-95.2-242.07Z"/>
          <path class="cls-21" d="M521.68,1537.27c21.32,12.31,49.45,33.66,71.36,51.17-78.25,100.67-23.93,350.4,138.18,538.79,46.47,53.99,90.13,93.74,129.01,122.98-55.65-22.71-126.2-55.55-162.62-87.16-62.6-54.32-180.63-132.69-201.04-173.52-20.42-40.83-39.13-110.57-56.14-96.96-17.01,13.61-52.74,68.04-91.87,13.61-39.13-54.44-73.14-106.99-76.55-192.99-3.4-86.01-34.29-133.6-34.29-133.6,47.78-45.12,135.14-87.22,163.57-88.51,37.43-1.7,79.78,22.76,120.37,46.2Z"/>
          <path class="cls-21" d="M409.82,689.81c13.61-11.91,76.56,8.51,136.09-3.4,23.09-4.62,51.04-11.53,73.63-18.48-20.18,24.99-28.22,51.14-92.32,63.9-85.48,17.02-85.48,68.06-85.48,156.54s6.18,236.65,58.17,233.93c51.99-2.72,105.74-39.56,187.4-25.93-30.91,1.69-68.95,5.94-103.97,13.63-69.75,15.31-96.96,57.84-107.17,51.04-8.77-5.85-41.42-68.23-60.15-185-3.06-19.1-5.75-39.66-7.91-61.68-15.31-156.51-11.91-212.65,1.7-224.56Z"/>
          <path class="cls-21" d="M353.79,4759.36c102.17-.8,206.23.27,309.09,3.98,10.44-95.55,22.79-426.48-8.77-576.41-29.38-139.53-64.84-222.17-92.58-260.97-20.56-11.6-45.68-25.34-57.98-42.76-27.86-27.36-47.78-51.25-47.78-51.25,0,22.12,0,95.27-10.21,113.99-10.21,18.71,0,35.72,0,81.65,0,37.66-67.44,588.79-91.76,731.78Z"/>
          <path class="cls-21" d="M271.59,3227.7c34.03,18.53,105.49-42.36,142.92-63.27,37.44-20.91-13.61,191.05,10.21,235.29,23.83,44.23,27.23,166.74,151.43,299.46,124.21,132.71,403.25,142.92,425.61,159.93,22.34,17.01-114.24,74.87-195.47,105.49-44.36,16.72-91.02,15.7-136.07,6.14-22.51-1.33-49.89-6.34-70.56-15.2-11.72-5.02-24.01-12.4-36.26-21.1-.01,0-.02,0-.02-.01-3.78-1.66-7.42-3.48-10.92-5.47,27.74,38.8,72.27,118.42,101.65,257.95,31.56,149.93,19.21,480.87,8.77,576.41,69.37,2.5,138.2,6.2,205.54,11.33,187.03,14.25,406.24-19.86,626.05-76.96-13.76-114.68-34.69-429.16-41.88-503.98-9.25-96.2,23.75-314.61,36.23-391.91-87.36,26.15-190.53,18.82-217.7,10.82-38.56-11.34,122.49-108.88,93-122.49-29.49-13.61,192.81-56.71,277.88-179.2,84.76-122.03,69.92-416.05,69.81-418.27h0c-14.53-33.9-32.35-49.58-12.46-62.01,27.22-17.01,57.84-154.82,71.45-233.07,13.61-78.26,8.51-127.6,0-170.13-8.51-42.52-20.42-124.18-44.23-185.43-23.82-61.24-68.05-129.29-86.77-176.92-16.83-42.86-47.44-89.85-63.32-113.7,38.03,103.23,106.19,285.49,93.88,284.31-15.57-1.49-61.25-131.57-115.69-269.94-54.44-138.37-108.88-233.64-146.67-285.49-37.8-51.84-145.95-84.26-229.88-118.29-.81-.33-1.6-.65-2.4-.99-49.59-20.31-96.71-46.15-126.63-63.66h-.01c.14.09.25.2.35.33.05.06.09.12.14.2.05.07.08.15.11.23h.01c.95,2.22-.68,8.09-1.26,24.37-.74,20.88-67.65,165.01-147.05,165.01s-183.16-91.47-192.23-107.35c-9.07-15.88-23.26-45.37,1.69-138.37,18.39-68.55,79.9-95.19,110.99-104.47-6.74-2.74-11.18-4.41-11.18-4.41,0,0-124.76-31.76-172.4,77.13,0,0,5.04,318.42,127.49,397.59,122.47,79.17,237.51,121.09,322.87,120.54,85.36-.54,193.55-62.68,194.22,0,.67,62.69-47.62,138.1,0,232.07,47.62,93.97,278.95,218.63,258.55,288.97-20.42,70.34,42.21,155.16,42.21,155.16,0,0,92.11,257.76-19.85,203-25.5-2.31-78.84-30.7-137.32-72.12,114.49,93.91,189.34,158.22,213.16,195.66,23.82,37.43-136.11-26.77-136.11-26.77-64.66-26.76-258.62-153.59-323.28-160.4-64.66-6.81-173.55,64.65-224.59,193.97-51.04,129.31-30.11,427.76-30.11,427.76-.01-.02-.02-.05-.03-.07,11.97,35.73,22.25,64.16,22.33,76.61.19,31.73-27.58-15.92-65.01-94.18-37.43-78.25-27.22-200.74-23.82-289.2,3.4-88.47-37.49-272.09-44.8-276.31-7.32-4.22-16.45-9.49-55.58-14.6-38.51-5.02-75.38-46.32-102.49-62.21-.43-.25-.86-.5-1.28-.74-27.22-15.31-34.03-6.81-64.65,8.51-30.62,15.31-136.09,161.61-159.91,180.33-23.82,18.71,18.71-52.73,51.04-95.26,32.31-42.53,95.26-108.88,102.07-134.4,2.26-8.47-8.99-24.45-25.71-42.08-33.62-35.44-89.37-77.57-101.87-78.7-3.98-.36-17.19,4.24-35.7,11.81,43.63,21.99-130.16,58.76-186.28,85.68-56.12,26.91-105.09,120.1-98.29,175.96,6.81,55.85,102.09,192.55,136.11,211.1Z"/>
          <path class="cls-21" d="M395.41,53.85s.02-.01.03-.01c0,0-69.41,34.84-45.58,232.2,23.82,197.37,78.26,313.07,129.31,323.28,51.04,10.21,214.91,4.43,167.11,34.55-51.04-3.4-161.61,44.23-214.35,20.42-52.74-23.82-112.97-262.26-127.94-314.86-14.97-52.59-35.38-253.33,75.2-290.76,5.42-1.84,10.83-3.45,16.22-4.81Z"/>
          <path class="cls-21" d="M343.47,2642.79c15.72,9.1,37.86,20.21,56.48,29.23-35.58,14.04-97.84,35.8-152.17,40.32-81.67,6.81-170.15-6.81-146.33-13.61,23.83-6.81,160.07-20.74,125.92-20.74s-176.96-74.78-129.32-66.15c45.47,8.22,218.03,16.15,219.01,9.65,9.1,8.91,17.87,16.36,26.42,21.3Z"/>
          <path class="cls-21" d="M1016.58,1677.56s12.17,7.92,32.07,19.58c0,0-.03.07-.09.16-1.42,2.45-19.72,34.17-43.24,74.89-24.49,42.42-85.82,103.26-106.24,105.53-20.42,2.27-181.47-88.47-183.74-108.88s-13.61-146.46,45.37-180.98c38.34-22.43,69.21-33.79,86.14-39-.5-.27-1-.56-1.5-.83.52.27,1.05.53,1.6.81.22-.07.43-.14.65-.2,7.66,3.62,15.4,7.57,21.99,11.52,9.95,5.97,27.79,20.93,44.68,35.82.09.08.18.16.27.24,1.08.96,2.15,1.92,3.22,2.86.06.05.1.09.16.14,1.12,1,2.23,2,3.33,2.97,1.2,1.08,2.39,2.14,3.57,3.21,1.72,1.55,3.43,3.09,5.08,4.59.32.27.62.56.93.84.78.71,1.55,1.42,2.31,2.11,3.71,3.37,7.13,6.52,10.15,9.31,1.13,1.04,2.2,2.04,3.2,2.96,4.37,4.05,7.49,6.99,8.76,8.19.22.24.43.45.65.61.64.49,1.27.99,1.91,1.5.53.42,1.08.85,1.61,1.29,4.29,3.47,8.61,7.28,13.13,11.17,1.01.88,2.03,1.76,3.07,2.64.68.59,1.36,1.17,2.06,1.75.62.54,1.26,1.08,1.91,1.6,1.29,1.09,2.62,2.17,3.97,3.23.67.54,1.35,1.09,2.03,1.61.01.01.01.02.02.02,1.11.88,2.26,1.76,3.41,2.61.58.44,1.17.87,1.76,1.29,3.55,2.6,7.28,5.1,11.23,7.45.54.33,1.09.65,1.64.96.14.08.26.16.41.23.42.25.84.49,1.27.71.47.27.93.53,1.41.77.17.1.34.19.52.28.69.37,1.4.74,2.1,1.09.54.28,1.09.56,1.64.82.37.19.76.37,1.15.56.65.31,1.29.61,1.96.91.81.37,1.62.73,2.45,1.08Z"/>
          <path class="cls-21" d="M979.49,2317.97s-49.02,17.95-62.63,95.08c-13.61,77.13,16.22,129.67,28.52,141.01,12.31,11.34,53.51,31.38,83,6.43,29.48-24.94,60.16-56.68,60.19-56.69,0,.01.36,5.21-2.04,13.64-.12.43-.26.88-.4,1.34-.18.57-.37,1.16-.58,1.76-.1.31-.2.61-.32.92-.1.29-.22.6-.32.91-.12.32-.25.65-.37.98-.25.64-.51,1.29-.78,1.95-.42,1-.87,2.02-1.36,3.06-.33.7-.67,1.41-1.03,2.12-.18.36-.37.73-.56,1.09-.39.73-.78,1.47-1.2,2.21-.2.37-.42.76-.65,1.13-.22.37-.44.76-.67,1.15-.35.59-.71,1.19-1.09,1.79-.11.17-.23.35-.34.53-1.51,2.35-3.2,4.77-5.09,7.27-.01.01-.02.02-.02.03-2.22,2.89-4.73,5.86-7.55,8.9-.82.86-1.66,1.74-2.52,2.62-.06.05-.1.1-.15.16-2.13,2.14-4.42,4.32-6.9,6.51-.02.02-.03.05-.06.07-4.84,4.29-10.37,8.64-16.68,13.01h-.01c-.78.54-1.59,1.09-2.39,1.63-.37.25-.75.5-1.12.75-1.2.79-2.43,1.59-3.69,2.38l-.58.36c-.68.43-1.38.86-2.09,1.3l-2.87,1.72c-1.83,1.09-3.7,2.17-5.64,3.24l-2.94,1.62c-51.79,28.07-101.14-7.95-126.94-33.22-17.01-49.51-60.26-147.64-80.04-158.95-23.82-13.6-336.83-335.13-367.46-343.64-30.62-8.51-49.34-10.41-81.66-18.82-32.32-8.4-66.35-40.73-95.26-115.57-28.92-74.86-30.62-148.01-30.62-148.01,0,0-17.01,39.13,6.81,136.1,23.82,96.96,68.04,149.7,68.04,149.7l-35.65,16.98c-20.77-32.85-36.51-58.54-48.4-80.37-11.08-24.48-20.79-52.91-24.83-82.91-6.01-44.64-8.55-103.37-7.41-157.93,0-.35.01-.7.02-1.05,1.74-73.13,9.48-115.34,18.05-139.68,0-.01,0-.02.01-.03,5.51-10.82,14.82-22,26.49-33.01,0,0,30.88,47.59,34.29,133.6,3.4,86.01,37.42,138.55,76.55,192.99,39.13,54.43,74.86,0,91.87-13.61,17.01-13.61,35.73,56.13,56.14,96.96,20.4,40.83,138.44,119.2,201.04,173.52,36.42,31.61,106.97,64.46,162.62,87.16,48.54,36.52,89.6,56.68,119.25,67.76ZM225.4,1994.19c21.57,47.7,48.33,80.4,48.33,80.4l.07-.03c-20.77-32.85-36.51-58.54-48.4-80.37ZM193.19,1752.3c1.74-73.13,9.48-115.34,18.05-139.68-1.63,3.19-2.93,6.34-3.86,9.45-8.37,27.99-13.04,77.07-14.19,130.23Z"/>
          <path class="cls-21" d="M297.97,2610.44l-.33.57c-12.26-6.9-86.53-17.95-115.39-35.11-30.53-18.16-117.79-67.5-119.49-98.12-.67-12.1-3.89-26.68-4-45.41,7.62,3.87,23.4,22.3,46.08,45.41,38.49,39.23,148.17,106.65,193.13,132.67ZM420.04,2754.97c-49.41,20.19-136.52,61.47-186.27,85.68,56.12-26.91,229.91-63.68,186.28-85.68h-.01ZM151.72,2593.52c41.16,23.75,152.4,25.45,147.41,18.65-.27-.37-.77-.76-1.49-1.16l.33-.57c8.88,5.13,15.24,8.64,18.02,10.01.35.35.7.7,1.05,1.03-.99,6.5-173.54-1.43-219.01-9.65-47.64-8.63,95.16,66.15,129.32,66.15s-102.09,13.94-125.92,20.74c-23.82,6.81,64.66,20.42,146.33,13.61,54.34-4.53,116.6-26.28,152.17-40.32,9.56,4.63,18.18,8.7,24.53,11.67,2.52,1.18,8.18,2.57,10.85,5.04-13.49,11.82-75.34,64.07-119.71,69.12-50.4,5.74-118.46,19.35-147.38,31.26-28.92,11.91-93.57,32.32-64.65,32.32s176.92-37.43,154.82-23.82c-22.12,13.61-78.26,70.57-61.25,61.24,3.73-2.04,17.38-8.85,36.6-18.19-56.12,26.91-105.09,120.1-98.29,175.96,6.81,55.85,102.09,192.55,136.11,211.1,34.03,18.53,105.49-42.36,142.92-63.27,37.44-20.91-13.61,191.06,10.21,235.29,23.83,44.23,27.23,166.74,151.43,299.46,124.21,132.71,403.25,142.92,425.61,159.93,22.34,17.01-114.24,74.87-195.47,105.49-44.36,16.72-91.02,15.7-136.07,6.14,46.68,2.76,72.41-10.33-26.27-37.88-65.9-18.4-127.68-72.35-175.69-126.09-14.34-16.05-27.44-32.07-39.06-47.14-24.52-56.41-58.85-128.07-70.42-152.27-18.71-39.13-29.72-47.89-12.17-50.46,17.56-2.57,68.55-17.27,49.44-20.99-19.11-3.72-69.81-15.63-96.92-48.65-20.99-25.56-36.06-42.03-33.78-50.94.66-2.59,2.79-4.54,6.67-5.89,17.19-5.98,65-14.84,49.22-24.46-15.79-9.64-120.68-84.42-188.73-251.13-68.05-166.72-68.05-279-68.05-304.52s6.81-113.98,5.1-149.7-1.7-45.93-1.7-45.93c0,0,18.71,8.51,61.25,22.12,42.53,13.61,64.42.98,64.08,1.17-.35.2-70.89-6.27-99.81-31.79-28.92-25.52-23.82-18.71-32.32-49.33-3.65-13.15-6.35-27.23-7.59-38.49.54-7.42,1.2-14.77,1.92-21.84.64-.16,1.38.09,2.27.79,8.51,6.81,52.91,32.44,94.06,56.2Z"/>
          <path class="cls-21" d="M990.73,2321.94c25.45,8.45,39.92,9.45,39.92,9.45,0,0,0,27.22,20.42,102.08,7.04,25.81,17.58,45.14,28.38,59.4-13.02,16.33-45.4,54.99-62.87,58.56-22.22,4.54-69.51,6.34-77.62-27.45-8.11-33.8-23.99-97.31-8.11-126.8,11.55-21.44,43.37-57.27,59.89-75.23Z"/>
          <path class="cls-21" d="M945.7,2707.44c15.74,33.73,34.45,100.91,32.55,150.94,0,0-34.37,46.91-85.92,46.91s-76.49-46.91-76.49-46.91l-21.11-61.97c-1.89-79.39,91.81-97.67,133.36-124.23l5.17,9.99c2.33,4.71,10.79,21.77,12.43,25.27Z"/>
        </g>
        <g>
          <path class="cls-27" d="M1711.24,3488.3c-17.01,51.03-35.06,87.81-17.01,85.05,0,0-71.23,119.15-159.67,153.16-88.46,34.03-188.61,94.17-118.83,86.63,26.61-2.88,51.15-8.27,73.79-15.69-.23,1.4-.47,2.86-.71,4.37-87.36,26.15-190.53,18.82-217.7,10.82-38.56-11.34,122.49-108.88,93-122.49-29.49-13.61,192.81-56.71,277.88-179.2,84.76-122.03,69.92-416.05,69.81-418.27,5.35,12.49,10.26,27.46,12.66,45.66,8.9,67.55,3.8,298.92-13.21,349.96Z"/>
          <path class="cls-3" d="M1699.59,3577.57c-3.22-2.78-5.36-4.22-5.36-4.22,1.91-.28,3.7,1.25,5.36,4.22Z"/>
          <path class="cls-10" d="M1494.46,4697.71c64.95-16.87,129.95-35.75,194.19-55.98-3.2-54.31-8.73-266.27-18.31-314.17-22.68-113.42-45.37-299.43-39.86-372.02,3.69-48.4,2.45-142.75,1.23-200.29-.61-28.76-1.23-48.32-1.23-48.32-14.01,14.89-29.6,19.96-46.91,32.8l-33.26,24.19c-24.28,25.18-24.88,17.85-61.52,28.82-12.48,77.3-45.48,304.77-36.23,400.98,7.19,74.83,28.13,389.31,41.88,503.98Z"/>
          <path class="cls-7" d="M1529.21,295.13c23.82,85.05,35.73,299.4,37.43,370.86,1.7,71.45-1.7,188.83,0,229.66s25.52,227.96,13.61,272.2c-11.91,44.23-20.42,49.34-22.12,129.29-1.7,79.96,5.1,159.92-11.91,280.7-17.01,120.79-23.82,168.42-17.01,207.55,6.81,39.13,35.73,188.63,45.93,249.98,7.77,46.69-6.14,73.61-7.22,92.81-5.98-16.34-10.63-29.31-13.27-37.24-18.15-54.44-115.69-242.72-170.13-274.47-12.76-7.44-29.78-15.81-49.14-24.62,30.99-20.04-63.92-92.8,31.95-56.14,95.88,36.66-23.82-78.26-74.9-101.15-13.13-10.48-28.71-20.9-43.31-28.01-18.62-17.16-30.61-36.58-52.12-57.92-34.22-33.96,4.53-215.88,28.47-257.36,23.94-41.47,12.56-21.75,73.81-5.95,61.26,15.8,187.69,0,241.59-45.49,53.92-45.5-120.27-69.45-142.91-99.17-22.63-29.73-132.71-20.86-176.96-58.29-44.23-37.44-17.01-156.54,0-279.05,7.92-57.04,41.1-80.77,76.1-90.87,31.44,1.44,64.05,4.23,89.2,8.01,68.04,10.21,176.92,27.22,161.61,17.01-10.34-6.9-85.09-30.86-151.39-46.22-5.7-6.45-29.41-17.65-87.05-47.86-94.78-49.7-61.25-159.94-67.68-251.83-6.41-91.54,23.09-254.77,23.3-255.92h0c14.76-8.59,32.29-14.64,53.16-17.42,127.59-17,187.13,91.87,210.95,176.93Z"/>
          <path class="cls-11" d="M1396.53,691.23c-31.87-7.38-61.79-12.77-81.67-13.33-61.25-1.7-112.29,6.81-119.09-6.81-6.81-13.61-8.51-219.46-8.51-307.92,0-73.99,2.38-183.71,77.84-227.55-.2,1.15-29.7,164.38-23.3,255.92,6.43,91.88-27.11,202.12,67.68,251.83,57.64,30.21,81.34,41.41,87.05,47.86Z"/>
          <path class="cls-24" d="M1292.42,1634.55c51.08,22.89,170.79,137.8,74.9,101.15-95.87-36.66-.96,36.1-31.95,56.14-.01-.01-.01,0-.01,0-63.28-28.81-151.57-62.4-198.1-84.26-33.74-15.86-53.44-23.35-64.29-26.89,25.79-11.39,48.42-38.76,92.18-45,59.53-8.51,60.42-8,103.02,16.59,42.61,24.6,56.43,30.87,55.69,17.05-.33-6.26-13.64-20.57-31.44-34.77Z"/>
          <path class="cls-19" d="M955.58,3137.71c-51.04,129.31-30.11,427.76-30.11,427.76-.01-.02-.02-.05-.03-.07-18.51-55.31-41.05-128.1-35.87-185.99,8.51-95.26,13.61-178.62,0-253.48-13.61-74.85-30.62-148-30.62-148,0,0,141.2-5.1,137.79-136.1,0-2.46-.11-5.05-.32-7.72-.69-13.21-2.26-26.11-4.53-38.65-2.65-44.01-1.2-108.85,24.69-146.49,41.86-60.88,124.6-67.28,124.6-67.28,22.59,55.11,64.21,142.66,123.12,210.19,45.47,52.13,106.13,103.71,162.09,143.35t.02.02c114.49,93.91,189.34,158.22,213.16,195.66,23.82,37.43-136.11-26.77-136.11-26.77-64.66-26.76-258.62-153.59-323.28-160.4-64.66-6.81-173.55,64.65-224.59,193.97Z"/>
          <path class="cls-14" d="M1149.84,1281.82c-1.7-47.62-15.31-95.26,18.71-86.75,34.01,8.51,74.21,52.74,155.34,64.64,81.13,11.91,137.26-17,172.99-18.7,35.73-1.7,25.52-25.52-11.91-20.42s-66.35,34.01-134.39,17.01c-68.05-17.01-189.39-61.98-175.22-66.35,14.15-4.37,69.74-19.45,137.79-11.91,68.05,7.54,108.87,32.32,129.29,30.62,20.42-1.7-56.13-42.53-120.78-49.34-64.65-6.81-151.4,1.7-153.1-6.81-1.7-8.51,10.21-91.87,8.51-241.57-1.7-149.7,5.53-162.26,12.12-173.66,4.15-7.19,54.34-8.64,107.92-6.17-35,10.11-68.19,33.83-76.1,90.87-17.01,122.5-44.23,241.61,0,279.05,44.24,37.43,154.33,28.56,176.96,58.29,22.64,29.73,196.83,53.67,142.91,99.17-53.91,45.49-180.34,61.29-241.59,45.49-61.26-15.8-49.87-35.51-73.81,5.95-23.94,41.48-62.69,223.4-28.47,257.36,21.5,21.35,33.49,40.76,52.12,57.92-9.3-4.53-18.23-7.7-25.87-8.7-35.98-4.68-109.12,20.84-105.72,3.82,3.4-17.01,34.03-272.2,32.32-319.83Z"/>
          <path class="cls-20" d="M1016.58,2551.42c17.47-3.57,49.85-42.23,62.87-58.56l9.13,10.94s-30.71,31.75-60.19,56.69c-29.49,24.95-70.69,4.91-83-6.43-12.31-11.34-42.14-63.89-28.52-141.01,13.61-77.13,62.63-95.08,62.63-95.08l11.24,3.97c-16.51,17.97-48.34,53.79-59.89,75.23-15.88,29.49,0,93,8.11,126.8,8.11,33.79,55.41,31.98,77.62,27.45Z"/>
          <path class="cls-8" d="M1049.66,1698.14c.95,2.21-.68,8.08-1.26,24.36-.74,20.88-67.65,165.01-147.05,165.01s-183.16-91.47-192.23-107.35c-9.07-15.88-23.26-45.37,1.69-138.37,18.39-68.55,79.9-95.19,110.99-104.47,0,0,.01,0,.03.01.65.26,10.88,4.4,23.52,10.67.5.27,1,.56,1.5.83-16.93,5.22-47.81,16.57-86.14,39-58.98,34.52-47.64,160.57-45.37,180.98s163.32,111.15,183.74,108.88c20.42-2.27,81.75-63.11,106.24-105.53,23.51-40.72,41.82-72.44,43.24-74.89l.45.06.64.78h.01Z"/>
          <path class="cls-5" d="M867.15,2911.86c24.4-1.3,35.16,17.52,71.81-6.58,18.91-12.43,30.77-23.16,37.84-30.63-2.74,18.17-9.21,32.7-20.88,40.33-16.53,10.81-39.92,23.74-68.27,31.98-20.5,6.52-37.33,8.94-67.78,8h-.01c-33.05-1.89-69.37-12.64-107.22-38.28-105.48-71.45-163.32-115.68-195.65-166.72-17.36-27.44-29.98-48.04-37.93-61.25-6.84-11.36-10.23-17.23-10.23-17.23,0,0-17.24-3.41-39.83-11.67-13.42-4.91-28.73-11.51-43.44-20.13-9.34-5.82-18.09-9.72-30.69-22.53-45.53-41.7-175.12-187.66-179.82-186.11-23.81-61.68-28.31-125.06-25.96-150.89,3.4-37.43,57.84,13.61,122.5,102.09,64.66,88.48,91.88,112.3,187.16,160.11,95.27,47.82,68.05-24,116.84-54.62,48.79-30.62,5.66,51.04.54,88.48-5.1,37.43,25.53,78.26,96.98,146.32,71.47,68.06,121.61,73.86,121.61,73.86,2.27,95.27,48.01,116.77,72.41,115.46Z"/>
          <path class="cls-22" d="M938.95,2905.29c-36.65,24.1-47.41,5.27-71.81,6.58-24.4,1.3-70.14-20.19-72.41-115.46l21.11,61.97s24.93,46.91,76.49,46.91,85.92-46.91,85.92-46.91l-1.46,16.28c-7.07,7.47-18.93,18.2-37.84,30.63Z"/>
          <path class="cls-6" d="M841.09,1171.73c11.81,5.17,66.31,299.69,97.86,416.11-29.69-33.48-84.67-69.41-101.11-79.88-13.61-8.67-55.56-14.62-105.63-3.15-1.25-.53-81.22-34.9-116.71-51.55-35.77-16.8-63.22-154.67-52.1-173.91,11.1-19.24,7.66-13.26,77.34-16.66,69.7-3.4,117.47-27.22,141.29-34.03,18.12-5.17,42.84-35.4,51.02-63.25,1.61,2.47,4.21,4.63,8.05,6.32Z"/>
          <path class="cls-2" d="M809.6,2448.85c7.1,15.62,80.54,149.71,118.5,223.32-41.6,26.58-135.25,44.83-133.36,124.23,0,0-50.14-5.8-121.61-73.86-71.45-68.06-102.09-108.89-96.98-146.32,5.12-37.44,48.25-119.1-.54-88.48-48.79,30.62-21.57,102.44-116.84,54.62-95.28-47.82-122.5-71.64-187.16-160.11-64.66-88.48-119.1-139.52-122.5-102.09-2.35,25.84,2.15,89.22,25.96,150.89-.17.06-.18.32,0,.78,5.1,13.61,13.04,68.19,56.71,103,31.69,25.26,59.18,60.85,84.24,85.62-2.78-1.37-9.14-4.89-18.02-10.01-44.96-26.02-154.64-93.43-193.13-132.67-22.68-23.11-38.46-41.55-46.08-45.41-.18-28.66,6.9-67.06,41.43-121.3,57.13-89.7,107.18-156.51,131-171.82,23.82-15.31,67.94-40.79,67.94-40.79,0,0,47.74-34.07,93.67-18.76,45.93,15.31,142.9,95.26,175.22,125.88,32.32,30.62,233.07,224.56,241.57,243.27Z"/>
          <path class="cls-16" d="M792.59,865.03c52.74,170.12,47.64,263.69,42.53,275.6-4.6-23.99-41.45-29.19-95.53-36.57,8.53-2.53,12.28-4.65,8.77-5.97-6.77-2.54-30.41-3.39-61.03-1.72h-.01c-81.66-13.63-135.41,23.21-187.4,25.93-51.99,2.72-58.17-145.45-58.17-233.93s0-139.52,85.48-156.54c64.1-12.76,72.15-38.91,92.32-63.9,35.67-10.97,57.99-21.97,26.74-24.06,47.79-30.11-116.07-24.34-167.11-34.55-51.05-10.21-105.49-125.91-129.31-323.28-23.83-197.36,45.58-232.2,45.58-232.2,104.41-26.63,200.7,33.86,250.84,200.46,52.74,175.22,88.46,318.12,81.66,347.04-6.81,28.92-42.88,43.21-17.89,48.11,24.99,4.91,29.78,45.46,82.52,215.58Z"/>
          <path class="cls-1" d="M1061.28,2349.81s26.09,4.25,51.04,0c24.95-4.25,24.42-29.82,25.47-60.62,1.07-30.8-14.13,8.17-64.04,24.04-49.9,15.88-165.59-70.32-240.45-111.15-12.86-7.02-24.52-15.84-35.38-26.21-52.25-49.94-85.6-135.55-143.83-226.37-70.32-109.67-63.51-230.58-15.88-339.46,0,0,5.04,318.42,127.49,397.59,122.47,79.17,237.51,121.09,322.87,120.54,85.36-.54,193.55-62.68,194.22,0,.67,62.69-47.62,138.1,0,232.07,47.62,93.97,278.95,218.63,258.55,288.97-20.42,70.34,42.21,155.16,42.21,155.16,0,0,92.11,257.76-19.85,203,49.9,4.54-163.32-131.57-244.99-210.96-81.66-79.39-106.61-165.59-120.22-190.54-13.61-24.95,104.35,43.1,156.52,54.44,52.17,11.34-136.1-99.81-217.19-161.06-81.08-61.25-76.57-149.43-76.57-149.43Z"/>
          <path class="cls-26" d="M513.51,1329.46c-27.13-79.96-32.4-108.87,0-100.36,32.4,8.51,81.74,15.31,156.6,3.4,74.85-11.91,164.2-45.66,152.7-56.86-11.5-11.19-105.06,26.23-178.22,31.34-73.16,5.1-137.8-1.7-141.21-20.42-3.39-18.71,44.23-52.74,103.78-59.55,44.15-5.05,107.94-15.71,132.43-22.96,54.08,7.37,90.93,12.58,95.53,36.57-3.74,8.73-6.54,17.98-2.08,24.78-8.18,27.86-32.89,58.08-51.02,63.25-23.82,6.81-71.59,30.62-141.29,34.03-69.68,3.4-66.24-2.57-77.34,16.66-11.12,19.24,16.33,157.11,52.1,173.91,35.49,16.65,115.46,51.02,116.71,51.55-39.44,9.04-83.9,28.88-123.5,66.72-27.15-65.74-76.05-185.66-95.2-242.07Z"/>
          <path class="cls-18" d="M521.68,1537.27c21.32,12.31,49.45,33.66,71.36,51.17-78.25,100.67-23.93,350.4,138.18,538.79,46.47,53.99,90.13,93.74,129.01,122.98-55.65-22.71-126.2-55.55-162.62-87.16-62.6-54.32-180.63-132.69-201.04-173.52-20.42-40.83-39.13-110.57-56.14-96.96-17.01,13.61-52.74,68.04-91.87,13.61-39.13-54.44-73.14-106.99-76.55-192.99-3.4-86.01-34.29-133.6-34.29-133.6,47.78-45.12,135.14-87.22,163.57-88.51,37.43-1.7,79.78,22.76,120.37,46.2Z"/>
          <path class="cls-29" d="M409.82,689.81c13.61-11.91,76.56,8.51,136.09-3.4,23.09-4.62,51.04-11.53,73.63-18.48-20.18,24.99-28.22,51.14-92.32,63.9-85.48,17.02-85.48,68.06-85.48,156.54s6.18,236.65,58.17,233.93c51.99-2.72,105.74-39.56,187.4-25.93-30.91,1.69-68.95,5.94-103.97,13.63-69.75,15.31-96.96,57.84-107.17,51.04-8.77-5.85-41.42-68.23-60.15-185-3.06-19.1-5.75-39.66-7.91-61.68-15.31-156.51-11.91-212.65,1.7-224.56Z"/>
          <path class="cls-23" d="M353.79,4759.36c102.17-.8,206.23.27,309.09,3.98,10.44-95.55,22.79-426.48-8.77-576.41-29.38-139.53-64.84-222.17-92.58-260.97-20.56-11.6-45.68-25.34-57.98-42.76-27.86-27.36-47.78-51.25-47.78-51.25,0,22.12,0,95.27-10.21,113.99-10.21,18.71,0,35.72,0,81.65,0,37.66-67.44,588.79-91.76,731.78Z"/>
          <path class="cls-15" d="M271.59,3227.7c34.03,18.53,105.49-42.36,142.92-63.27,37.44-20.91-13.61,191.05,10.21,235.29,23.83,44.23,27.23,166.74,151.43,299.46,124.21,132.71,403.25,142.92,425.61,159.93,22.34,17.01-114.24,74.87-195.47,105.49-44.36,16.72-91.02,15.7-136.07,6.14-22.51-1.33-49.89-6.34-70.56-15.2-11.72-5.02-24.01-12.4-36.26-21.1-.01,0-.02,0-.02-.01-3.78-1.66-7.42-3.48-10.92-5.47,27.74,38.8,72.27,118.42,101.65,257.95,31.56,149.93,19.21,480.87,8.77,576.41,69.37,2.5,138.2,6.2,205.54,11.33,187.03,14.25,406.24-19.86,626.05-76.96-13.76-114.68-34.69-429.16-41.88-503.98-9.25-96.2,23.75-314.61,36.23-391.91-87.36,26.15-190.53,18.82-217.7,10.82-38.56-11.34,122.49-108.88,93-122.49-29.49-13.61,192.81-56.71,277.88-179.2,84.76-122.03,69.92-416.05,69.81-418.27h0c-14.53-33.9-32.35-49.58-12.46-62.01,27.22-17.01,57.84-154.82,71.45-233.07,13.61-78.26,8.51-127.6,0-170.13-8.51-42.52-20.42-124.18-44.23-185.43-23.82-61.24-68.05-129.29-86.77-176.92-16.83-42.86-47.44-89.85-63.32-113.7,38.03,103.23,106.19,285.49,93.88,284.31-15.57-1.49-61.25-131.57-115.69-269.94-54.44-138.37-108.88-233.64-146.67-285.49-37.8-51.84-145.95-84.26-229.88-118.29-.81-.33-1.6-.65-2.4-.99-49.59-20.31-96.71-46.15-126.63-63.66h-.01c.14.09.25.2.35.33.05.06.09.12.14.2.05.07.08.15.11.23h.01c.95,2.22-.68,8.09-1.26,24.37-.74,20.88-67.65,165.01-147.05,165.01s-183.16-91.47-192.23-107.35c-9.07-15.88-23.26-45.37,1.69-138.37,18.39-68.55,79.9-95.19,110.99-104.47-6.74-2.74-11.18-4.41-11.18-4.41,0,0-124.76-31.76-172.4,77.13,0,0,5.04,318.42,127.49,397.59,122.47,79.17,237.51,121.09,322.87,120.54,85.36-.54,193.55-62.68,194.22,0,.67,62.69-47.62,138.1,0,232.07,47.62,93.97,278.95,218.63,258.55,288.97-20.42,70.34,42.21,155.16,42.21,155.16,0,0,92.11,257.76-19.85,203-25.5-2.31-78.84-30.7-137.32-72.12,114.49,93.91,189.34,158.22,213.16,195.66,23.82,37.43-136.11-26.77-136.11-26.77-64.66-26.76-258.62-153.59-323.28-160.4-64.66-6.81-173.55,64.65-224.59,193.97-51.04,129.31-30.11,427.76-30.11,427.76-.01-.02-.02-.05-.03-.07,11.97,35.73,22.25,64.16,22.33,76.61.19,31.73-27.58-15.92-65.01-94.18-37.43-78.25-27.22-200.74-23.82-289.2,3.4-88.47-37.49-272.09-44.8-276.31-7.32-4.22-16.45-9.49-55.58-14.6-38.51-5.02-75.38-46.32-102.49-62.21-.43-.25-.86-.5-1.28-.74-27.22-15.31-34.03-6.81-64.65,8.51-30.62,15.31-136.09,161.61-159.91,180.33-23.82,18.71,18.71-52.73,51.04-95.26,32.31-42.53,95.26-108.88,102.07-134.4,2.26-8.47-8.99-24.45-25.71-42.08-33.62-35.44-89.37-77.57-101.87-78.7-3.98-.36-17.19,4.24-35.7,11.81,43.63,21.99-130.16,58.76-186.28,85.68-56.12,26.91-105.09,120.1-98.29,175.96,6.81,55.85,102.09,192.55,136.11,211.1Z"/>
          <path class="cls-17" d="M395.41,53.85s.02-.01.03-.01c0,0-69.41,34.84-45.58,232.2,23.82,197.37,78.26,313.07,129.31,323.28,51.04,10.21,214.91,4.43,167.11,34.55-51.04-3.4-161.61,44.23-214.35,20.42-52.74-23.82-112.97-262.26-127.94-314.86-14.97-52.59-35.38-253.33,75.2-290.76,5.42-1.84,10.83-3.45,16.22-4.81Z"/>
          <path class="cls-9" d="M343.47,2642.79c15.72,9.1,37.86,20.21,56.48,29.23-35.58,14.04-97.84,35.8-152.17,40.32-81.67,6.81-170.15-6.81-146.33-13.61,23.83-6.81,160.07-20.74,125.92-20.74s-176.96-74.78-129.32-66.15c45.47,8.22,218.03,16.15,219.01,9.65,9.1,8.91,17.87,16.36,26.42,21.3Z"/>
          <path class="cls-25" d="M1016.58,1677.56s12.17,7.92,32.07,19.58c0,0-.03.07-.09.16-1.42,2.45-19.72,34.17-43.24,74.89-24.49,42.42-85.82,103.26-106.24,105.53-20.42,2.27-181.47-88.47-183.74-108.88s-13.61-146.46,45.37-180.98c38.34-22.43,69.21-33.79,86.14-39-.5-.27-1-.56-1.5-.83.52.27,1.05.53,1.6.81.22-.07.43-.14.65-.2,7.66,3.62,15.4,7.57,21.99,11.52,9.95,5.97,27.79,20.93,44.68,35.82.09.08.18.16.27.24,1.08.96,2.15,1.92,3.22,2.86.06.05.1.09.16.14,1.12,1,2.23,2,3.33,2.97,1.2,1.08,2.39,2.14,3.57,3.21,1.72,1.55,3.43,3.09,5.08,4.59.32.27.62.56.93.84.78.71,1.55,1.42,2.31,2.11,3.71,3.37,7.13,6.52,10.15,9.31,1.13,1.04,2.2,2.04,3.2,2.96,4.37,4.05,7.49,6.99,8.76,8.19.22.24.43.45.65.61.64.49,1.27.99,1.91,1.5.53.42,1.08.85,1.61,1.29,4.29,3.47,8.61,7.28,13.13,11.17,1.01.88,2.03,1.76,3.07,2.64.68.59,1.36,1.17,2.06,1.75.62.54,1.26,1.08,1.91,1.6,1.29,1.09,2.62,2.17,3.97,3.23.67.54,1.35,1.09,2.03,1.61.01.01.01.02.02.02,1.11.88,2.26,1.76,3.41,2.61.58.44,1.17.87,1.76,1.29,3.55,2.6,7.28,5.1,11.23,7.45.54.33,1.09.65,1.64.96.14.08.26.16.41.23.42.25.84.49,1.27.71.47.27.93.53,1.41.77.17.1.34.19.52.28.69.37,1.4.74,2.1,1.09.54.28,1.09.56,1.64.82.37.19.76.37,1.15.56.65.31,1.29.61,1.96.91.81.37,1.62.73,2.45,1.08Z"/>
          <path class="cls-12" d="M979.49,2317.97s-49.02,17.95-62.63,95.08c-13.61,77.13,16.22,129.67,28.52,141.01,12.31,11.34,53.51,31.38,83,6.43,29.48-24.94,60.16-56.68,60.19-56.69,0,.01.36,5.21-2.04,13.64-.12.43-.26.88-.4,1.34-.18.57-.37,1.16-.58,1.76-.1.31-.2.61-.32.92-.1.29-.22.6-.32.91-.12.32-.25.65-.37.98-.25.64-.51,1.29-.78,1.95-.42,1-.87,2.02-1.36,3.06-.33.7-.67,1.41-1.03,2.12-.18.36-.37.73-.56,1.09-.39.73-.78,1.47-1.2,2.21-.2.37-.42.76-.65,1.13-.22.37-.44.76-.67,1.15-.35.59-.71,1.19-1.09,1.79-.11.17-.23.35-.34.53-1.51,2.35-3.2,4.77-5.09,7.27-.01.01-.02.02-.02.03-2.22,2.89-4.73,5.86-7.55,8.9-.82.86-1.66,1.74-2.52,2.62-.06.05-.1.1-.15.16-2.13,2.14-4.42,4.32-6.9,6.51-.02.02-.03.05-.06.07-4.84,4.29-10.37,8.64-16.68,13.01h-.01c-.78.54-1.59,1.09-2.39,1.63-.37.25-.75.5-1.12.75-1.2.79-2.43,1.59-3.69,2.38l-.58.36c-.68.43-1.38.86-2.09,1.3l-2.87,1.72c-1.83,1.09-3.7,2.17-5.64,3.24l-2.94,1.62c-51.79,28.07-101.14-7.95-126.94-33.22-17.01-49.51-60.26-147.64-80.04-158.95-23.82-13.6-336.83-335.13-367.46-343.64-30.62-8.51-49.34-10.41-81.66-18.82-32.32-8.4-66.35-40.73-95.26-115.57-28.92-74.86-30.62-148.01-30.62-148.01,0,0-17.01,39.13,6.81,136.1,23.82,96.96,68.04,149.7,68.04,149.7l-35.65,16.98c-20.77-32.85-36.51-58.54-48.4-80.37-11.08-24.48-20.79-52.91-24.83-82.91-6.01-44.64-8.55-103.37-7.41-157.93,0-.35.01-.7.02-1.05,1.74-73.13,9.48-115.34,18.05-139.68,0-.01,0-.02.01-.03,5.51-10.82,14.82-22,26.49-33.01,0,0,30.88,47.59,34.29,133.6,3.4,86.01,37.42,138.55,76.55,192.99,39.13,54.43,74.86,0,91.87-13.61,17.01-13.61,35.73,56.13,56.14,96.96,20.4,40.83,138.44,119.2,201.04,173.52,36.42,31.61,106.97,64.46,162.62,87.16,48.54,36.52,89.6,56.68,119.25,67.76ZM225.4,1994.19c21.57,47.7,48.33,80.4,48.33,80.4l.07-.03c-20.77-32.85-36.51-58.54-48.4-80.37ZM193.19,1752.3c1.74-73.13,9.48-115.34,18.05-139.68-1.63,3.19-2.93,6.34-3.86,9.45-8.37,27.99-13.04,77.07-14.19,130.23Z"/>
          <path class="cls-28" d="M297.97,2610.44l-.33.57c-12.26-6.9-86.53-17.95-115.39-35.11-30.53-18.16-117.79-67.5-119.49-98.12-.67-12.1-3.89-26.68-4-45.41,7.62,3.87,23.4,22.3,46.08,45.41,38.49,39.23,148.17,106.65,193.13,132.67ZM420.04,2754.97c-49.41,20.19-136.52,61.47-186.27,85.68,56.12-26.91,229.91-63.68,186.28-85.68h-.01ZM151.72,2593.52c41.16,23.75,152.4,25.45,147.41,18.65-.27-.37-.77-.76-1.49-1.16l.33-.57c8.88,5.13,15.24,8.64,18.02,10.01.35.35.7.7,1.05,1.03-.99,6.5-173.54-1.43-219.01-9.65-47.64-8.63,95.16,66.15,129.32,66.15s-102.09,13.94-125.92,20.74c-23.82,6.81,64.66,20.42,146.33,13.61,54.34-4.53,116.6-26.28,152.17-40.32,9.56,4.63,18.18,8.7,24.53,11.67,2.52,1.18,8.18,2.57,10.85,5.04-13.49,11.82-75.34,64.07-119.71,69.12-50.4,5.74-118.46,19.35-147.38,31.26-28.92,11.91-93.57,32.32-64.65,32.32s176.92-37.43,154.82-23.82c-22.12,13.61-78.26,70.57-61.25,61.24,3.73-2.04,17.38-8.85,36.6-18.19-56.12,26.91-105.09,120.1-98.29,175.96,6.81,55.85,102.09,192.55,136.11,211.1,34.03,18.53,105.49-42.36,142.92-63.27,37.44-20.91-13.61,191.06,10.21,235.29,23.83,44.23,27.23,166.74,151.43,299.46,124.21,132.71,403.25,142.92,425.61,159.93,22.34,17.01-114.24,74.87-195.47,105.49-44.36,16.72-91.02,15.7-136.07,6.14,46.68,2.76,72.41-10.33-26.27-37.88-65.9-18.4-127.68-72.35-175.69-126.09-14.34-16.05-27.44-32.07-39.06-47.14-24.52-56.41-58.85-128.07-70.42-152.27-18.71-39.13-29.72-47.89-12.17-50.46,17.56-2.57,68.55-17.27,49.44-20.99-19.11-3.72-69.81-15.63-96.92-48.65-20.99-25.56-36.06-42.03-33.78-50.94.66-2.59,2.79-4.54,6.67-5.89,17.19-5.98,65-14.84,49.22-24.46-15.79-9.64-120.68-84.42-188.73-251.13-68.05-166.72-68.05-279-68.05-304.52s6.81-113.98,5.1-149.7-1.7-45.93-1.7-45.93c0,0,18.71,8.51,61.25,22.12,42.53,13.61,64.42.98,64.08,1.17-.35.2-70.89-6.27-99.81-31.79-28.92-25.52-23.82-18.71-32.32-49.33-3.65-13.15-6.35-27.23-7.59-38.49.54-7.42,1.2-14.77,1.92-21.84.64-.16,1.38.09,2.27.79,8.51,6.81,52.91,32.44,94.06,56.2Z"/>
          <path class="cls-13" d="M990.73,2321.94c25.45,8.45,39.92,9.45,39.92,9.45,0,0,0,27.22,20.42,102.08,7.04,25.81,17.58,45.14,28.38,59.4-13.02,16.33-45.4,54.99-62.87,58.56-22.22,4.54-69.51,6.34-77.62-27.45-8.11-33.8-23.99-97.31-8.11-126.8,11.55-21.44,43.37-57.27,59.89-75.23Z"/>
          <path class="cls-4" d="M945.7,2707.44c15.74,33.73,34.45,100.91,32.55,150.94,0,0-34.37,46.91-85.92,46.91s-76.49-46.91-76.49-46.91l-21.11-61.97c-1.89-79.39,91.81-97.67,133.36-124.23l5.17,9.99c2.33,4.71,10.79,21.77,12.43,25.27Z"/>
        </g>
      </g>
      <path id="Black" d="M744.29,1602.64s-.02.02-.02.02h0c-39.23,46.68-30.08,148.05-28.06,166.17,2.24,20.17,159.39,108.92,182.92,108.92.29,0,.57-.01.82-.04,20.42-2.27,143.16-149.07,143.16-149.07-7.49,12.97-17.23,29.84-28.08,48.64-11.91,20.64-32.96,46.79-56.3,69.96-32.06,31.83-49.05,39.65-57.66,40.61-.62.07-1.28.1-1.95.1-2.96,0-10.82,0-42.59-15.18-18.23-8.71-40.24-20.47-61.98-33.1-22.66-13.17-43.3-26.33-58.11-37.05-24.14-17.47-29.6-25.7-30.38-32.67-1.17-10.54-4.65-48.01-.28-87.45,5.81-52.38,22.84-87.2,50.64-103.47,15.26-8.93,29.37-16.16,42.07-22.01,2.93-1.15-17.01,15.38-33.54,28.86-1.12.64-2.24,1.29-3.38,1.96-6.61,3.87-12.34,8.9-17.29,14.79ZM3.21,2629.18c-7.22-13.61,0-95.26,0-95.26v-40.83c0-18.71,0-102.58,28.67-152.24,28.68-49.67,39.79-68.91,63.61-101.24,23.82-32.32,45.93-66.35,52.6-90.16,6.67-23.82,79.34-63.49,79.34-63.49,0,0-28.16-79.02-55.38-143.67-27.22-64.64-23.82-129.29-23.82-260.29s74.86-202.44,188.83-231.36c113.2-28.72,169.33,39.87,170.51,41.22-.77-1.86-37.87-103.07-49.71-140.28-3.46-10.87-7.05-24.88-11.34-43.35-.01-.01-.01-.03-.01-.05-6.56-28.24-14.71-66.87-26.39-120.5-1.74-7.96-3.55-16.25-5.44-24.9-5.75-26.18-12.28-55.55-19.76-88.51-37.43-165.01-38.77-403.18-38.77-403.18,0,0-24.18-13.61-97.33-313.03C185.66,58.66,406.41,4.62,406.41,4.62c148-28.92,225.3,81.26,283.7,236.59,58.41,155.32,81.09,312.5,79.39,339.71-1.7,27.22,7.57,44.23,58.6,214.36,51.04,170.12,70.69,313.01,70.69,369.16s70.7,430.8,117.77,463.13c47.06,32.32,34.99,8.11,52-124.59,17.01-132.69,33.45-251.78,33.45-290.9,0-7.92,1.74-27.42,4.51-54.04,1.66-15.77,3.67-34.04,5.92-53.86,12.71-112.31,14.51-274.71,15.66-317.39,1.7-62.95-1.7-314.73-1.7-454.22s69.34-266.69,254.78-263.29c185.43,3.4,218.5,399.38,228.7,475.94,10.21,76.55,8.51,437.21,17.01,496.74,8.51,59.55-18.71,182.04-17.01,229.66,1.7,47.64-23.82,336.84-35.73,442.31-11.91,105.48,20.98,144.61,49.9,235.57,28.92,90.97,15.31,138.7,30.62,198.25,15.3,59.53,102.07,199.04,166.72,413.39,64.65,214.35-11.71,352.14-15.11,501.86-3.4,149.7-25.72,382.77-27.42,399.78-.71,7.12-10.59,64.47-42.19,130.92,0,0-.01,0-.01.01-12.36,26-22.02,59.43-41.78,85.77,0,0,10.2,280.61,26.37,457.55,9.91,108.48,65.92,392.42,81.35,487.49-17.77,5.84-96.07,11.58-113.98,17.22-3.2-54.31-8.73-266.27-18.31-314.17-22.68-113.42-45.37-299.43-39.86-372.02,3.69-48.4,2.45-142.75,1.23-200.29-.61-28.76-1.23-48.32-1.23-48.32-14.01,14.89-29.6,29.02-46.91,41.86h-.01c-26.96,20.01-58.1,36.87-94.05,48.65-22.64,7.42-47.18,12.81-73.79,15.69-69.78,7.54,30.37-52.6,118.83-86.63,88.44-34.01,159.67-153.16,159.67-153.16,0,0,2.14,1.44,5.36,4.22-1.67-2.97-3.46-4.5-5.36-4.22-18.05,2.76,0-34.03,17.01-85.05,17.01-51.04,22.12-282.4,13.21-349.96-2.39-18.2-7.3-33.18-12.66-45.66h0c-14.53-33.9-32.35-49.58-12.46-62.01,27.22-17.01,57.84-154.82,71.45-233.07,13.61-78.26,8.51-127.6,0-170.13-8.51-42.52-20.42-124.18-44.23-185.43-23.82-61.24-68.05-129.29-86.77-176.92-16.83-42.86-47.44-89.85-63.32-113.7,38.03,103.23,106.19,285.49,93.88,284.31-15.57-1.49-61.25-131.57-115.69-269.94-54.44-138.37-108.88-233.64-146.67-285.49-37.8-51.84-145.95-84.26-229.88-118.29-.81-.33-1.6-.65-2.4-.99-49.59-20.31-96.71-46.15-126.63-63.66h-.01c.14.09.25.2.35.33.05.07.09.14.14.2.05.07.08.15.11.23l-.64-.78-.45-.06c.06-.09.09-.16.09-.16-19.91-11.66-32.07-19.58-32.07-19.58-.83-.35-1.64-.7-2.45-1.08-.67-.3-1.32-.6-1.96-.91-.39-.18-.77-.36-1.15-.56-.56-.26-1.1-.53-1.64-.82-.71-.35-1.41-.71-2.1-1.09-.18-.09-.35-.18-.52-.28-.48-.25-.94-.5-1.41-.77-.43-.23-.85-.46-1.27-.71-.15-.07-.27-.15-.41-.23-.56-.32-1.1-.64-1.64-.96-3.95-2.35-7.68-4.85-11.23-7.45-.59-.43-1.18-.86-1.76-1.29-1.16-.85-2.3-1.72-3.41-2.61-.01,0-.01-.01-.02-.02-.68-.53-1.36-1.07-2.03-1.61-1.35-1.07-2.68-2.14-3.97-3.23-.64-.53-1.27-1.07-1.91-1.6-.7-.58-1.38-1.16-2.06-1.75-1.04-.88-2.06-1.76-3.07-2.64-4.53-3.89-8.85-7.7-13.13-11.17-.54-.44-1.08-.87-1.61-1.29-.64-.51-1.27-1.01-1.91-1.5-.22-.16-.43-.37-.65-.61-1.27-1.2-4.39-4.14-8.76-8.19-1-.93-2.06-1.92-3.2-2.96-3.02-2.79-6.44-5.94-10.15-9.31-.76-.7-1.53-1.41-2.31-2.11-.31-.28-.61-.57-.93-.84-1.66-1.51-3.35-3.04-5.08-4.59-1.18-1.07-2.37-2.13-3.57-3.21-1.1-.99-2.21-1.97-3.33-2.97-.06-.05-.1-.09-.16-.14-1.07-.95-2.14-1.91-3.22-2.86-.09-.08-.18-.16-.27-.24-16.89-14.89-34.73-29.85-44.68-35.82-6.59-3.96-14.34-7.91-21.99-11.52-.22.07-.43.14-.65.2-.54-.27-1.08-.53-1.6-.81-12.65-6.27-22.88-10.41-23.52-10.67-.02-.01-.03-.01-.03-.01-6.74-2.74-11.18-4.41-11.18-4.41,0,0-124.76-31.76-172.4,77.13-47.64,108.88-54.44,229.8,15.88,339.46,58.23,90.83,91.57,176.44,143.83,226.37,10.85,10.37,22.51,19.19,35.38,26.21,74.86,40.83,190.54,127.03,240.45,111.15,49.9-15.88,65.1-54.85,64.04-24.04-1.05,30.8-.52,56.37-25.47,60.62-24.95,4.25-51.04,0-51.04,0,0,0-4.51,88.18,76.57,149.43,81.08,61.25,269.36,172.4,217.19,161.06-52.17-11.34-170.13-79.39-156.52-54.44,13.61,24.95,38.56,111.15,120.22,190.54,81.66,79.39,294.89,215.5,244.99,210.96-25.5-2.31-78.84-30.7-137.32-72.12t-.02-.02c-55.96-39.64-116.62-91.22-162.09-143.35-58.91-67.53-100.52-155.08-123.12-210.19,0,0-82.74,6.4-124.6,67.28-25.89,37.64-27.35,102.49-24.69,146.49,2.27,12.54,3.83,25.44,4.53,38.65.2,2.68.32,5.26.32,7.72,3.4,131-137.79,136.1-137.79,136.1,0,0,17.01,73.16,30.62,148,13.61,74.86,8.51,158.22,0,253.48-5.17,57.89,17.36,130.67,35.87,185.99,11.97,35.73,22.25,64.16,22.33,76.61.19,31.73-27.58-15.92-65.01-94.18-37.43-78.25-27.22-200.74-23.82-289.2,3.4-88.47-37.49-272.09-44.8-276.31-7.32-4.22-16.45-9.49-55.58-14.6-38.51-5.02-75.38-46.32-102.49-62.21-.43-.25-.86-.5-1.28-.74-27.22-15.31-34.03-6.81-64.65,8.51-30.62,15.31-136.09,161.61-159.91,180.33-23.82,18.71,18.71-52.73,51.04-95.26,32.31-42.53,95.26-108.88,102.07-134.4,2.26-8.47-8.99-24.45-25.71-42.08-33.62-35.44-89.37-77.57-101.87-78.7-3.98-.36-17.19,4.24-35.7,11.81h-.01c-49.41,20.19-136.52,61.47-186.27,85.68-19.22,9.35-32.87,16.15-36.6,18.19-17.01,9.33,39.13-47.62,61.25-61.24,22.11-13.61-125.9,23.82-154.82,23.82s35.73-20.42,64.65-32.32c28.92-11.91,96.97-25.52,147.38-31.26,44.37-5.05,103.4-54.78,116.89-66.6,1.84-1.61,2.82-2.52,2.82-2.52,0,0-4.15-1.89-10.85-5.04-6.35-2.97-14.97-7.04-24.53-11.67-18.62-9.02-40.76-20.13-56.48-29.23-8.54-4.95-17.32-12.39-26.42-21.3-.35-.33-.7-.68-1.05-1.03-25.05-24.77-52.55-60.36-84.24-85.62-43.67-34.81-51.61-89.39-56.71-103-.18-.47-.17-.73,0-.78,4.7-1.55,134.29,144.41,179.81,186.11,1.38,1.27,2.69,2.44,3.91,3.5,8.25,7.21,17.4,13.52,26.78,19.02,14.71,8.62,30.02,15.22,43.44,20.13,22.59,8.26,39.83,11.67,39.83,11.67,0,0,3.39,5.86,10.23,17.23,7.95,13.2,20.56,33.81,37.93,61.25,32.32,51.04,90.17,95.26,195.65,166.72,37.85,25.64,74.17,36.38,107.22,38.28h.01c24.65,1.42,47.48-2.08,67.78-8,28.34-8.25,51.74-21.18,68.27-31.98,11.67-7.63,18.14-22.16,20.88-40.33l1.46-16.28c1.89-50.03-16.81-117.21-32.55-150.94-1.64-3.5-10.11-20.56-12.43-25.27l-5.17-9.99c-37.96-73.61-111.4-207.7-118.5-223.32-8.51-18.71-209.25-212.65-241.57-243.27-32.32-30.62-129.29-110.57-175.22-125.88-45.93-15.31-93.67,18.76-93.67,18.76,0,0-44.12,25.47-67.94,40.79-23.82,15.31-73.87,82.12-131,171.82-34.54,54.24-41.61,92.64-41.43,121.3.11,18.74,3.33,33.31,4,45.41,1.7,30.62,88.95,79.96,119.49,98.12,28.87,17.16,103.13,28.22,115.39,35.11.71.4,1.21.78,1.49,1.16,4.99,6.81-106.25,5.1-147.41-18.65-41.15-23.76-85.55-49.39-94.06-56.2-.88-.7-1.63-.95-2.27-.79-2.85.7-3.26,9.61-1.92,21.84,1.24,11.26,3.94,25.35,7.59,38.49,8.51,30.61,3.4,23.81,32.32,49.33,28.92,25.52,99.46,32,99.81,31.79.34-.19-21.55,12.44-64.08-1.17-42.53-13.61-61.25-22.12-61.25-22.12,0,0,0,10.21,1.7,45.93s-5.1,124.19-5.1,149.7,0,137.8,68.05,304.52c68.05,166.72,172.94,241.49,188.73,251.13,15.78,9.63-32.03,18.49-49.22,24.46-3.88,1.35-6.01,3.3-6.67,5.89-2.28,8.9,12.78,25.37,33.78,50.94,27.11,33.02,77.81,44.93,96.92,48.65,19.11,3.72-31.88,18.42-49.44,20.99-17.55,2.57-6.54,11.33,12.17,50.46,11.57,24.19,45.9,95.85,70.42,152.27,11.63,15.06,24.73,31.09,39.06,47.14,48.01,53.74,109.79,107.69,175.69,126.09,98.67,27.55,72.95,40.64,26.27,37.88-22.51-1.33-49.89-6.34-70.56-15.2-11.72-5.02-24.01-12.4-36.26-21.1-.01,0-.02,0-.02-.01-5.16-3.66-10.32-7.55-15.43-11.6-15.75-12.5-31-26.47-44.42-39.65-27.86-27.36-47.78-51.25-47.78-51.25,0,22.12,0,95.27-10.21,113.99-10.21,18.71,0,35.72,0,81.65,0,37.66-67.44,588.79-91.76,731.78-16.67.13-93.75.31-110.31.54l51.45-213.74s72.58-447.13,72.58-482.86,0-71.45,18.71-134.39c18.71-62.95-13.99-146.31-29.3-182.04-15.31-35.72-25.56-105.22-25.56-105.22,0,0-18.11-10.46-30.02-34.28-3.98-7.96-7.2-16.88-9.72-25.21-.01-.01,0-.01,0-.01-5.04-16.6-7.29-30.92-7.29-30.92,0,0-22.12-15.31-45.92-56.13-23.82-40.83-22.12-74.86-22.12-74.86,0,0-11.91-6.81-91.87-120.79-79.96-113.98-103.77-282.39-113.98-328.33-10.21-45.93-8.51-113.99,0-176.92,8.51-62.95,0-124.19,0-124.19,0,0,0-27.22-7.22-40.83ZM1072.98,1680.69c10.84,3.54,30.54,11.04,64.29,26.89,46.52,21.86,134.82,55.45,198.1,84.26,0,0,0-.01.01,0,19.36,8.81,36.39,17.18,49.14,24.62,54.44,31.76,151.98,220.03,170.13,274.47,2.64,7.93,7.29,20.89,13.27,37.24,1.09-19.2,14.99-46.12,7.22-92.81-10.21-61.35-39.13-210.85-45.93-249.98-6.81-39.13,0-86.75,17.01-207.55,17.01-120.78,10.21-200.74,11.91-280.7,1.7-79.95,10.21-85.05,22.12-129.29,11.91-44.23-11.91-231.36-13.61-272.2-1.7-40.83,1.7-158.21,0-229.66-1.7-71.45-13.61-285.81-37.43-370.86-23.82-85.06-83.36-193.94-210.95-176.93-20.87,2.78-38.4,8.84-53.16,17.41h0c-75.46,43.86-77.84,153.57-77.84,227.56,0,88.47,1.7,294.31,8.51,307.92,6.81,13.61,57.84,5.1,119.09,6.81,19.88.56,49.8,5.94,81.67,13.33,66.3,15.36,141.05,39.32,151.39,46.22,15.31,10.21-93.57-6.81-161.61-17.01-25.16-3.78-57.76-6.57-89.2-8.01-53.58-2.47-103.77-1.02-107.92,6.17-6.59,11.4-13.83,23.95-12.12,173.66,1.7,149.7-10.21,233.07-8.51,241.57,1.7,8.51,88.46,0,153.1,6.81,64.65,6.81,141.2,47.64,120.78,49.34s-61.24-23.08-129.29-30.62c-68.05-7.54-123.64,7.54-137.79,11.91-14.17,4.37,107.17,49.34,175.22,66.35,68.04,17,96.96-11.91,134.39-17.01s47.64,18.71,11.91,20.42-91.86,30.61-172.99,18.7c-81.13-11.9-121.32-56.13-155.34-64.64-34.03-8.51-20.42,39.13-18.71,86.75,1.7,47.64-28.92,302.82-32.32,319.83-3.4,17.01,69.74-8.51,105.72-3.82,7.64,1,16.57,4.17,25.87,8.7,14.61,7.11,30.18,17.53,43.32,28.01,17.8,14.2,31.11,28.51,31.44,34.77.74,13.83-13.08,7.55-55.69-17.05-42.6-24.59-43.48-25.1-103.02-16.59-43.76,6.25-66.38,33.62-92.18,45.01ZM608.71,1571.53c39.61-37.85,84.07-57.69,123.5-66.72,50.06-11.47,92.02-5.51,105.63,3.15,16.45,10.47,71.42,46.4,101.11,79.88-31.55-116.42-86.05-410.94-97.86-416.11-3.84-1.69-6.44-3.85-8.05-6.32-4.47-6.81-1.67-16.05,2.08-24.78,5.1-11.91,10.21-105.48-42.53-275.6-52.74-170.12-57.54-210.67-82.52-215.58-25-4.9,11.08-19.19,17.89-48.11,6.79-28.92-28.92-171.82-81.66-347.04-50.14-166.6-146.42-227.09-250.84-200.46-.01,0-.02,0-.03.01-5.39,1.36-10.8,2.97-16.22,4.81-110.57,37.43-90.17,238.17-75.2,290.76,14.97,52.6,75.2,291.05,127.94,314.86,52.74,23.82,163.31-23.82,214.35-20.42,31.25,2.09,8.93,13.09-26.74,24.06-22.59,6.94-50.54,13.86-73.63,18.48-59.53,11.91-122.48-8.51-136.09,3.4-13.61,11.91-17.01,68.05-1.7,224.56,2.16,22.01,4.84,42.58,7.91,61.68,18.73,116.77,51.38,179.15,60.15,185,10.21,6.81,37.42-35.73,107.17-51.04,35.02-7.69,73.07-11.94,103.97-13.63h.01c30.62-1.67,54.26-.82,61.03,1.72,3.52,1.32-.24,3.44-8.77,5.97-24.49,7.25-88.27,17.91-132.43,22.96-59.55,6.81-107.17,40.83-103.78,59.55,3.4,18.71,68.05,25.52,141.21,20.42,73.16-5.1,166.72-42.53,178.22-31.34,11.5,11.19-77.85,44.95-152.7,56.86-74.86,11.91-124.19,5.1-156.6-3.4-32.4-8.51-27.13,20.4,0,100.36,19.16,56.41,68.05,176.33,95.2,242.07ZM273.73,2074.59l.07-.03,35.65-16.98s-44.22-52.74-68.04-149.7c-23.82-96.97-6.81-136.1-6.81-136.1,0,0,1.7,73.16,30.62,148.01,28.91,74.85,62.94,107.17,95.26,115.57,32.32,8.4,51.04,10.31,81.66,18.82,30.62,8.51,343.64,330.04,367.46,343.64,19.78,11.31,63.03,109.44,80.04,158.95,25.8,25.27,75.15,61.29,126.94,33.22l2.94-1.62c1.94-1.08,3.81-2.16,5.64-3.24l2.87-1.72c.7-.44,1.41-.87,2.09-1.3l.58-.36c1.26-.79,2.48-1.59,3.69-2.38.37-.25.75-.5,1.12-.75.81-.54,1.61-1.09,2.39-1.63h.01c5.34-1.27,11.07-6.23,16.68-13.01.02-.02.03-.05.06-.07,2.47-2.19,4.76-4.37,6.9-6.51.05-.06.09-.11.15-.16.86-.88,1.7-1.76,2.52-2.62,2.82-3.04,5.33-6.01,7.55-8.9,0-.01.01-.02.02-.03,1.89-2.5,3.58-4.92,5.09-7.27.11-.18.23-.36.34-.53.37-.6.75-1.2,1.09-1.79.24-.39.47-.77.67-1.15.23-.37.44-.76.65-1.13.43-.75.83-1.49,1.2-2.21.18-.36.37-.73.56-1.09.36-.71.7-1.42,1.03-2.12.49-1.04.94-2.06,1.36-3.06.27-.66.53-1.32.78-1.95.12-.33.25-.66.37-.98.1-.31.22-.61.32-.91.11-.31.22-.61.32-.92.2-.6.4-1.19.58-1.76.14-.45.27-.91.4-1.34,2.4-8.44,2.04-13.63,2.04-13.64l-9.13-10.94c-10.8-14.26-21.33-33.58-28.38-59.4-20.42-74.86-20.42-102.08-20.42-102.08,0,0-14.47-1-39.92-9.45l-11.24-3.97c-29.65-11.08-70.71-31.24-119.25-67.76-38.88-29.24-82.55-68.99-129.01-122.98-162.11-188.39-216.43-438.12-138.18-538.79-21.91-17.51-50.04-38.87-71.36-51.18-40.59-23.43-82.94-47.9-120.37-46.2-28.43,1.29-115.79,43.39-163.57,88.51-11.67,11-20.98,22.18-26.49,33.01-.01.01-.01.02-.01.03-1.63,3.19-2.93,6.34-3.86,9.45-8.37,27.99-13.04,77.07-14.19,130.23-.01.35-.02.7-.02,1.05-1.15,54.55,1.4,113.28,7.41,157.93,4.04,30,13.75,58.43,24.83,82.91,21.57,47.7,48.33,80.4,48.33,80.4ZM932.16,2529.57c3.31,13.79,9.05,14.76,22.68,21.08,10.02,4.64,19.2,7,33.63,7,12.01,0,21.97-1.67,26.85-2.66,10.08-2.06,21.48-9.2,30.89-17.2l-13.28,1.8c-7.31,6.19-14.2,10.72-19.65,11.83-6.61,1.35-15.45,2.46-24.81,2.46-22.09,0-47.12-6.17-52.82-29.91-8.11-33.8-23.99-97.31-8.11-126.8,8.79-16.32,29.33-40.98,45.93-59.75h-3.19c-16.83,17.48-43.72,46.48-51.73,61.35-17.32,32.16-2.39,81.38,6.53,118.48l7.08,12.33ZM802.33,2744.35c-12.03,18.01-17.88,31.35-17.37,52.35l.05,1.91.62,1.81,21.11,61.97.32.95.47.88c.3.56,7.39,13.74,21.45,26.76,18.93,17.51,41.77,20.34,66.05,20.34,14.44,0,27.85-4.58,39.84-11.41l.7-4.4c-11.74,5.72-25.39,9.77-40.53,9.77-51.56,0-76.49-46.91-76.49-46.91l-21.11-61.97c-1.64-68.94,65.67-80.15,113.33-109.41l-1.51-3.77c-19.63,12.54-37.36,17.4-75.62,36.28-17.68,12.01-21.53,10.22-31.3,24.83Z"/>
    </g>
  </g>
</svg>