<?xml version="1.0" encoding="UTF-8"?>
<svg xmlns="http://www.w3.org/2000/svg" version="1.1" xmlns:xlink="http://www.w3.org/1999/xlink" viewBox="0 0 581 614.5">
  <defs>
    <style>
      .cls-1 {
        clip-path: url(#clippath-4);
      }

      .cls-2 {
        opacity: .3;
      }

      .cls-2, .cls-3, .cls-4 {
        mix-blend-mode: multiply;
      }

      .cls-5 {
        fill: #78c9e5;
      }

      .cls-6 {
        fill: #fff;
      }

      .cls-7 {
        fill: #ff5858;
      }

      .cls-8 {
        fill: #1f66c6;
      }

      .cls-9 {
        fill: none;
      }

      .cls-10 {
        fill: #394f82;
      }

      .cls-11 {
        clip-path: url(#clippath-1);
      }

      .cls-12 {
        isolation: isolate;
      }

      .cls-13 {
        fill: #fbcb0f;
      }

      .cls-14 {
        clip-path: url(#clippath-5);
      }

      .cls-15 {
        fill: #236350;
      }

      .cls-16 {
        clip-path: url(#clippath-3);
      }

      .cls-17 {
        fill: #002465;
      }

      .cls-18 {
        fill: #f1f8fa;
      }

      .cls-19 {
        fill: #81ca7b;
      }

      .cls-3 {
        opacity: .2;
      }

      .cls-20 {
        fill: #9cb1e9;
      }

      .cls-21 {
        clip-path: url(#clippath-2);
      }

      .cls-4 {
        opacity: .2;
      }

      .cls-22 {
        fill: #a6bbc4;
      }

      .cls-23 {
        fill: #253f8f;
      }

      .cls-24 {
        clip-path: url(#clippath);
      }

      .cls-25 {
        fill: #d9f0e8;
      }
    </style>
    <clipPath id="clippath">
      <rect class="cls-9" x="241.1" y="152.8" width="175.2" height="332.8"/>
    </clipPath>
    <clipPath id="clippath-1">
      <rect class="cls-9" x="140.3" y="65.4" width="268.4" height="27.4"/>
    </clipPath>
    <clipPath id="clippath-2">
      <rect class="cls-9" x="123.7" y="571.8" width="305" height="12.3"/>
    </clipPath>
    <clipPath id="clippath-3">
      <rect class="cls-9" x="483.3" y="442.1" width="31.6" height="14"/>
    </clipPath>
    <clipPath id="clippath-4">
      <rect class="cls-9" x="482.1" y="452.8" width="3.4" height="3.4"/>
    </clipPath>
    <clipPath id="clippath-5">
      <rect class="cls-9" x="446.5" y="410" width="81.8" height="63.5"/>
    </clipPath>
  </defs>
  <!-- Generator: Adobe Illustrator 28.7.1, SVG Export Plug-In . SVG Version: 1.2.0 Build 142)  -->
  <g class="cls-12">
    <g id="Layer_1">
      <path class="cls-22" d="M92.6,348.7l-2.5-1.7-1.3-.8c-.4-.3-.8-.6-1.2-.9l.2-.3c.4.3.8.6,1.2.9l1.3.8,2.5,1.7-.2.3Z"/>
      <polygon class="cls-22" points="82.9 341.4 78.6 337 78.9 336.7 83.2 341.1 82.9 341.4"/>
      <polygon class="cls-22" points="74.8 332.3 71.3 327.3 71.7 327 75.1 332 74.8 332.3"/>
      <polygon class="cls-22" points="68.2 322.1 65.5 316.6 66 316.4 68.6 321.8 68.2 322.1"/>
      <polygon class="cls-22" points="63.2 311 61.4 305.2 61.8 305 63.7 310.8 63.2 311"/>
      <path class="cls-22" d="M60.1,299.2c-.3-2-.5-4-.6-6.1h.5c0,2,.3,4,.6,6h-.5Z"/>
      <path class="cls-22" d="M59.9,287.1c.4-2,1.1-4,2.5-5.6l.3.3c-1.2,1.5-1.9,3.5-2.4,5.4h-.4Z"/>
      <path class="cls-22" d="M67.5,278.1c1.9-.7,4-1.1,6-1.1v.4c-2,0-4,.4-5.9,1.1v-.4Z"/>
      <path class="cls-22" d="M78.8,279.8c.4,1,.4,2.1.3,3.1-.1,1-.4,2-.9,3l-.3-.2c.4-.9.7-1.9.8-2.8.1-1,0-2-.3-2.9h.4Z"/>
      <path class="cls-22" d="M73.8,289.9c-1.9.8-3.9,1.1-6,1.2v-.3c2,0,4-.4,5.8-1.2v.3Z"/>
      <path class="cls-22" d="M61.7,290.6c-2-.4-4-1-5.8-1.7v-.3c2,.8,3.9,1.3,5.9,1.7v.3Z"/>
      <path class="cls-22" d="M50.6,285.9c-1.6-1.3-3-2.8-4.2-4.4l.2-.2c1.2,1.6,2.5,3.1,4.1,4.4l-.2.2Z"/>
      <path class="cls-22" d="M43.6,276.1c-.7-1.9-1.3-3.9-1.7-5.8h.2c.4,1.9,1,3.9,1.7,5.8h-.2Z"/>
      <path class="cls-22" d="M41.2,264.2c-.1-2-.1-4.1,0-6.1h.1c0,2,0,4,0,6.1h-.2Z"/>
      <polygon class="cls-22" points="41.8 252.1 43 246.1 43 246.2 41.9 252.1 41.8 252.1"/>
      <polygon class="cls-22" points="44.6 240.3 45.5 237.5 44.6 240.3 44.6 240.3"/>
      <polygon class="cls-22" points="408 19.3 410.7 18.1 410.8 18.2 408 19.3"/>
      <polygon class="cls-22" points="416.5 16.2 422.4 14.6 422.4 14.7 416.5 16.2 416.5 16.2"/>
      <polygon class="cls-22" points="428.3 13.6 434.4 13 434.4 13.2 428.4 13.7 428.3 13.6"/>
      <polygon class="cls-22" points="440.5 12.9 446.5 13.3 446.5 13.6 440.5 13.2 440.5 12.9"/>
      <polygon class="cls-22" points="452.5 14.3 458.5 15.7 458.4 16 452.5 14.5 452.5 14.3"/>
      <polygon class="cls-22" points="464.2 17.6 469.8 20 469.7 20.3 464.1 17.9 464.2 17.6"/>
      <polygon class="cls-22" points="475.2 22.9 480.2 26.3 480 26.6 475 23.2 475.2 22.9"/>
      <polygon class="cls-22" points="484.9 30.2 489.2 34.5 489 34.7 484.7 30.5 484.9 30.2"/>
      <path class="cls-22" d="M493.1,39.2l1.7,2.5.9,1.3c.3.4.5.9.8,1.3l-.3.2c-.3-.4-.5-.9-.8-1.3l-.8-1.3-1.7-2.5.3-.2Z"/>
      <polygon class="cls-22" points="499.3 49.7 501.5 55.3 501.1 55.5 498.9 49.8 499.3 49.7"/>
      <polygon class="cls-22" points="503.3 61.1 504.6 67.1 504.1 67.2 502.9 61.2 503.3 61.1"/>
      <polygon class="cls-22" points="505.4 73.1 505.9 79.2 505.4 79.2 505 73.2 505.4 73.1"/>
      <polygon class="cls-22" points="505.8 85.3 505.3 91.3 504.8 91.3 505.3 85.2 505.8 85.3"/>
      <path class="cls-22" d="M504.3,97.3c-.5,2-1,3.9-1.8,5.8l-.4-.2c.7-1.9,1.3-3.8,1.7-5.8h.5Z"/>
      <path class="cls-22" d="M499.7,108.6c-1.1,1.7-2.6,3.3-4.4,4.2l-.2-.4c1.7-1,3.1-2.5,4.2-4.1l.4.2Z"/>
      <path class="cls-22" d="M489.3,114c-2,0-4.1-.5-6-1.3l.2-.4c1.8.8,3.8,1.2,5.8,1.3v.4Z"/>
      <path class="cls-22" d="M479.6,108.2c0-1.1.4-2.1.9-3,.5-.9,1.2-1.7,1.9-2.4l.2.3c-.7.7-1.4,1.4-1.9,2.3-.5.9-.8,1.8-.8,2.8h-.4Z"/>
      <path class="cls-22" d="M488,100.7c2.1,0,4.1.5,6,1.2v.3c-2-.7-4-1.2-6-1.1v-.3Z"/>
      <path class="cls-22" d="M499.5,104.6c1.7,1.1,3.3,2.4,4.7,3.8l-.2.2c-1.4-1.4-3-2.7-4.7-3.8l.2-.3Z"/>
      <path class="cls-22" d="M508,113.2c1,1.8,1.7,3.7,2.2,5.7h-.3c-.4-1.9-1.1-3.8-2.1-5.5h.2Z"/>
      <path class="cls-22" d="M510.7,125c0,2-.3,4.1-.7,6h-.2c.4-2,.6-4,.6-6h.3Z"/>
      <path class="cls-22" d="M508.4,136.9c-.7,1.9-1.4,3.8-2.3,5.6h-.1c.9-1.9,1.6-3.8,2.3-5.7h.2Z"/>
      <polygon class="cls-22" points="503.2 147.8 499.8 152.9 499.8 152.9 503.1 147.8 503.2 147.8"/>
      <polygon class="cls-22" points="496.1 157.7 494.1 159.9 496.1 157.7 496.1 157.7"/>
      <path class="cls-19" d="M350.8,344.9s19.9-32,10.4-42.2c-9.5-10.2-8.4-25-24.4-35.9-16-11-19.2-7.3-43.1-4-23.9,3.3-32-5.6-46,12.8-13.6,18-5.8,24.4,19.5,18.9,15.2-3.3,31.6-12.2,43.6,9.2,14.7,26.2,40,41.2,40,41.2"/>
      <path class="cls-19" d="M374.4,347.2c-9.6-1.8-9.5-22.1.2-35.2,6.7-9.1,18.3-5.6,28.4-17.7,7.2-8.6,4.6-14.1,11.6-17.2,8.3-3.7,14.4,2.8,29.3,1.7,14.4-1.1,15.6-7.7,25-6.9,17.3,1.4,38.1,25.6,31.7,36.1-3.9,6.4-23.6-5.3-37,3.6-6.7,4.4-4.8,9.1-11.8,12.5-9.9,4.8-18.3-2-30.1-.8-22.8,2.3-36.6,25.9-47.3,23.9"/>
      <path class="cls-15" d="M365.2,485.6c-3.9-27.7-5.9-55.8-4.9-83.8.4-11.6,1.4-23.4,3.8-34.8,5.3-25.3,21-48,42.2-62.6,7.7-5.3,16.1-9.7,25-12.4-8.9,2.9-17.1,7.5-24.7,12.8-22.7,16.1-39,41.6-42.8,69.3-1.4,9.2-2.2,18.5-2.6,27.8-1,28,.7,56,4,83.8"/>
      <path class="cls-15" d="M361.7,460.2c-5-44.4-8.8-95.6-14.2-139.9-1.9-11.4-3.4-30.4-13-37.8-1.6-1.2-3.3-2.1-5.1-2.8,1.8.7,3.6,1.6,5.2,2.7,10,7.5,11.6,26.2,13.7,37.8,1.1,7.7,2,15.5,2.9,23.3,3.6,33.8,7.7,82.7,10.6,116.7"/>
      <path class="cls-19" d="M365.2,427s-13.3-28.2-4.2-35.7c9.2-7.5,10.2-19.8,24.9-27.3,14.6-7.5,16.8-4.1,36.1,1,19.3,5.2,27.2-1.4,36.3,15.2,8.9,16.3,1.6,20.8-18.6,13.7-12.1-4.3-24.5-13.3-37.2,3.3-15.6,20.2-37.3,29.7-37.3,29.7"/>
      <path class="cls-15" d="M370,485c-5.9-29-9.4-63.9,4.4-91.1,2.1-3.9,4.6-7.6,7.6-10.9-21.5,26.9-17,69.9-11.9,101.9"/>
      <path class="cls-15" d="M388.6,333.8c3.5-3.7,7.4-7.1,11.5-10.1,4.2-3,8.7-5.8,13.8-6.6,7.8-.8,15.1,2.5,22.7,3.2,5,.5,10.2-.4,13.8-4.1,3.8-3.5,7.4-7.1,11.6-10,6.5-4.3,14.9-5.3,22.3-3.3,3.1.6,6.1,2,9.3,1.8,2.2-.3,2-3,1.7-4.7,1.9,8.2-6.8,4-11.1,3.4-7.4-1.8-15.4-.7-21.7,3.6-4.2,2.9-7.7,6.6-11.5,10-3.7,3.9-9.4,5-14.5,4.3-7.6-.7-14.9-4-22.5-3.4-5,.7-9.5,3.4-13.6,6.2-4.2,2.9-8.1,6.2-11.8,9.7"/>
      <path class="cls-15" d="M378.1,414.3c7.2-9.5,22.4-28.7,33.8-31.9,7.9-1.3,15.5,2.4,22.8,5,3.6,1.4,7.2,2.9,10.9,4.1,3.7,1.2,7.5,2.3,11.4,1.9-7.8,1-15.4-2.8-22.6-5.2-7.2-2.4-14.6-6-22.3-4.7-10.6,2.8-26.6,22.2-34,30.9"/>
      <path class="cls-15" d="M309,293.6c10.3,14,20.3,28.7,33.7,40l2.9,2c-13.8-7.8-28.2-28.4-36.5-42"/>
      <polygon class="cls-20" points="141.4 263.6 93.8 273.4 89.2 243.9 136 238 141.4 263.6"/>
      <polygon class="cls-20" points="136.1 238.3 89.3 244.2 109.9 218.8 136.1 238.3"/>
      <path class="cls-8" d="M89.3,244.2c8.9,4,17.8,8.3,26.6,12.5h-.4c2.9-2.7,7.2-6.5,10.2-9.3,3.4-3.1,6.9-6.1,10.4-9.1-3.3,3.2-6.6,6.4-10,9.6-3.1,2.8-7.3,6.8-10.3,9.6-8.9-4.4-17.7-8.7-26.5-13.3"/>
      <path class="cls-8" d="M94.3,266.6c3.2-4.1,6.8-7.8,10.7-11.1-3.2,4.1-6.8,7.8-10.7,11.1"/>
      <path class="cls-8" d="M136.4,263.2c-4.5-3-8.7-6.3-12.5-10.1,4.5,3,8.7,6.4,12.5,10.1"/>
      <path class="cls-8" d="M92.2,242.5c13.6-2.2,27.3-3.9,41-5.1-13.6,2.2-27.3,3.9-41,5.1"/>
      <g class="cls-2">
        <g class="cls-24">
          <path class="cls-10" d="M336.8,266.8c-16-11-19.2-7.3-43.1-4s-32-5.6-46,12.8c-13.6,18-5.8,24.4,19.5,18.9,15.2-3.3,31.6-12.2,43.6,9.2.6,1.1,1.2,2.1,1.8,3.1,2.4-8.3,8-15,15.4-18.1,6.9-2.9,13.5-6.3,19.8-10.4-2.5-4.1-5.9-8-11.1-11.6"/>
          <path class="cls-10" d="M352.1,367l4.5,46.7c1.6,15.5,3.2,31.1,5.1,46.6-1.1-15.6-2.4-31.2-3.7-46.7-1.3-15.6-2.7-31.1-4.1-46.7-.3-3.4-.7-6.7-1-10.1-.6-.4-1.2-.8-1.8-1.3.4,3.8.8,7.7,1.1,11.5"/>
          <path class="cls-10" d="M407.5,153c-10.5,2.1-10.7,16-9.2,16.4,2.3.6,4.6.8,6.8.7l.5,2.7c-8.9,3.8-16.6,10.7-21.4,20-7.8,15.2-5.6,32.9,4.2,45.6,15.7-23.1,25.8-51.6,27.9-82.6-2.5-2.1-5.5-3.5-8.8-2.9"/>
          <path class="cls-10" d="M366.8,426.3c4.5-2.2,17.5-9.3,29.3-21.6-6.3-11.1-13.9-21.3-22.5-30.1-4.1,5.5-6.7,11.4-11.5,15.8.4-5.4,1-10.8,1.9-16.2.4-2.5.9-5,1.4-7.5-.5-.4-1-.9-1.5-1.3-.6,2.8-1.2,5.7-1.7,8.5-.9,6-1.5,12.1-1.9,18.1-3.9,4-2.8,12.5-.8,20.1,0,5.9,0,11.9.3,17.8.7,18.7,2.4,37.3,5.2,55.8-1-9.3-1.9-18.6-2.5-27.9-.7-9.3-1.1-18.6-1.3-27.9,0-4.3-.1-8.6-.1-12.9,1.7,5,3.5,9,3.9,9.9-.2,1.8-.3,3.7-.4,5.5-.4,8.9,0,17.7.9,26.5,1,8.8,2.4,17.5,4.4,26.1l-.9-6.5-.8-6.6-.7-6.6-.6-6.6c-.7-8.8-1-17.6-.5-26.3,0-2,.2-4.1.4-6.1"/>
        </g>
      </g>
      <path class="cls-25" d="M303.3,280.2h0c0-12.2,6.7-23.1,16.7-27.3,51.7-21.4,88.6-78.2,88.6-144.9v-42.5H140.3v42.5c0,65.3,35.4,121.1,85.3,143.5,9.7,4.4,16.1,15.1,16.1,27v4.5c0,11.9-6.3,22.5-15.9,26.9-49.4,22.8-84.2,78.2-84.2,143.1v42.5h268.4v-42.5c0-67.2-37.4-124.3-89.7-145.4-10.1-4.1-16.9-15-16.9-27.4"/>
      <path class="cls-17" d="M125.3,476.8h299.6c5,0,9,4,9,9v30.7c0,5-4,9-9,9H125.3c-5,0-9-4-9-9v-30.7c0-5,4-9,9-9"/>
      <path class="cls-23" d="M153.6,454.3s.9-30.4,8-54.3c7.1-23.8,30-56.8,53.9-69,23.9-12.2,24.3-10.7,38-8.1,13.7,2.5,18.1-9.1,33.1-7.6,15,1.5,61.8,2.5,85.3,51.7,23.4,49.2,24.7,89.3,24.7,89.3,0,0-208.9,14.7-243-2"/>
      <path class="cls-23" d="M379.1,167.4s-45.9-9.1-68.9,7.1c-23,16.2-104.3-30.4-137.8-7.1,0,0,16.1,53.2,66.1,73,30.5,17.4,38.3,48.3,44.8,30.5,5.8-15.8,31-31.7,40-36.9,1-.5,1.9-1.1,2.9-1.6.2-.1.3-.2.3-.2h0c26.5-15.6,46.4-40.9,52.7-64.8"/>
      <path class="cls-20" d="M273,299.8c2.2,1.7,5.2.8,6.6-1.1,2.2-3,.8-8.8-2.3-9.9-2.3-.8-5.4,1.1-6.3,4.2-.6,2.3,0,5.3,2,6.8"/>
      <path class="cls-20" d="M265.5,283.7c1.4,1,3.2.5,4.1-.7,1.4-1.9.5-5.5-1.4-6.2-1.5-.5-3.4.7-3.9,2.6-.4,1.5,0,3.3,1.2,4.3"/>
      <path class="cls-6" d="M319.1,102.5c12.8,5.2,30.4,9.5,49.5,4.1,10.2-2.9,15.2-7,18.6-4.1,8.1,7.2-3.4,46.6-23,75.1-26.7,38.8-67.9,56.5-71.6,50.7-2.2-3.4,10-13,19.4-32.5,15.3-31.7,12.4-67.3,7.1-93.3"/>
      <path class="cls-6" d="M319.1,451.7c12.8-5.2,30.4-9.5,49.5-4.1,10.2,2.9,15.2,7,18.6,4.1,8.1-7.2-3.4-46.6-23-75.1-26.7-38.8-67.9-56.5-71.6-50.7-2.2,3.4,10,13,19.4,32.5,15.3,31.7,12.4,67.3,7.1,93.3"/>
      <path class="cls-6" d="M297.9,260.5c.6.3-6.6,11.5-4.4,26.1,1.7,11.2,7.8,17.8,6.6,19-1.1,1.1-8.1-3.3-11-10.7-5.9-15,8-34.9,8.8-34.5"/>
      <path class="cls-20" d="M123.7,494.7c99.3,1,202.4,1.6,301.5,0-100.1,2.8-201.3,2.2-301.5,0"/>
      <g class="cls-2">
        <g class="cls-11">
          <rect class="cls-10" x="140.3" y="65.4" width="268.4" height="27.4"/>
        </g>
      </g>
      <path class="cls-17" d="M424.9,84.2H125.3c-5,0-9-4-9-9v-30.7c0-5,4-9,9-9h299.6c5,0,9,4,9,9v30.7c0,5-4,9-9,9"/>
      <path class="cls-20" d="M425.2,45.6c-99.3-1-202.4-1.6-301.5,0,100.1-2.8,201.3-2.2,301.5,0"/>
      <g class="cls-4">
        <g class="cls-21">
          <path class="cls-10" d="M428.7,578c0,3.4-68.3,6.2-152.5,6.2s-152.5-2.8-152.5-6.2,68.3-6.2,152.5-6.2,152.5,2.8,152.5,6.2"/>
        </g>
      </g>
      <path class="cls-25" d="M85.3,382.4c-29.8,21.7-68.5,36.3-68.5,36.3,10.2,30.1,35,49.8,35,49.8,29.3-2.6,73.5-38.9,73.5-38.9-14.7-2.2-40-47.2-40-47.2M31,422.9c-1.3.7-3.1.1-3.8-1.4s-.3-3.2,1-3.9c1.3-.7,3.1-.1,3.8,1.4s.3,3.2-1,3.9M43.2,417c-1.3.7-3.1.1-3.8-1.4-.8-1.5-.3-3.2,1-3.9,1.3-.7,3.1-.1,3.8,1.4.8,1.5.3,3.2-1,3.9M55.5,411.1c-1.3.7-3.1.1-3.8-1.4-.8-1.5-.3-3.2,1-3.9,1.3-.7,3.1-.1,3.8,1.4.8,1.5.3,3.2-1,3.9M67.5,404.7c-1.3.7-3.1.1-3.8-1.4-.8-1.5-.3-3.2,1-3.9,1.3-.7,3.1-.1,3.8,1.4.8,1.5.3,3.2-1,3.9M79.3,397.9c-1.3.7-3.1.1-3.8-1.4-.8-1.5-.3-3.2,1-3.9,1.3-.7,3.1-.1,3.8,1.4s.3,3.2-1,3.9"/>
      <path class="cls-8" d="M34,427.2c6,13.3,14,27.8,27,35.1-13.3-6.6-21.8-21.7-27-35.1"/>
      <path class="cls-8" d="M48.8,419.3c6,13.3,14,27.8,27,35.1-13.3-6.6-21.8-21.7-27-35.1"/>
      <path class="cls-8" d="M65.1,410.2c6,13.3,14,27.8,27,35.1-13.3-6.6-21.8-21.7-27-35.1"/>
      <path class="cls-8" d="M81.3,400.5c6,13.3,14,27.8,27,35.1-13.3-6.6-21.8-21.7-27-35.1"/>
      <path class="cls-8" d="M35.4,442.2c19.5-10.3,39-20.8,57.3-33.2,0,0,3.6-2.6,3.6-2.6-18.8,14.2-39.8,25.2-60.9,35.7"/>
      <path class="cls-8" d="M45.8,457.5c19.3-8.1,37.9-18.5,53.3-32.7,2.3-2,4.2-4.2,6.4-6.3-15.9,18-37.4,30.4-59.7,39.1"/>
      <path class="cls-13" d="M49.9,446.1c1.4,0,2.9.2,4.3.4l-.5.5c-.2-2.6,0-5.5,1.3-7.7-.4,2.5-.5,5.1-.4,7.7v.6c-1.6-.4-3.1-.8-4.6-1.4"/>
      <path class="cls-13" d="M92.1,438.6c1.4,0,2.9.2,4.3.4l-.5.5c-.2-2.6,0-5.5,1.3-7.7-.4,2.5-.5,5.1-.4,7.7v.6c-1.6-.4-3.1-.8-4.6-1.4"/>
      <path class="cls-13" d="M54.5,421.1c2.9-1.2,6.5-.6,8.9,1.3-3-.7-5.8-1.1-8.9-1.3"/>
      <path class="cls-13" d="M59,425.5c-.6-1.3-.8-2.6-.8-4,0-1.6,1.2-6.2,1-1.9,0,1.9,0,4-.2,5.9"/>
      <path class="cls-18" d="M465.8,491.3c-21.2-10.8-29.6-36.7-18.8-57.8,10.8-21.2,36.7-29.6,57.8-18.8,21.2,10.8,29.6,36.7,18.8,57.8-10.8,21.2-36.7,29.6-57.8,18.8"/>
      <path class="cls-13" d="M507.1,410c-23.7-12.1-52.7-2.7-64.8,21-12.1,23.7-2.7,52.7,21,64.8,23.7,12.1,52.7,2.7,64.8-21,12.1-23.7,2.7-52.7-21-64.8M465.8,491.3c-21.2-10.8-29.6-36.7-18.8-57.8,10.8-21.2,36.7-29.6,57.8-18.8,21.2,10.8,29.6,36.7,18.8,57.8-10.8,21.2-36.7,29.6-57.8,18.8"/>
      <g class="cls-3">
        <g class="cls-16">
          <polygon class="cls-5" points="483.3 453.4 484.4 456 514.9 442.1 483.3 453.4"/>
        </g>
      </g>
      <polygon class="cls-17" points="483.2 452.7 484.2 455.3 514.8 441.3 483.2 452.7"/>
      <path class="cls-17" d="M487.2,455.6c-.9,1.8-3,2.5-4.8,1.6-1.8-.9-2.5-3-1.6-4.8.9-1.8,3-2.5,4.8-1.6,1.8.9,2.5,3,1.6,4.8"/>
      <g class="cls-3">
        <g class="cls-1">
          <path class="cls-5" d="M482.1,454.2c-.2.9.5,1.8,1.3,2,1.1.2,2.2-.9,2-2-.1-.7-.8-1.3-1.6-1.3-.8,0-1.6.5-1.8,1.4"/>
        </g>
      </g>
      <path class="cls-17" d="M503.8,416.6c.6.7.9,1.2,1.1,1.7.1.4.1.8,0,1.1-.2.3-.4.5-.9.7-.5.2-1,.2-2,.1-.7-.7-.9-1.2-1.1-1.7-.1-.4-.1-.8,0-1.1.2-.3.4-.5.9-.7.5-.2,1-.2,2-.1"/>
      <path class="cls-17" d="M483.1,412.3c.9.3,1.4.6,1.8.9.3.3.5.7.5,1,0,.3-.1.7-.4,1.1-.3.4-.8.7-1.7,1.1-.9-.3-1.4-.6-1.8-.9-.3-.3-.5-.7-.5-1,0-.3.1-.7.4-1.1.3-.4.8-.7,1.7-1.1"/>
      <path class="cls-17" d="M463.1,418.8c.9-.2,1.5-.2,2,0,.5.1.8.3,1,.6.2.3.3.7.2,1.1,0,.5-.3,1-.9,1.8-.9.2-1.5.2-2,0-.5-.1-.8-.3-1-.6-.2-.3-.2-.7-.2-1.1,0-.5.3-1,.9-1.8"/>
      <path class="cls-17" d="M449,434.5c.7-.6,1.2-.9,1.7-1.1.5-.1.8-.1,1.1,0,.3.2.5.4.7.9.2.5.2,1,.1,2-.7.7-1.2.9-1.7,1.1-.5.1-.8.1-1.1,0-.3-.2-.5-.4-.7-.9-.2-.5-.2-1-.1-2"/>
      <path class="cls-17" d="M444.6,455.1c.3-.9.6-1.4.9-1.8.3-.3.7-.5,1-.5.3,0,.7.1,1.1.4.4.3.7.8,1.1,1.7-.3.9-.6,1.4-.9,1.8-.3.3-.7.5-1,.5-.3,0-.7-.1-1-.4-.4-.3-.7-.8-1.1-1.7"/>
      <path class="cls-17" d="M451.1,475.2c-.2-.9-.2-1.5,0-2,.1-.5.3-.8.6-1,.3-.2.7-.3,1.1-.2.5,0,1,.3,1.8.9.2.9.2,1.5,0,2-.1.5-.3.8-.6,1-.3.2-.7.2-1.1.2-.5,0-1-.3-1.8-.9"/>
      <path class="cls-17" d="M466.8,489.3c-.6-.7-.9-1.2-1.1-1.7-.1-.4-.1-.8,0-1.1.2-.3.4-.5.9-.7.5-.2,1-.2,2-.1.7.7.9,1.2,1.1,1.7.1.4.1.8,0,1.1-.2.3-.4.5-.9.7-.5.2-1,.2-2,.1"/>
      <path class="cls-17" d="M487.4,493.7c-.9-.3-1.4-.6-1.8-.9-.3-.3-.5-.7-.5-1,0-.3.1-.7.4-1.1.3-.4.8-.7,1.7-1.1.9.3,1.4.6,1.8.9.3.3.5.7.5,1,0,.3-.1.7-.4,1.1-.3.4-.8.7-1.7,1.1"/>
      <path class="cls-17" d="M507.5,487.1c-.9.2-1.5.2-2,0-.5-.1-.8-.3-1-.6-.2-.3-.3-.7-.2-1.1,0-.5.3-1,.9-1.8.9-.2,1.5-.2,2,0,.5.1.8.3,1,.6.2.3.2.7.2,1.1,0,.5-.3,1-.9,1.8"/>
      <path class="cls-17" d="M521.6,471.5c-.7.6-1.2.9-1.7,1.1-.5.1-.8.1-1.1,0-.3-.2-.5-.4-.7-.9-.2-.5-.2-1-.1-2,.7-.7,1.2-.9,1.7-1.1.5-.1.8-.1,1.1,0,.3.2.5.4.7.9.2.5.2,1,.1,2"/>
      <path class="cls-17" d="M526,450.8c-.3.9-.6,1.4-.9,1.8-.3.3-.7.5-1,.5-.3,0-.7-.1-1.1-.4-.4-.3-.7-.8-1.1-1.7.3-.9.6-1.4.9-1.8.3-.3.7-.5,1-.5.3,0,.7.1,1.1.4.4.3.7.8,1.1,1.7"/>
      <path class="cls-17" d="M519.5,430.8c.2.9.2,1.5,0,2-.1.5-.3.8-.6,1-.3.2-.7.2-1.1.2-.5,0-1-.3-1.8-.9-.2-.9-.2-1.5,0-2,.1-.5.3-.8.6-1,.3-.2.7-.2,1.1-.2.5,0,1,.3,1.8.9"/>
      <g class="cls-3">
        <g class="cls-14">
          <path class="cls-5" d="M503.8,416.6c20.8,10.6,29.3,35.8,19.3,56.8.2-.3.3-.6.5-.9,10.8-21.2,2.4-47.1-18.8-57.8-21.2-10.8-47.1-2.4-57.8,18.8-.2.3-.3.6-.5,1,11.1-20.4,36.5-28.4,57.3-17.8"/>
        </g>
      </g>
      <path class="cls-7" d="M482.4,453.7c-.2.9.5,1.8,1.3,2,1.1.2,2.2-.9,2-2-.1-.7-.8-1.3-1.6-1.3-.8,0-1.6.5-1.8,1.4"/>
      <rect class="cls-13" x="465.7" y="400.1" width="12.3" height="8.8" transform="translate(-60.5 83.8) rotate(-9.5)"/>
      <path class="cls-23" d="M458.2,404.8c-1.7-.4-1.5-16,10.3-18.3,9.2-1.9,17.5,11.4,15.5,13.8-1.8,2.2-14.4,7.5-25.8,4.6"/>
      <path class="cls-6" d="M469.3,389.2c4.7-.7,9,3.1,10.8,7.2.2.6.5,1.2.7,1.8-.4-.5-.7-1.1-1.1-1.6-2.5-3.6-5.9-6.8-10.3-7.4"/>
      <rect class="cls-13" x="525.9" y="421.2" width="8.8" height="12.3" transform="translate(-143.1 325.3) rotate(-30.2)"/>
      <path class="cls-23" d="M525.1,414.6c-.2-1.7,14.4-7,20.8,3.2,5,8-4.5,20.4-7.4,19.4-2.7-1-12.1-10.8-13.4-22.5"/>
      <path class="cls-6" d="M543.7,419.6c2.3,4.2.3,9.5-2.9,12.6-.5.4-1,.9-1.5,1.3.4-.6.7-1,1.1-1.6,2.5-3.6,4.2-7.9,3.3-12.3"/>
    </g>
  </g>
</svg>