<?xml version="1.0" encoding="UTF-8"?>
<svg id="Layer_1" data-name="Layer 1" xmlns="http://www.w3.org/2000/svg" version="1.1" viewBox="0 0 71.1 71.1">
  <defs>
    <style>
      .cls-1 {
        fill: #e21e26;
      }

      .cls-1, .cls-2 {
        stroke-width: 0px;
      }

      .cls-2 {
        fill: #fff;
      }
    </style>
  </defs>
  <path class="cls-2" d="M8.5,2.1s-.8-1.1,0-1.6c.5-.3.8-.6,1.7.5,0,0,6.5,9.1,6.8,9.5s2.4,3.3,6.6,7.9c.2.2,7.2,11.5,7.2,11.5,0,0,5.1,9.5,21.2,24.2.4.3,5.3,5,13.9,11,.5.3,6,3.3,4.7,4.8-.4.5-1.8,2.6-14.8-7.1-1.1-.8-16.6-12.2-30.6-31.6-.8-1.1-5.3-7.9-6.1-9.9-.2-.5-3.1-7.1-4.5-9.2-.3-.4-2.5-4.6-6-10"/>
  <path class="cls-1" d="M69.3,70.8c-1.6,0-5.2-1.3-13.7-7.7-1.1-.8-16.6-12.2-30.7-31.7-.8-1.1-5.3-7.9-6.1-9.9-.2-.5-3.1-7.1-4.5-9.2-.4-.6-2.6-4.7-6.1-10.1h0c0,0-.4-.6-.4-1.1s0-.6.4-.8c.2,0,.4-.3.8-.3s.8.3,1.2.9c0,0,6.5,9.1,6.8,9.5s2.4,3.3,6.5,7.9c.2.3,7.3,11.5,7.3,11.5,0,0,1.3,2.4,4.6,6.6s8.6,10.3,16.6,17.6c.4.3,5.3,5,13.9,11,.2,0,1.4.8,2.6,1.7,1.2.9,2.4,1.8,2.4,2.8s0,.5-.3.7c0,0-.4.6-1.3.6h0ZM14.8,12.1c1.4,2.2,4.3,8.7,4.5,9.2.8,1.9,5.3,8.8,6.1,9.9,14,19.4,29.5,30.8,30.6,31.6,8.5,6.3,12,7.6,13.4,7.6s.9-.3,1-.4,0-.2,0-.4c0-.6-1-1.6-2.2-2.4s-2.4-1.5-2.6-1.7c-8.6-6-13.6-10.7-14-11.1-16.2-14.7-21.3-24.3-21.3-24.3,0,0-1.8-2.8-3.6-5.7-1.8-2.8-3.6-5.8-3.6-5.8-4.2-4.6-6.3-7.6-6.6-7.9-.3-.4-6.8-9.5-6.8-9.5-.4-.6-.7-.7-.9-.7s-.3,0-.5.3c-.2,0-.2.2-.2.4,0,.4.3.9.3.9h-.2.2c3.7,5.3,5.9,9.5,6.3,10"/>
  <path class="cls-2" d="M10.5,5.6s1.1-.2,2-1.3c0,0-1.8-3.4-2.4-3.5-.5,0-1.8.8-1.9,1.4,0,.3,0,.4,2.3,3.4"/>
  <path class="cls-1" d="M10.4,5.7c-2-2.7-2.3-3-2.3-3.4v-.2c0-.7,1.3-1.5,2-1.5h0c.5,0,1,1,1.5,1.9s1,1.7,1,1.7h0v.2c-1,1.2-2.2,1.4-2.3,1.3h0ZM10.5,5.6h0,0ZM8.4,2.2q0,0,0,0c0,.3.2.7,2.2,3.3.3,0,1.1-.4,1.7-1.2,0-.2-.5-.9-.9-1.6-.5-.9-1.2-1.8-1.3-1.7h0c-.5,0-1.7.8-1.7,1.2"/>
  <path class="cls-1" d="M9,2.2c0-.3.3-.6.6-.6s.6.3.6.6-.3.6-.6.6h0v-.3c.2,0,.3,0,.3-.3s0-.3-.3-.3-.3,0-.3.3,0,.3.3.3v.4c-.3,0-.6-.4-.6-.7"/>
  <path class="cls-1" d="M11.9,7.5s1.2-.3,1.8-1.3l.3.2c-.7,1.1-2,1.4-2,1.4h0v-.3h0Z"/>
  <polygon class="cls-1" points="10.8 5.9 10.9 5.4 11.2 5.5 11.1 5.9 10.8 5.9"/>
  <rect class="cls-1" x="10.6" y="5.7" width=".9" height=".3" transform="translate(2.9 15.4) rotate(-77.1)"/>
  <rect class="cls-1" x="10.7" y="5.7" width="1.6" height=".3" transform="translate(3.3 15.8) rotate(-77.4)"/>
  <rect class="cls-1" x="10.8" y="5.7" width="2.2" height=".3" transform="translate(3.7 16.4) rotate(-78.1)"/>
  <polygon class="cls-1" points="11.7 7.5 12.3 4.5 12.6 4.5 11.9 7.5 11.7 7.5"/>
  <rect class="cls-1" x="11" y="6" width="2.9" height=".3" transform="translate(3.9 17.1) rotate(-78.3)"/>
  <rect class="cls-1" x="11.6" y="6.1" width="2.5" height=".3" transform="translate(4.2 17.6) rotate(-78.7)"/>
  <rect class="cls-1" x="11.9" y="6.2" width="2" height=".3" transform="translate(4.2 17.8) rotate(-79.1)"/>
  <rect class="cls-1" x="12.6" y="6.3" width="1.4" height=".3" transform="translate(4.6 18.4) rotate(-79.9)"/>
  <rect class="cls-1" x="13.1" y="6.3" width=".9" height=".3" transform="translate(5 18.7) rotate(-80.4)"/>
  <rect class="cls-1" x="13.7" y="6.4" width=".3" height=".3" transform="translate(5.4 19.3) rotate(-81.9)"/>
  <path class="cls-1" d="M15.7,14.5c.4-1.6.4-3.3.4-4.1v-.4h-.2c-1.7,0-3.2-.7-3.2-.7h0v-.2c0-.6.2-1.1.2-1.4v-.4h.3v.5c0,.3,0,.8,0,1.4,0,.1.4.2.8.3.6.2,1.3.3,2.1.3h.4v.7c0,.8,0,2.5-.4,4.1h-.2ZM12.8,7.3h0Z"/>
  <path class="cls-1" d="M13.6,10.8c.3-1.2.4-2.3.4-3.1v-.9h.3v.9c0,.8,0,2-.4,3.2h-.3ZM14,6.8h0Z"/>
  <path class="cls-1" d="M14.6,12.4c.4-1.6.4-3.5.4-4h0c0-.1.3-.1.3-.1h0c0,.6,0,2.6-.5,4.2h-.2ZM15.1,8.3h0Z"/>
  <path class="cls-1" d="M17.5,18.1h0c.3-1.6.3-2.9.3-3.9,0-1.5,0-2.4,0-2.4h.3c0-.1.2.8.2,2.3s0,2.3-.3,3.8c.3.2,1.8,1.2,3.5,1.5v.3c-2.1-.3-3.8-1.5-3.8-1.6"/>
  <path class="cls-1" d="M21.5,19.5h0ZM21.2,19.5c0-.8.2-1.5.2-2s0-1,0-1h.3s0,.4,0,1.1,0,1.2-.2,2h-.3Z"/>
  <path class="cls-2" d="M19,21.6s1.9-2.3,4.5-3.2c0,0,.9,1,1.5,2.3,0,0-2.6,1.1-4.6,3.4,0,0-1.1-1.2-1.4-2.5"/>
  <path class="cls-1" d="M20.2,24.1s-1-1.2-1.4-2.5h.2c0,.1,0,0,0,0h0c0-.1,0-.2,0-.2,0,0,1.9-2.3,4.6-3.3h.2c0,.1,1,1.1,1.5,2.4h0c0,.1,0,.2,0,.2,0,0-2.5,1-4.6,3.4h0c0,.1-.3,0-.3,0ZM20.3,23.8c1.8-1.9,3.9-3,4.4-3.2-.4-1-1.1-1.8-1.3-2-2.3.9-4,2.7-4.3,3.1.3.9,1,1.8,1.2,2.1"/>
  <path class="cls-1" d="M19,21.8h0c0-.1,1.9-2.3,4.4-3.3v.3c-2.4.9-4.2,3.1-4.2,3.1h0c0,.1-.2,0-.2,0h0Z"/>
  <path class="cls-1" d="M20.2,23.9c0,0,0,0,0-.1l-.7-2.3c0,0,0-.1,0-.2h.2l1.7.8-.4-2c0,0,0-.1,0-.1h.2l1.7,1-.3-1.8c0,0,0-.1,0-.1h.2l1.9,1.3h0c0,0,.2,0,.2.1s0,.2,0,.2c0,0,0,0,0,.1h0c-.7.3-2.6,1.3-4.4,3.2-.1,0-.2,0-.3-.1h0M20.3,23.4c.3-.3.6-.6,1-.9l-1.5-.7.5,1.6ZM21.6,22.2c.4-.3.8-.6,1.2-.9l-1.6-.9.4,1.8ZM23.1,21.1c.5-.3.9-.5,1.3-.7l-1.5-1,.2,1.7Z"/>
  <path class="cls-1" d="M12.4,7.7h0v-.3c0,0,1,.5,2.3.5h.3v.3h-.3c-1.4,0-2.3-.5-2.3-.5"/>
  <path class="cls-1" d="M14,11.5v-.3c0,0,1.3.6,3.2.6h.6v.3h-.6c-1.9,0-3.2-.6-3.2-.6"/>
  <path class="cls-1" d="M18.9,21.4c.6-2.5.7-4.8.7-6.1v-.9c-2.6-.1-4.4-.9-4.4-.9v-.3c0,0,1.9.8,4.5.9h0v1.2c0,1.3,0,3.6-.7,6.1,0,0-.2,0-.2,0Z"/>
  <path class="cls-1" d="M16.4,15.8v-.3c0,0,2.7,1.3,6.2,1.8v.3c-3.6-.4-6.2-1.7-6.2-1.8M16.4,15.8h0Z"/>
  <path class="cls-1" d="M18.7,20.9v-.3c0,0,.2.1.4.1.2.1.3.1.4.1v.3c-.3.1-.8-.2-.8-.2"/>
  <path class="cls-1" d="M25,30.4s0,0-.2-.2c0-.2-.3-.4-.5-.7-.4-.6-.9-1.4-1.4-2.1-1-1.6-2-3.1-2-3.1h0c0-.1,0,0,0,0h0c0-.1,0,0,0,0v-.2s2-2.1,3.8-2.6c0,0,.1,0,.2.1l3.9,6.3h0c0,.1,0,.2,0,.2,0,0-2.2.6-3.5,2.5h0v-.2M23.1,27c.8,1.3,1.7,2.7,2.1,3.1,1.1-1.5,2.8-2.2,3.3-2.4l-3.7-6c-1.4.4-3.1,2-3.5,2.4.2.4,1,1.7,1.8,2.9"/>
  <path class="cls-1" d="M25,29.8c-.7-1-2.4-3.6-3.5-5.5h0c0-.1,0-.2,0-.2.5-.5,1.8-1.7,3-2.1h0l3.6,5.8h-.2c-.7.4-1.9,1-2.8,2.1h0c0,0,0,0,0,0ZM25.2,29.5c.9-1,2-1.6,2.7-1.9l-3.3-5.3c-1,.4-2.2,1.4-2.7,1.9,1,1.8,2.6,4.2,3.3,5.3"/>
  <path class="cls-1" d="M25.2,28.1c-.6-1-1.5-2.3-2.3-3.6h0c0-.1,0-.2,0-.2.4-.4.8-.7,1.2-.9h0c0-.1,2.5,3.9,2.5,3.9h0c-.4.3-.8.6-1.1.9h0c0,.1-.2,0-.2,0h0ZM25.4,27.8c.3-.3.6-.5.9-.6l-2.1-3.5c-.3.2-.6.4-.9.7.7,1.2,1.5,2.5,2.1,3.4M24.1,23.6h0c0-.1,0,0,0,0Z"/>
  <path class="cls-1" d="M25.9,27.8l-1.2-.3.2-.2c0-.1.2-.2.4-.3l-1.4-2.3c0,.1-.2.1-.3.2l-.3.3.2-1.4v-.2c0,0,0,0,0,0h0c0-.1,0,0,0,0l1.3.4-.3.2c0,.1-.2.1-.3.2l1.4,2.3c0-.1.2-.1.4-.2l.3-.2-.2,1.3h0c0,.1,0,.1,0,.1v.2h-.3,0ZM25.5,27.4h0c0-.1,0,0,0,0h0ZM25.9,27.1h0q0,0,0,0h0ZM23.7,24.5h0ZM24.1,24.3h0Z"/>
  <path class="cls-1" d="M21.9,24.2c0-.3.2-.5.5-.5s.5.2.5.5-.2.5-.5.5h0v-.2c0,0,.2-.1.2-.2s0-.2-.2-.2-.2.1-.2.2,0,.2.2.2h0v.2c-.2,0-.5-.2-.5-.5"/>
  <path class="cls-1" d="M22.8,23.5c0-.3.2-.5.5-.5s.5.2.5.5-.2.5-.5.5h0v-.2c0,0,.2-.1.2-.2s0-.2-.2-.2-.2.1-.2.2,0,.2.2.2h0v.2c-.3,0-.5-.3-.5-.5"/>
  <path class="cls-1" d="M23.8,22.9c0-.3.2-.5.5-.5s.5.2.5.5-.2.5-.5.5h0v-.2c0,0,.2-.1.2-.2s0-.2-.2-.2-.2.1-.2.2,0,.2.2.2h0v.2c-.3,0-.5-.2-.5-.5"/>
  <path class="cls-1" d="M24.5,23.8c0-.3.2-.5.5-.5s.5.2.5.5-.2.5-.5.5v-.2h0c0-.1.2-.2.2-.3s0-.2-.2-.2-.2.1-.2.2,0,.2.2.2h0v.2c-.3.1-.5-.2-.5-.4"/>
  <path class="cls-1" d="M25.1,24.7c0-.3.2-.5.5-.5s.5.2.5.5-.2.5-.5.5v-.2h0c0-.1.2-.2.2-.3s0-.2-.2-.2-.2.1-.2.2,0,.2.2.2h0v.2c-.3.1-.5-.1-.5-.4"/>
  <path class="cls-1" d="M25.7,25.7c0-.3.2-.5.5-.5s.5.2.5.5-.2.5-.5.5v-.2h0c0-.1.2-.2.2-.3s0-.2-.2-.2-.2.1-.2.2,0,.2.2.2h0v.2c-.3.1-.5-.2-.5-.4"/>
  <path class="cls-1" d="M26.2,26.6c0-.3.2-.5.5-.5s.5.2.5.5-.2.5-.5.5h0v-.2c0,0,.2-.1.2-.2s0-.2-.2-.2-.2.1-.2.2,0,.2.2.2h0c-.2.1-.5,0-.5-.3"/>
  <path class="cls-1" d="M26.7,27.4c0-.3.2-.5.5-.5s.5.2.5.5-.2.5-.5.5h0v-.2c0,0,.2-.1.2-.2s0-.2-.2-.2-.2.1-.2.2,0,.2.2.2h0v.2c-.3,0-.5-.2-.5-.5"/>
  <path class="cls-1" d="M25.8,28c0-.3.2-.5.5-.5s.5.2.5.5-.2.5-.5.5h0v-.2c0,0,.2-.1.2-.2s0-.2-.2-.2-.2.1-.2.2,0,.2.2.2h0v.2c-.3,0-.5-.2-.5-.5"/>
  <path class="cls-1" d="M24.8,28.7c0-.3.2-.5.5-.5s.5.2.5.5-.2.5-.5.5v-.2h0c0-.1.2-.2.2-.3s0-.2-.2-.2-.2.1-.2.2,0,.2.2.2h0v.3c-.3,0-.5-.2-.5-.5"/>
  <path class="cls-1" d="M24.2,28c0-.3.2-.5.5-.5s.5.2.5.5-.2.5-.5.5h0v-.2c0,0,.2-.1.2-.2s0-.2-.2-.2-.2.1-.2.2,0,.2.2.2h0v.2c-.3-.1-.5-.3-.5-.5"/>
  <path class="cls-1" d="M23.6,27.1c0-.3.2-.5.5-.5s.5.2.5.5-.2.5-.5.5h0v-.2c0,0,.2-.1.2-.2s0-.2-.2-.2-.2.1-.2.2,0,.2.2.2h0v.2c-.3,0-.5-.2-.5-.5"/>
  <path class="cls-1" d="M23,26.2c0-.3.2-.5.5-.5s.5.2.5.5-.2.5-.5.5v-.2h0c0-.1.2-.2.2-.3s0-.2-.2-.2-.2.1-.2.2,0,.2.2.2h0v.2c-.2,0-.5-.2-.5-.4"/>
  <path class="cls-1" d="M22.5,25.3c0-.3.2-.5.5-.5s.5.2.5.5-.2.5-.5.5h0v-.2c0,0,.2-.1.2-.2s0-.2-.2-.2-.2.1-.2.2,0,.2.2.2h0v.2c-.3,0-.5-.2-.5-.5"/>
  <path class="cls-1" d="M25,31.3s1.7-2.5,4.6-3.1v.3c-2.6.5-4.3,2.9-4.3,2.9h-.3,0Z"/>
  <path class="cls-1" d="M26.7,33.3c.4-.5,1.9-2.3,4.2-2.9v.3c-2.1.5-3.6,2.3-3.9,2.8,0,0-.3-.2-.3-.2Z"/>
  <path class="cls-1" d="M27,33.8c.4-.5,1.9-2.3,4.2-2.9v.3c-2.1.5-3.6,2.3-3.9,2.8,0,0-.3-.2-.3-.2Z"/>
  <path class="cls-1" d="M27.3,34.2c.4-.5,1.9-2.3,4.1-2.9v.3c-2.1.5-3.5,2.3-3.9,2.7h-.2Z"/>
  <path class="cls-1" d="M27.9,34.8h0ZM27.6,34.6c.4-.5,1.8-2.3,4.1-2.8v.3c-2.1.5-3.5,2.3-3.9,2.7l-.2-.2Z"/>
  <path class="cls-1" d="M28,35c.4-.5,1.8-2.3,4.1-2.8v.3c-2,.5-3.5,2.3-3.8,2.7,0,0-.3-.2-.3-.2Z"/>
  <path class="cls-1" d="M28.5,35.6h0ZM28.3,35.4c.4-.5,1.8-2.2,4.1-2.8v.3c-2,.5-3.5,2.3-3.8,2.7,0,0-.3-.2-.3-.2Z"/>
  <path class="cls-1" d="M28.6,35.8c.4-.5,1.8-2.2,4.1-2.8v.3c-2,.5-3.5,2.2-3.8,2.7h0s-.3-.2-.3-.2Z"/>
  <path class="cls-1" d="M29,36.3c.4-.5,1.8-2.2,4-2.8v.3c-2,.5-3.4,2.2-3.8,2.7h0l-.2-.2Z"/>
  <path class="cls-1" d="M29.5,36.8h0ZM29.3,36.7c.3-.5,1.8-2.2,4-2.8v.3c-2,.5-3.4,2.2-3.7,2.6h-.3Z"/>
  <path class="cls-1" d="M29.6,37.1c.3-.4,1.8-2.2,4-2.7v.3c-2,.5-3.4,2.2-3.7,2.6h0s-.3-.2-.3-.2Z"/>
  <path class="cls-1" d="M29.9,37.5c.3-.4,1.8-2.2,3.9-2.7v.3c-2,.5-3.4,2.2-3.7,2.6h0s-.2-.2-.2-.2Z"/>
  <path class="cls-1" d="M30.3,37.9c.3-.4,1.8-2.2,3.9-2.7v.3c-2,.5-3.3,2.2-3.7,2.6h0s-.2-.2-.2-.2Z"/>
  <path class="cls-1" d="M30.6,38.3c.3-.4,1.7-2.1,3.9-2.7v.3c-1.9.5-3.3,2.2-3.6,2.6,0,0-.3-.2-.3-.2Z"/>
  <path class="cls-1" d="M30.9,38.8c.3-.4,1.7-2.1,3.9-2.7v.3c-1.9.5-3.3,2.1-3.6,2.5h-.3Z"/>
  <path class="cls-1" d="M31.2,39.2c.3-.4,1.7-2.1,3.8-2.6v.3c-1.9.5-3.3,2.1-3.6,2.5h0s-.2-.2-.2-.2Z"/>
  <path class="cls-1" d="M31.6,39.6c.3-.4,1.7-2.1,3.8-2.6v.3c-1.9.5-3.2,2.1-3.5,2.5h0l-.3-.2Z"/>
  <path class="cls-1" d="M31.9,40c.3-.4,1.7-2.1,3.8-2.6v.3c-1.9.5-3.2,2.1-3.5,2.5l-.3-.2Z"/>
  <path class="cls-1" d="M41.1,46.9c-.3,0-.5-.2-.6-.2h0v-.4c0-1.2-1-1.6-1-1.6h0q0,0,0-.2c0-.2,0,0,.2,0,0,0,1.2.5,1.2,1.9v.2h.3c0,0,.2,0,.4-.2h.2c0,0,0,.2,0,.2-.2.2-.4.3-.6.3h0Z"/>
  <path class="cls-1" d="M40.9,48.5s0-.2,0-.2h.2c.2.3.3.3.4.3h0c0,0,0-.2,0-.3h0v-.3c0-.6.5-.8.5-.8h.2s0,.2,0,.2c0,0-.2,0-.2.5v.3h0c0,.4-.2.7-.5.8-.4,0-.6-.2-.8-.5"/>
  <path class="cls-1" d="M45,50q0,0,0-.2v-.2c0-.2,0-.4,0-.5,0,.5-.4.7-.8.7s-.7-.3-.9-.4c-.4-.5-1.3-.6-1.3-.6h0q0,0,0-.2c0-.2,0-.2.2,0,0,0,1,0,1.5.7,0,0,.4.3.6.3s.4,0,.5-.7c0,0,0-.2.2-.2.3,0,.2.2.3.4s0,.4,0,.7,0,.3,0,.4c0-.2,0,0,0,0h0"/>
  <path class="cls-1" d="M47.2,53.8h0c0-.6-1.1-.8-1.5-1.2-.4-.5-.5-.9-.5-1.2,0-.6.4-.9.4-.9h.2c0,0,0,.2,0,.2,0,0-.3.2-.3.7s0,.6.4,1c0,.2.9.3,1.4.8v-.4c0-.2,0-.4,0-.5s0-.2-.2-.2h-.2s0-.2,0-.2h0c.5,0,.6.6.6,1s0,.9,0,1,0,0-.2,0h0v-.2Z"/>
  <path class="cls-1" d="M47.9,53.9c0-.3.2-.5.4-.6h.3c0-.2,0-.3,0-.4,0-.3-.5-.4-.5-.4q0,0,0-.2c0-.2,0,0,.2,0,0,0,.7,0,.8.7,0,.2,0,.3-.2.5-.2.2-.4.2-.5.3,0,0,0,0,0,.3v.2c0,0-.4,0-.4-.2"/>
  <path class="cls-1" d="M50.1,55.9q0,0,0-.2v-.6c0-1.6-1.2-1.8-1.2-1.8h0q0,0,0-.2c0-.2,0,0,.2,0,0,0,1.5.3,1.5,2.1s0,.4,0,.7h-.2"/>
  <path class="cls-1" d="M50.7,57.8q0,0,0-.2v-.5c0-1.3-1.2-1.4-1.2-1.4q0,0,0-.2c0-.2,0-.2.2,0,0,0,1.4.2,1.4,1.7v.5s0,.2-.2.2h0"/>
  <path class="cls-1" d="M53.6,58.2c-.3-1.3-1.1-1.6-1.8-1.6s-1,.2-1,.2h-.2s0-.2,0-.2c0,0,.5-.2,1.1-.2s1.8.4,2.1,1.8c0,0,0,.2,0,.2h0c0,0-.2,0-.2,0"/>
  <path class="cls-1" d="M53.3,60v-.2h.2c0,.2.2.2.2.2h.3c.3,0,.4-.9.4-1.5v-.2c-.3.3-.8.3-1.1.3h-.4q0,0,0-.2c0-.2,0,0,.2,0h.4c.5,0,1,0,1.1-.5h.2v.7c0,.6,0,1.4-.6,1.7-.2,0-.3.2-.5.2h0s-.2,0-.3-.3"/>
  <path class="cls-1" d="M54.7,60.1c0-.2-.2-.3-.2-.5,0-.5.5-.6.5-.6h.2s0,.2,0,.2c0,0-.3.2-.3.3s0,.2,0,.3.6.3,1,.3.6,0,.7-.2c0,0,0-.2,0-.2,0,0-.1,0-.3-.2q0,0,0-.2c0-.2,0,0,.2,0,.3,0,.5.3.5.5s0,.3,0,.4c-.2.3-.6.4-.9.4-.5,0-1-.3-1.3-.5"/>
  <path class="cls-1" d="M57.4,60.6h0c0-.6-.2-.5-.4-.6h-.4s0-.2,0-.2h.3c0,0,.3,0,.4.2s.2.3.2.6h0c0,.2,0,.3,0,.3,0,0,0,0,0-.2"/>
  <path class="cls-1" d="M59.9,64h0c0-.3,0-.2-.4-.3-1-.4-1.8-.9-1.9-1.5,0-.3,0-.5.2-.6,0,0,.3-.2.4-.2.3,0,.5.2.5.2h0q0,0,0,.2c0,.2,0,0-.2,0h-.4c-.1,0-.2,0-.3.5,0,.2.7.9,1.6,1.2.2,0,.3,0,.4.2v-.5c0-.3,0-.5-.2-.7v-.2h.2c.2.3.2.6.2.8,0,.4,0,.7,0,.9,0,0,0,0-.2.2.3,0,.2,0,.2,0"/>
  <path class="cls-2" d="M64,63.6c0,0,1.6,1.3,3,2.1.7.4,2.8,1.6,3.7,3.1,0,.2.9,1.6-1.1,1.9-.2,0-1.9.4-7.2-2.9-.2,0-3.2-2-3.9-2.6,0,0,.3-.6.9-.5,0,0,.2-.5.8-.4,0,0,.3-.4.9-.3,0,0,.3-.4.8-.2,0,0,.5-.3.8-.2,0,0,.3-.3.5-.3.3.2.4,0,.8.3"/>
  <path class="cls-1" d="M62.3,68c-.2-.2-3.1-2-3.9-2.7,0,0,0-.2,0-.3,0,0,.3-.6.9-.6h0c0-.2.4-.4.8-.4h0c0,0,.4-.3.7-.3h.2c0,0,.3-.3.6-.3h.2c0,0,.4-.2.6-.2h0c0,0,.3-.2.5-.3h0c0,0,.3,0,.7.3v.2c0,0-.2.2-.2.2-.3-.2-.3,0-.6-.2h0l-.2.2h-.4c-.2,0-.5.2-.5.2h-.6c0,.2,0,.2-.2.2h-.7c0,.2,0,.2-.2.2h-.6c0,.2-.2.3-.3.2h0c-.2,0-.3,0-.4.2.9.7,3.5,2.3,3.7,2.5,4.2,2.6,6.1,2.9,6.7,2.9h.3c1-.2,1.1-.6,1.1-.9s-.2-.6-.2-.7c-.8-1.4-2.9-2.6-3.6-3-1.5-.8-3-2-3.1-2.1v-.2c0,0,.2-.2.2-.2,0,0,1.6,1.3,3,2.1.7.4,2.8,1.6,3.7,3.2,0,0,.3.5.3.9,0,.6-.4,1.2-1.5,1.4h-.4c-.7,0-2.7-.3-6.9-2.9"/>
  <path class="cls-1" d="M69.1,70.2c-.3,0-.6,0-1.1-.3-.3,0-3-.9-7.9-4.4h.2-.3c0-.1,0-.2,0-.2,0,0,1.7-.9,3.5-.9h.5s1.4,1.2,4.1,2.8c.2.2,1.9,1.4,2,2.1h0c0,.3-.3.9-1.1.9h0ZM68.2,69.6c.4.2.7.2.9.2.6,0,.8-.4.8-.5h0c0-.3-1.7-1.8-1.8-1.8-2.5-1.5-3.9-2.6-4.1-2.8h-.3c-1.3,0-2.6.5-3.1.8,4.7,3.3,7.3,4,7.6,4.1"/>
  <path class="cls-1" d="M62.2,66.4c-.2-.2-.3-.4-.3-.5,0,0-.3,0-.5-.2,0,0-.3-.2-.6-.2h-.6s0-.2,0-.2c0,0,.6-.2,1.1-.2s.6,0,.8.2c.4.3.6.9,1,1,0,0,.2,0,.2.2s0,.2-.2.2h-.3c0,0-.4,0-.7-.2M62.4,66.2c0,0,.4.2.6.2-.4-.3-.5-.7-.8-.9,0,0-.4-.2-.6-.2h0,.7c0,.3,0,.5.2.7M60.5,65.5h0Z"/>
  <path class="cls-1" d="M63.9,66.3c-.7,0-1.3-.5-1.4-.5h0c0-.2-.2-.2-.3-.3s0-.2,0-.2h.2c.4.3,1,.4,1.3.4h.4c.2,0,.4,0,.4.3s0,.2,0,.2h-.4ZM63.9,66h.3-.4,0"/>
  <path class="cls-1" d="M61.8,65.3q0,0,0-.2c0-.2,0,0,.2,0h1c.5,0,.3,0,.4-.3,0,0,0-.2.2-.2h0c.2,0,.5,0,.5.4s0,.3-.2.4c-.2.2-.5.2-.7.2-.7,0-1.4-.3-1.4-.3M61.8,65.3v-.2.2ZM63.5,65.1s0,0,0,.2h.4-.3q0,0,0,0"/>
  <path class="cls-1" d="M65.8,68.4h-.5v-.3h0s0,0-.2-.2c0,0,0,0,0-.2v-.3c0-.2,0-.4.2-.4,0-.3,0-1-1.4-1.2v-.2.2-.2.2h0v-.2h.5c.3,0,.7,0,1,.4s.6.8.6,1.7h0c0,.3.2.4.4.4h.4c0,.3,0,.3-.2.4,0,0-.3.2-.5.2h0M65.9,68.1h.2c-.3,0-.6-.2-.6-.6h0v-.4h0v.2h0s0,0,.2.2c0,0,0,0,0,.2h0v.2h.2c0,0,0,0,0,0"/>
  <path class="cls-1" d="M64.1,67.5c-.2,0-.3-.2-.3-.3s0-.3.3-.3c0-.2.2-.2.3-.2s.3,0,.4.2c.2,0,.3.2.3.3s0,.3-.3.3c0,.2-.2.2-.3.2-.2,0-.4,0-.4-.2M64.4,67.4h0M64.1,67.1h0q0,0,0,0t0,0h0M64.7,67.2h0M64.7,67.1h0ZM64.4,66.9h0s0,0,0,0q0,0,0,0h0"/>
  <path class="cls-1" d="M64.4,66.6c0,0,0-.2,0-.2,0,0,0-.2,0-.2h.4c0,0,0,.2,0,.2,0,0,0,.2,0,.2h-.4"/>
  <path class="cls-1" d="M65.9,68.8c0,0,0-.2,0-.2,0,0,0-.2,0-.2h.4c0,0,0,.2,0,.2,0,0,0,.2,0,.2h-.2c0,0,0,0-.2,0"/>
  <path class="cls-1" d="M63.3,67.2c0,0,0-.2,0-.2,0,0,0-.2,0-.2h.4c0,0,0,.2,0,.2,0,0,0,.2,0,.2h-.4"/>
  <path class="cls-1" d="M65.8,66.7c0,0-.2-.2-.2-.3s0-.2.2-.3c0,0,.2-.2.3-.2s.2,0,.3.2c0,0,.2.2.2.3s0,.2-.2.3c0,0-.2.2-.3.2-.2,0-.3,0-.3-.2"/>
  <path class="cls-1" d="M69.4,69.5c0,0-.2-.2-.2-.3s0-.2.2-.3c0,0,.2-.2.3-.2s.2,0,.3.2c0,0,.2.2.2.3s0,.2-.2.3c0,0-.2.2-.3.2s-.3,0-.3-.2"/>
  <path class="cls-1" d="M67.5,69.4c0,0-.2-.2-.2-.3s0-.2.2-.3c0,0,.2-.2.3-.2s.2,0,.3.2c0,0,.2.2.2.3s0,.2-.2.3c0,0-.2.2-.3.2s-.3,0-.3-.2"/>
  <path class="cls-1" d="M64.6,68.1c0,0-.2-.2-.2-.3s0-.2.2-.3c0,0,.2-.2.3-.2s.2,0,.3.2c0,0,.2.2.2.3s0,.2-.2.3c0,0-.2.2-.3.2s-.3,0-.3-.2"/>
  <path class="cls-1" d="M64,65.5c0,0-.2-.2-.2-.3s0-.2.2-.3c0,0,.2-.2.3-.2s.2,0,.3.2c0,0,.2.2.2.3s0,.2-.2.3c0,0-.2.2-.3.2s-.2,0-.3-.2"/>
  <path class="cls-1" d="M66,67.5c-.2,0-.3-.2-.3-.3s0-.3.3-.3c0-.2.2-.2.3-.2s.3,0,.4.2c.2,0,.3.2.3.3s0,.3-.3.3c0,.2-.2.2-.3.2-.2,0-.4,0-.4-.2M66.3,67.5q0,0,0,0t0,0,0,0h0M66,67.2h0q0,0,0,0t0,0h0M66.6,67.2s0,0,0,0q0,0,0,0h0M66.6,67.2h0ZM66.3,67q0,0,0,0t0,0,0,0h0"/>
  <path class="cls-1" d="M67.6,68.3c-.2,0-.3-.2-.3-.3s0-.3.3-.3c0-.2.2-.2.3-.2s.3,0,.4.2c.2,0,.3.2.3.3s0,.3-.3.3c0,.2-.2.2-.3.2-.2,0-.4,0-.4-.2M67.9,68.2h0M67.6,67.9s0,0,0,0t0,0c0,0,0,0,0,0h0M68.2,68h0M68.2,67.9h0ZM67.9,67.7h0"/>
  <path class="cls-1" d="M64,66.9l-.4-.4c0,0,0-.2,0-.2h.2l.4.4c0,0,0,.2,0,.2h-.2"/>
  <path class="cls-1" d="M66.6,69.1c-.2,0-.3-.3-.3-.5,0-.4.3-.8.3-.9.2-.2.2-.4.2-.5v-.4h.2c.3.3.3.5.3.7,0,.3,0,.4,0,.6s0,.3-.2.3h.6v.2c0,.2-.4.4-.7.4,0,.3-.2.3-.3.2M66.9,67.9s-.3.4-.3.7,0,.2,0,.2h.2,0c0,0,0-.2,0-.3h0v-.3h.2c0-.2,0-.4,0-.6h0c0,.2,0,.3,0,.4M66.9,67.1h0,0Z"/>
  <path class="cls-1" d="M69.4,69.8c-.3,0-.5-.2-.6-.6,0,0,0-.2,0-.3h0s0,0,0-.2c-.2,0-.5-.2-.8-.2h-.7s0-.2,0-.2c0,0,.4-.2,1-.2s1.2.2,1.5,1.1v.2s0,.2,0,.2l-.2.2h0ZM69,69.1c0,.2.2.3.3.3h0c0-.3,0-.4-.2-.5v.2h0M67.3,68.7h0,0Z"/>
  <path class="cls-1" d="M68,69.6h0s0,0,0,0c0-.2-.2-.6-.4-.9h0v-.2c-.2-.2,0-.2,0-.2s0,0,.3.2c0,0,.2.2.3.3.2.3.4.5.4.7h0c0,.3,0,.4-.3.4s-.4,0-.4-.3M68.3,69.6h0"/>
  <path class="cls-1" d="M25.5,31.3h0c0,0,1.8-2,3.7-2.6h0l1,1.6h-.2c0,0-1.9,1-3.3,2.5h0l-1.2-1.5ZM26.8,32.6h0,0ZM26.8,32.4c1.1-1.2,2.6-2,3.1-2.2l-.7-1.1c-1.5.5-2.9,1.9-3.2,2.3,0,0,.8,1,.8,1Z"/>
  <path class="cls-1" d="M27.4,32.1l-1.6-.7v-.3c0,0,1.3.5,1.3.5l-.5-1.3v-.2h.2l1.2.7-.4-1.4c0,0,0-.1,0-.2h.2l1.2.8-.2-1.2h.3c0-.1.3,1.5.3,1.5,0,0,0,.1,0,.2h-.2l-1.1-.8.4,1.3s0,0,0,.2h-.2l-1.2-.6.5,1.2v.3h0"/>
  <path class="cls-1" d="M26.1,30.8s0,0,0-.2c0,0,0,0,.2,0l1.3.7-.4-1.3c0,0,0-.1,0-.2h.2l1.2.7-.3-1.3c0,0,0-.1,0-.2h.2l1.6,1-.2.3-1.3-.8.3,1.3s0,0,0,.2c0,0,0,0-.2,0l-1.2-.7.4,1.3s0,0,0,.2c0,0,0,0-.2,0l-1.3-.7.4,1.4h-.3s-.5-1.7-.5-1.7Z"/>
  <path class="cls-2" d="M62.6,2.1s.8-1.1,0-1.6c-.5-.3-.8-.6-1.7.5,0,0-6.5,9.1-6.8,9.5s-2.4,3.3-6.5,7.9c-.2.2-7.2,11.5-7.2,11.5,0,0-5.1,9.5-21.2,24.2-.4.3-5.3,5-13.9,11-.5.3-6,3.3-4.7,4.8.4.5,1.8,2.6,14.8-7.1,1.1-.8,16.6-12.2,30.6-31.6.8-1.1,5.3-7.9,6.1-9.9.2-.5,3.1-7.1,4.5-9.2.2-.4,2.4-4.6,5.9-10"/>
  <path class="cls-1" d="M.4,70.2c-.2-.2-.3-.4-.3-.7,0-1,1.2-1.9,2.4-2.8,1.2-.8,2.4-1.5,2.6-1.7,8.6-6,13.6-10.7,13.9-11,8.1-7.3,13.4-13.4,16.6-17.6,3.3-4.2,4.5-6.6,4.6-6.6,0,0,7-11.3,7.3-11.5,4.2-4.6,6.2-7.5,6.5-7.9S60.8.9,60.8.9C61.3.3,61.6,0,62,0s.5.2.8.3c.3.2.4.5.4.8,0,.6-.4,1.1-.4,1.1-3.5,5.4-5.7,9.5-6.1,10.1-1.4,2.1-4.3,8.6-4.5,9.2-.9,2-5.3,8.9-6.1,9.9-14,19.4-29.6,30.8-30.7,31.6-8.5,6.3-12.1,7.6-13.7,7.7h0c-.7,0-1.1-.4-1.2-.5M19.4,54.4c-.4.3-5.3,5-14,11.1-.2.2-1.4.8-2.6,1.7-1.2.8-2.2,1.8-2.2,2.4s0,.3,0,.4c0,.2.3.4,1,.4,1.4,0,4.9-1.2,13.4-7.6,1.1-.8,16.6-12.2,30.6-31.5.8-1,5.3-7.9,6.1-9.9.2-.6,3.1-7.1,4.5-9.3.4-.6,2.6-4.7,6.1-10.1h.2-.2s.4-.5.3-.9c0-.2,0-.3-.2-.4-.2-.2-.4-.3-.5-.3s-.4,0-.9.7c0,0-6.5,9.1-6.8,9.5s-2.4,3.3-6.6,7.9c0,0-1.9,3-3.6,5.8-1.8,2.9-3.6,5.7-3.6,5.7,0,0-5,9.7-21.1,24.4"/>
  <path class="cls-2" d="M60.5,5.6s-1.1-.2-2-1.3c0,0,1.8-3.4,2.4-3.5.5,0,1.8.8,1.9,1.4,0,.3,0,.4-2.3,3.4"/>
  <path class="cls-1" d="M60.5,5.8s-1.2-.2-2.1-1.4h0v-.2s.4-.9,1-1.7c.5-.9,1.1-1.8,1.5-1.9h0c.6,0,1.8.8,2,1.5v.2c0,.4-.3.8-2.4,3.5h0ZM60.5,5.6h0ZM60.5,5.5c2-2.6,2.2-3,2.2-3.2h0c0-.5-1.3-1.4-1.7-1.4h0c0,0-.8.9-1.3,1.7-.4.7-.8,1.4-.9,1.6.6.9,1.4,1.2,1.7,1.3"/>
  <path class="cls-1" d="M60.8,2.2c0-.3.3-.6.6-.6s.6.3.6.6-.3.6-.6.6h0v-.3c.2,0,.3,0,.3-.3s0-.3-.3-.3-.3,0-.3.3,0,.3.3.3v.4c-.3,0-.6-.4-.6-.7"/>
  <path class="cls-1" d="M57.1,6.4l.3-.2c.6,1,1.8,1.3,1.8,1.3h0v.3c0,0-1.4-.2-2.1-1.4"/>
  <rect class="cls-1" x="60" y="5.4" width=".3" height=".4" transform="translate(.3 13.6) rotate(-12.9)"/>
  <rect class="cls-1" x="59.8" y="5.4" width=".3" height=".9" transform="translate(.2 13.5) rotate(-12.9)"/>
  <rect class="cls-1" x="59.4" y="5.1" width=".3" height="1.6" transform="translate(.2 13.2) rotate(-12.7)"/>
  <rect class="cls-1" x="59.1" y="4.7" width=".3" height="2.2" transform="translate(0 12.5) rotate(-12)"/>
  <rect class="cls-1" x="58.8" y="4.5" width=".3" height="3.1" transform="translate(0 12.5) rotate(-12.1)"/>
  <rect class="cls-1" x="58.5" y="4.8" width=".3" height="2.9" transform="translate(0 12) rotate(-11.7)"/>
  <polygon class="cls-1" points="58 5.1 58.3 5 58.8 7.4 58.5 7.5 58 5.1"/>
  <rect class="cls-1" x="58" y="5.3" width=".3" height="2" transform="translate(-.2 10.8) rotate(-10.6)"/>
  <rect class="cls-1" x="57.7" y="5.8" width=".3" height="1.4" transform="translate(-.3 9.9) rotate(-9.8)"/>
  <polygon class="cls-1" points="57.4 6 57.7 5.9 57.9 6.9 57.6 6.9 57.4 6"/>
  <rect class="cls-1" x="57.2" y="6.2" width=".3" height=".3" transform="translate(-.3 8.1) rotate(-8.1)"/>
  <path class="cls-1" d="M54.6,10.4v-.6h0c0-.1,0-.1,0-.1h.3c1.3,0,2.6-.5,2.9-.6,0-.6,0-1,0-1.4v-.5h.3v.4c0,.3,0,.8.2,1.4h0c0,.1,0,.2,0,.2,0,0-1.5.7-3.2.7h-.2v.4c0,.8,0,2.4.4,4.1h-.3c-.2-1.5-.3-3.1-.3-4"/>
  <path class="cls-1" d="M56.8,7.7v-.9h.3v.9c0,.8,0,1.9.4,3.1h-.3c-.4-1.2-.4-2.4-.4-3.1"/>
  <path class="cls-1" d="M55.7,8.4h0c0-.1.3-.1.3-.1h0c0,.6,0,2.5.5,4.1h-.3c-.5-1.5-.5-3.5-.5-4"/>
  <path class="cls-1" d="M49.9,19.4c1.7-.3,3.1-1.2,3.5-1.5-.3-1.5-.3-2.8-.3-3.8,0-1.5.2-2.4.2-2.4h.3c0,.1,0,1,0,2.5s0,2.4.3,3.8h0c0,.1,0,.2,0,.2,0,0-1.7,1.2-3.7,1.6v-.4h-.1Z"/>
  <path class="cls-1" d="M49.4,17.5c0-.7,0-1.1,0-1.1h.3s0,.4,0,1,0,1.2.2,2h-.3c-.2-.7-.2-1.4-.2-1.9"/>
  <path class="cls-2" d="M52.1,21.6s-1.9-2.3-4.5-3.2c0,0-1,1-1.5,2.3,0,0,2.5,1.1,4.6,3.4,0,0,1-1.2,1.4-2.5"/>
  <path class="cls-1" d="M50.6,24.1c-2.1-2.3-4.6-3.4-4.6-3.4h0c0-.1,0-.2,0-.2.5-1.3,1.5-2.3,1.5-2.3h0c0-.1,0-.1,0-.1,2.7,1,4.5,3.3,4.6,3.3h0c0,.1,0,0,0,0h0v.2c-.4,1.3-1.4,2.5-1.4,2.5h0c0,.1-.2,0-.2,0ZM50.7,23.8c.3-.3.9-1.2,1.2-2.2-.3-.4-2-2.2-4.3-3.1-.2.3-.9,1.1-1.3,2,.6.3,2.6,1.4,4.4,3.3"/>
  <path class="cls-1" d="M51.7,21.9s-1.8-2.2-4.3-3.1v-.3c2.7,1,4.5,3.2,4.5,3.2h0c0,.1-.2.3-.2.3h0Z"/>
  <path class="cls-1" d="M50.8,23.8c-1.7-1.9-3.7-2.9-4.4-3.2h0c0,0,0-.1,0-.1,0,0,0-.1,0-.2s0-.1.2-.1h0l1.9-1.3h.3c0,.1-.3,1.9-.3,1.9l1.7-1h.3c0,.1-.4,2.1-.4,2.1l1.7-.8h.2s0,.1,0,.2l-.7,2.3h0c-.1.2-.2.3-.2.2M50.8,23.4l.5-1.7-1.5.7c.3.4.7.7,1,1M49.5,22.2l.4-1.8-1.5.9c.3.3.7.6,1.1.9M48,21.1l.2-1.7-1.5,1c.3.2.8.4,1.3.7"/>
  <path class="cls-1" d="M56.1,8.2v-.3h.3c1.3,0,2.2-.5,2.2-.5h0v.3c0,0-.8.5-2.2.5h-.3"/>
  <path class="cls-1" d="M53.2,12.1v-.3h.6c1.9,0,3.1-.6,3.1-.6h0v.3c0,0-1.2.6-3.2.6h-.5"/>
  <path class="cls-1" d="M51.2,15.3v-1.1h0c0-.1,0-.1,0-.1,2.6,0,4.4-.9,4.4-.9v.3c0,0-1.7.8-4.3.9v.9c0,1.3,0,3.6.7,6.1h-.3c-.5-2.4-.6-4.7-.6-6.1"/>
  <path class="cls-1" d="M48.5,17.4c3.5-.5,6.1-1.8,6.1-1.8h0v.3c0,0-2.5,1.3-6.1,1.8v-.3h0Z"/>
  <path class="cls-1" d="M51.6,20.9c0,0,.7-.3.7-.3v.3c0,0-.4.3-.7.3v-.3h0Z"/>
  <path class="cls-1" d="M45.8,30.5c-1.3-1.8-3.5-2.5-3.5-2.5,0,0,0,0,0-.1h0c0-.1,3.9-6.4,3.9-6.4,0-.1,0-.1.2-.1,1.8.5,3.8,2.6,3.8,2.6h0c0,.1,0,0,0,0,0,0,0,.1,0,.2,0,0-3.4,5.5-4,6.2,0,0,0,0-.3,0,0,0,0,0,0,0M45.9,30.2h0c0-.3.3-.5.5-.8.4-.6.9-1.4,1.4-2.1.9-1.3,1.7-2.6,1.9-3-.4-.4-2-2-3.5-2.4l-3.7,6c.6.1,2.2.8,3.3,2.3"/>
  <path class="cls-1" d="M45.8,29.8c-1-1.1-2.2-1.7-2.8-2h-.2c0-.1,3.6-5.9,3.6-5.9h0c1.2.4,2.5,1.6,3,2.1h0c0,.1,0,0,0,0h0c0,.1,0,.2,0,.2-1.2,1.9-2.8,4.5-3.5,5.5v.2c0,0-.2,0-.2-.1ZM45.9,29.5c.7-1.1,2.2-3.5,3.4-5.2-.5-.5-1.7-1.5-2.7-1.9l-3.3,5.3c.6.2,1.7.8,2.6,1.8"/>
  <path class="cls-1" d="M45.6,28.1c-.4-.3-.8-.6-1.1-.8h0c0-.1,2.4-3.9,2.4-3.9h0c0-.1,0,0,0,0,.4.2.8.5,1.2.9h0c0,.1,0,.2,0,.2-.8,1.3-1.7,2.6-2.3,3.6h0c0,.1-.2,0-.2,0ZM45.7,27.8c.6-.9,1.4-2.2,2.1-3.4-.3-.3-.6-.5-1-.7l-2.1,3.5c.4.2.7.4,1,.6"/>
  <path class="cls-1" d="M45,27.8h0,0c0-.1-.2-1.1-.2-1.1h0,0v-.3l.3.2c0,.1.3.1.4.2l1.4-2.3c0,0-.2-.1-.3-.2l-.3-.2,1.3-.4h0c0-.1,0,0,0,0h0v.2c0,0,0,1.4,0,1.4l-.3-.3c0-.1-.2-.2-.3-.2l-1.4,2.3c0,.1.2.2.4.3l.2.2-1.2.3v.2c0,0-.3-.3-.3-.3h.1ZM45.6,27.4h0,0ZM45.2,27.1h0c0-.1,0,0,0,0ZM47.4,24.5h0M47,24.3h0"/>
  <path class="cls-1" d="M48.2,24.2c0-.3.2-.5.5-.5s.5.2.5.5-.2.5-.5.5h0v-.2c0,0,.2-.1.2-.2s0-.2-.2-.2-.2.1-.2.2,0,.2.2.2h0v.2c-.3,0-.5-.2-.5-.5"/>
  <path class="cls-1" d="M47.3,23.5c0-.3.2-.5.5-.5s.5.2.5.5-.2.5-.5.5h0v-.2c0,0,.2-.1.2-.2s0-.2-.2-.2-.2.1-.2.2,0,.2.2.2h0v.2c-.3,0-.5-.3-.5-.5"/>
  <path class="cls-1" d="M46.4,22.9c0-.3.2-.5.5-.5s.5.2.5.5-.2.5-.5.5h0v-.2c0,0,.2-.1.2-.2s0-.2-.2-.2-.2.1-.2.2,0,.2.2.2h0v.2c-.3,0-.5-.2-.5-.5"/>
  <path class="cls-1" d="M45.6,23.8c0-.3.2-.5.5-.5s.5.2.5.5-.2.5-.5.5v-.2h0c0-.1.2-.2.2-.3s0-.2-.2-.2-.2.1-.2.2,0,.2.2.2h0v.2c-.2.1-.5-.2-.5-.4"/>
  <path class="cls-1" d="M45,24.7c0-.3.2-.5.5-.5s.5.2.5.5-.2.5-.5.5v-.2h0c0-.1.2-.2.2-.3s0-.2-.2-.2-.2.1-.2.2,0,.2.2.2h0v.2c-.3.1-.5-.1-.5-.4"/>
  <path class="cls-1" d="M44.5,25.7c0-.3.2-.5.5-.5s.5.2.5.5-.2.5-.5.5v-.2h0c0-.1.2-.2.2-.3s0-.2-.2-.2-.2.1-.2.2,0,.2.2.2h0v.2c-.3.1-.5-.1-.5-.4"/>
  <path class="cls-1" d="M43.9,26.6c0-.3.2-.5.5-.5s.5.2.5.5-.2.5-.5.5h0v-.2c0,0,.2-.1.2-.2s0-.2-.2-.2-.2.1-.2.2,0,.2.2.2h0c-.3.1-.5,0-.5-.3"/>
  <path class="cls-1" d="M43.4,27.4c0-.3.2-.5.5-.5s.5.2.5.5-.2.5-.5.5h0v-.2c0,0,.2-.1.2-.2s0-.2-.2-.2-.2.1-.2.2,0,.2.2.2h0v.2c-.3,0-.5-.2-.5-.5"/>
  <path class="cls-1" d="M44.3,28c0-.3.2-.5.5-.5s.5.2.5.5-.2.5-.5.5h0v-.2c0,0,.2-.1.2-.2s0-.2-.2-.2-.2.1-.2.2,0,.2.2.2h0v.2c-.2,0-.5-.2-.5-.5"/>
  <path class="cls-1" d="M45.3,28.7c0-.3.2-.5.5-.5s.5.2.5.5-.2.5-.5.5v-.2h0c0-.1.2-.2.2-.3s0-.2-.2-.2-.2.1-.2.2,0,.2.2.2h0v.3c-.3,0-.5-.2-.5-.5"/>
  <path class="cls-1" d="M45.9,28c0-.3.2-.5.5-.5s.5.2.5.5-.2.5-.5.5h0v-.2c0,0,.2-.1.2-.2s0-.2-.2-.2-.2.1-.2.2,0,.2.2.2h0v.2c-.3-.1-.5-.3-.5-.5"/>
  <path class="cls-1" d="M46.6,27.1c0-.3.2-.5.5-.5s.5.2.5.5-.2.5-.5.5h0v-.2c0,0,.2-.1.2-.2s0-.2-.2-.2-.2.1-.2.2,0,.2.2.2h0v.2c-.3,0-.5-.2-.5-.5"/>
  <path class="cls-1" d="M47.1,26.2c0-.3.2-.5.5-.5s.5.2.5.5-.2.5-.5.5h0v-.2c0,0,.2-.1.2-.2s0-.2-.2-.2-.2.1-.2.2,0,.2.2.2h0v.2c-.3-.1-.5-.3-.5-.5"/>
  <path class="cls-1" d="M47.6,25.3c0-.3.2-.5.5-.5s.5.2.5.5-.2.5-.5.5h0v-.2c0,0,.2-.1.2-.2s0-.2-.2-.2-.2.1-.2.2,0,.2.2.2h0v.2c-.2,0-.5-.2-.5-.5"/>
  <path class="cls-1" d="M41.4,28.5v-.3c2.9.5,4.7,3.1,4.7,3.1l-.3.2c0,0-1.7-2.5-4.4-3"/>
  <path class="cls-1" d="M40.2,30.7v-.3c2.4.6,3.9,2.4,4.3,2.9h0l-.2.2c-.5-.4-1.9-2.2-4.1-2.8"/>
  <path class="cls-1" d="M39.9,31.2v-.3c2.4.6,3.9,2.4,4.3,2.9h0l-.2.2c-.5-.5-2-2.3-4.1-2.8"/>
  <path class="cls-1" d="M39.5,31.6v-.3c2.4.6,3.9,2.4,4.2,2.9h0l-.2.2c-.3-.5-1.8-2.3-4-2.8"/>
  <path class="cls-1" d="M39.2,32v-.3c2.4.6,3.9,2.4,4.2,2.8h0l-.2.2c-.3-.4-1.8-2.1-4-2.7"/>
  <path class="cls-1" d="M38.9,32.5v-.3c2.4.6,3.9,2.4,4.2,2.8h0l-.2.2c-.4-.4-1.8-2.2-4-2.7"/>
  <path class="cls-1" d="M38.6,32.9v-.3c2.4.6,3.8,2.3,4.2,2.8h0l-.2.2c-.4-.4-1.8-2.2-4-2.7"/>
  <path class="cls-1" d="M38.3,33.3v-.3c2.3.6,3.8,2.3,4.2,2.8h0l-.2.2c-.4-.4-1.8-2.1-4-2.7"/>
  <path class="cls-1" d="M38,33.8v-.3c2.3.5,3.8,2.3,4.1,2.8h0l-.2.2c-.3-.5-1.8-2.2-3.9-2.7"/>
  <path class="cls-1" d="M37.7,34.2v-.3c2.3.5,3.7,2.3,4.1,2.8h0l-.2.2c-.4-.5-1.8-2.2-3.9-2.7"/>
  <path class="cls-1" d="M37.4,34.7v-.3c2.3.5,3.7,2.3,4.1,2.7h0l-.2.2c-.4-.5-1.8-2.1-3.9-2.6"/>
  <path class="cls-1" d="M37.1,35.1v-.3c2.3.5,3.7,2.3,4,2.7h0l-.2.2c-.3-.4-1.7-2.1-3.8-2.6"/>
  <path class="cls-1" d="M36.8,35.5v-.3c2.3.5,3.7,2.3,4,2.7h0l-.2.2c-.3-.4-1.7-2.1-3.8-2.6"/>
  <path class="cls-1" d="M36.5,36v-.3c2.3.5,3.7,2.2,4,2.7h0l-.2.2c-.4-.5-1.7-2.1-3.8-2.6"/>
  <path class="cls-1" d="M36.2,36.4v-.3c2.2.5,3.6,2.2,4,2.7h0l-.2.2c-.4-.5-1.8-2.1-3.8-2.6"/>
  <path class="cls-1" d="M35.9,36.8v-.3c2.2.5,3.6,2.2,3.9,2.6h0l-.2.2c-.3-.3-1.7-2-3.7-2.5"/>
  <path class="cls-1" d="M35.6,37.3v-.3c2.2.5,3.6,2.2,3.9,2.6h0l-.2.2c-.3-.4-1.7-2-3.7-2.5"/>
  <path class="cls-1" d="M35.3,37.7v-.3c2.2.5,3.6,2.2,3.9,2.6l-.2.2c-.4-.4-1.7-2-3.7-2.5"/>
  <path class="cls-1" d="M29.4,46.6c0,0,0-.2,0-.2h.2c.2.2.3.2.4.2h.3v-.2c0-1.4,1.2-1.9,1.2-1.9h.2s0,.2,0,.2c0,0-1,.5-1,1.6v.3h0s-.2.3-.6.3h0c-.2,0-.4,0-.6-.3"/>
  <path class="cls-1" d="M29,48.4h0v-.4c0-.5-.2-.5-.2-.5q0,0,0-.2c0-.2,0,0,.2,0,0,0,.5,0,.5.8v.3h0s0,.2,0,.3h0c0,0,.2,0,.4-.2h.2q0,0,0,.2c-.2.3-.4.5-.6.5-.5,0-.6-.5-.7-.7"/>
  <path class="cls-1" d="M25.9,49.9c0,0,0-.2,0-.4s0-.5,0-.7c0-.2,0-.3.3-.4.2,0,.2.2.2.2,0,.6.3.7.5.7s.6-.2.6-.3c.6-.6,1.5-.7,1.5-.7h.2v.2c0,0-1,0-1.4.6,0,.2-.5.4-.9.4s-.6-.2-.8-.7h0c0,.2,0,.4,0,.5v.2s0,.2,0,.2h0c.2.2,0,.2,0,0"/>
  <path class="cls-1" d="M23.7,53.7s0-.5,0-1,0-1,.6-1h0q0,0,0,.2c0,.2,0,0-.2,0h0c0,0-.1,0-.2.2,0,0,0,.3,0,.5v.4c.4-.5,1.3-.6,1.4-.9.3-.4.4-.8.4-1,0-.4-.3-.7-.3-.7h0c0,0,0-.2,0-.2h.2c0,0,.4.3.4.9s0,.8-.5,1.2c-.4.5-1.5.6-1.5,1.2s0,0,0,0h0c0,0-.2,0-.2,0"/>
  <path class="cls-1" d="M22.9,53.9c0-.3,0-.2,0-.3,0,0-.3,0-.5-.3,0-.2-.2-.4-.2-.5,0-.6.8-.7.8-.7h.2s0,.2,0,.2c0,0-.6.2-.5.4,0,0,0,.2,0,.4h.3c.2,0,.4.2.4.6s0,.2,0,.2c-.2,0-.3,0-.3-.2"/>
  <path class="cls-1" d="M20.8,55.8c0-.2,0-.5,0-.7,0-1.8,1.5-2.1,1.5-2.1h.2s0,.2,0,.2c0,0-1.2.2-1.2,1.8s0,.4,0,.6c0,0,0,.2,0,.2h-.3"/>
  <path class="cls-1" d="M20.2,57.7c0-.2,0-.4,0-.5,0-1.5,1.4-1.7,1.4-1.7h.2v.2c0,0-1.3,0-1.3,1.4s0,.3,0,.5c0,0,0,.2,0,.2h0l-.2-.2"/>
  <path class="cls-1" d="M17.3,58.3q0,0,0-.2c.3-1.5,1.3-1.8,2.1-1.8s1.1.2,1.1.2q0,0,0,.2c0,.2,0,0-.2,0h-1c-.7,0-1.5.3-1.8,1.6,0,0-.1,0-.2,0h0"/>
  <path class="cls-1" d="M17.3,60.4c0,0-.3,0-.5-.2-.5-.3-.6-1.1-.6-1.7v-.7h.2c0,.4.6.5,1.1.5h.6v.2h-.5c-.3,0-.8,0-1.1-.3v.2c0,.6,0,1.3.4,1.5h.3c0,0,.2,0,.3-.2.1-.1.2-.1.2,0q0,0,0,.2c0,0-.3.3-.5.3h0v.2Z"/>
  <path class="cls-1" d="M14.2,60.1c0,0,0-.3,0-.4,0-.2.2-.4.5-.5h.2s0,.2,0,.2c-.3,0-.3.2-.3.2v.2c.2,0,.4.2.8.2s.9-.2,1-.3,0-.2,0-.3c0-.2-.3-.3-.3-.3h0q0,0,0-.2c0-.2,0,0,.2,0,0,0,.5.2.5.6s0,.3-.2.5c-.2.3-.8.4-1.3.4s-.7,0-.9-.3"/>
  <path class="cls-1" d="M13.3,60.6h0c0-.4,0-.6.2-.7s.3-.2.4-.2h.3q0,0,0,.2c0,.2,0,0-.2,0h-.2c-.2,0-.3,0-.4.5h0c0,.2,0,.3,0,.3h0s0,0,0-.2"/>
  <path class="cls-1" d="M10.8,64s0,0,0-.2c0-.2,0-.4,0-.7s0-.6.2-.8h.2c0,0,0,0,0,.2,0,.2-.2.4-.2.7s0,.3,0,.5c0,0,.2,0,.4-.2,1-.3,1.7-1,1.6-1.2,0-.5,0-.5-.3-.5h-.6s0-.2,0-.2c0,0,.3-.2.5-.2s.3,0,.4.2.2.3.2.6c0,.5-.8,1.1-1.9,1.5-.4.2-.3,0-.4.3h0v.2c0-.2,0-.3,0-.3"/>
  <path class="cls-2" d="M7.1,63.6c0,0-1.6,1.3-3.1,2.1-.7.4-2.8,1.6-3.7,3.1,0,.2-.9,1.6,1.1,1.9.2,0,1.9.4,7.2-2.9.2,0,3.2-2,3.8-2.6,0,0-.3-.6-.9-.5,0,0-.2-.5-.8-.4,0,0-.3-.4-.9-.3,0,0-.3-.4-.8-.2,0,0-.5-.3-.8-.2,0,0-.3-.3-.5-.3-.2.2-.2,0-.6.3"/>
  <path class="cls-1" d="M1.5,70.9c-1.1-.2-1.5-.8-1.5-1.4s.2-.8.3-.9c.9-1.5,3-2.8,3.7-3.2,1.4-.8,2.9-2,3-2.1v.2c0,0,0-.2,0-.2.4-.3.6-.2.7-.3h.2c.2,0,.4.2.5.3h0c.3,0,.5,0,.6.2h.2c.3,0,.5.2.6.3h.2c.4,0,.6.2.7.3h0c.4,0,.6.2.8.4h0c.7,0,.9.6.9.6,0,0,0,.2,0,.3-.7.7-3.6,2.5-3.9,2.7-4.2,2.7-6.2,3-6.9,3-.2,0-.3-.2-.3-.2M4.2,65.9c-.7.4-2.8,1.6-3.6,3,0,0-.2.4-.2.7s0,.7,1.1.9h.3c.6,0,2.5-.3,6.7-2.9.2,0,2.8-1.8,3.7-2.5h0c0,0-.2-.2-.4-.2h-1.3c0-.2-.2-.2-.4-.2h-.5c0-.1-.1-.2-.2-.2h-1.3v-.2h0q-.3,0-.6.2h0c-.2.2-1.8,1.4-3.2,2.2"/>
  <path class="cls-1" d="M.9,69.4c0,0,0,0,0,0,0-.8,1.8-2,2-2.1,2.7-1.7,4.1-2.8,4.1-2.8h.5c1.8,0,3.4.9,3.5.9h0,.2,0c-4.9,3.5-7.6,4.3-7.9,4.4-.4.2-.8.2-1.1.2-.8,0-1.1-.6-1.1-.8M3,67.5c0,0-1.9,1.5-1.8,1.8h0s.2.5.8.5.5,0,.9-.2c.3,0,2.9-.8,7.6-4.2-.2,0-.5-.2-.8-.3-.6-.2-1.4-.4-2.3-.4h-.3c-.2.2-1.7,1.3-4.1,2.8"/>
  <path class="cls-1" d="M7.7,66.7c0,0-.2,0-.2-.2s0-.2.2-.2c.4,0,.6-.6,1-1,.2-.2.5-.2.8-.2.6,0,1.1.2,1.1.2h0v.2h.2-.6c-.3,0-.5,0-.6.2-.2.2-.3.2-.5.2,0,0,0,.3-.3.5-.3.2-.6.3-1,.2.2,0,0,0,0,0M8.9,65.5c-.3.2-.4.6-.8.9.2,0,.4,0,.6-.2.2-.2.2-.4.2-.5s0,0,0,0c0,0,0,0,0,0h.7,0c-.3,0-.6,0-.7,0M8.9,65.8h0"/>
  <path class="cls-1" d="M6.7,66.2q0,0,0-.2c0-.2.2-.3.4-.3h.4c.3,0,1,0,1.4-.4h.2v.2c0,0-.2,0-.3.2h0s-.7.5-1.4.5h-.5M7.2,66h0-.4.3"/>
  <path class="cls-1" d="M7.1,65.4c0,0-.2-.2-.2-.4,0-.3.3-.4.5-.4h0c0,0,.2,0,.2.2v.2h1.6s0,.2,0,.2c0,0-.8.3-1.4.3s-.5,0-.7-.2M7.3,65h0v.2c.2.2.3,0,.4,0,0,0,0-.3,0-.3h-.3"/>
  <path class="cls-1" d="M5.1,68.4c-.2,0-.3,0-.4-.2,0,0-.2,0-.2-.3h.5c.2,0,.4,0,.4-.3h0c0-.9.2-1.5.6-1.8.3-.3.8-.4,1-.4h.4v.2-.2q0,0,0,.2c0,.2,0,0,0,0-1.3.2-1.4.9-1.4,1.2,0,0,.2.2.2.4v.5c-.2.1-.2.1-.3,0h0c0,.2,0,.3,0,.4,0,0-.2.2-.2,0h-.5v.3ZM5.1,68.1s0,0,0,0h.4v-.2h0v-.2c.2-.1.2-.1.3,0h0c0-.2,0-.3,0-.3h-.2v.3h0c0,.5-.3.6-.6.7h.2M4.5,68h0"/>
  <path class="cls-1" d="M6.3,67.5c-.2,0-.3-.2-.3-.3s0-.3.3-.3c0-.2.2-.2.4-.2s.3,0,.3.2c.2,0,.3.2.3.3s0,.3-.3.3c0,.2-.2.2-.4.2s-.3,0-.3-.2M6.6,67.4q0,0,0,0t0,0h0M6.3,67.1h0q0,0,0,0t0,0h0M6.9,67.2h0s0,0,0,0t0,0h0M6.9,67.1h0ZM6.6,66.9q0,0,0,0c0,0,0,0,0,0q0,0,0,0h0"/>
  <path class="cls-1" d="M6.2,66.6c0,0,0-.2,0-.2,0,0,0-.2,0-.2h.4c0,0,0,.2,0,.2,0,0,0,.2,0,.2h-.4"/>
  <path class="cls-1" d="M4.7,68.8c0,0,0-.2,0-.2,0,0,0-.2,0-.2h.4c0,0,0,.2,0,.2,0,0,0,.2,0,.2h-.2c0,0-.2,0-.2,0"/>
  <path class="cls-1" d="M7.3,67.2c0,0,0-.2,0-.2,0,0,0-.2,0-.2h.4c0,0,0,.2,0,.2,0,0,0,.2,0,.2h-.4"/>
  <path class="cls-1" d="M4.8,66.7c0,0-.2-.2-.2-.3s0-.2.2-.3c0,0,.2-.2.3-.2s.2,0,.3.2c0,0,.2.2.2.3s0,.2-.2.3c0,0-.2.2-.3.2s-.3,0-.3-.2"/>
  <path class="cls-1" d="M1.2,69.5c0,0-.2-.2-.2-.3s0-.2.2-.3c0,0,.2-.2.3-.2s.2,0,.3.2c0,0,.2.2.2.3s0,.2-.2.3c0,0-.2.2-.3.2s-.3,0-.3-.2"/>
  <path class="cls-1" d="M3.1,69.4c0,0-.2-.2-.2-.3s0-.2.2-.3c0,0,.2-.2.3-.2s.2,0,.3.2c0,0,.2.2.2.3s0,.2-.2.3c0,0-.2.2-.3.2s-.2,0-.3-.2"/>
  <path class="cls-1" d="M6,68.1c0,0-.2-.2-.2-.3s0-.2.2-.3c0,0,.2-.2.3-.2s.2,0,.3.2c0,0,.2.2.2.3s0,.2-.2.3c0,0-.2.2-.3.2-.2,0-.3,0-.3-.2"/>
  <path class="cls-1" d="M6.5,65.5c0,0-.2-.2-.2-.3s0-.2.2-.3c0,0,.2-.2.3-.2s.2,0,.3.2c0,0,.2.2.2.3s0,.2-.2.3c0,0-.2.2-.3.2s-.2,0-.3-.2"/>
  <path class="cls-1" d="M4.4,67.5c-.2,0-.3-.2-.3-.3s0-.3.3-.3c0-.2.2-.2.4-.2s.3,0,.4.2c.2,0,.3.2.3.3s0,.3-.3.3c0,.2-.2.2-.4.2s-.4,0-.4-.2M4.7,67.5s0,0,0,0h0M4.4,67.2h0s0,0,0,0h0M5,67.2h0M5,67.2h0ZM4.7,67h0s0,0,0,0h0"/>
  <path class="cls-1" d="M2.8,68.3c-.2,0-.3-.2-.3-.3s0-.3.3-.3c0-.2.2-.2.3-.2s.3,0,.4.2c.2,0,.3.2.3.3s0,.3-.3.3c0,.2-.2.2-.4.2s-.2,0-.3-.2M3.2,68.2h0q0,0,0,0c0,0,0,0,0,0M2.9,67.9s0,0,0,0t0,0h0M3.5,68h0M3.5,67.9h0M3.2,67.7h0s0,0,0,0c0,0,0,0,0,0"/>
  <path class="cls-1" d="M6.9,66.9c0,0,0-.2,0-.2l.4-.4h.2c0,0,0,.2,0,.2l-.4.4h-.2"/>
  <path class="cls-1" d="M3.4,68.8s0,0,0,0c0,0,0-.2,0-.2h.5c0,0-.2-.2-.2-.3,0-.2,0-.3,0-.6s0-.5.3-.8h.2c0,0,0,0,0,.2v.2s0,.3.2.5c0,0,.3.4.3.8s0,.4-.3.5h-.4c-.2,0-.5-.3-.6-.5M4.2,68.3s0,0,0,.2h0s0,.2,0,.3h0,.2c0,0,0,0,0-.2,0-.3-.3-.7-.3-.7,0,0-.2-.2-.2-.3h0c0,.3,0,.4,0,.7h.2"/>
  <path class="cls-1" d="M1.5,69.7c0,0,0,0,0-.2v-.2c.3-.9.9-1.1,1.5-1.1s.9.2,1,.2h0v.2h.2-.7c-.4,0-.7,0-.9.2h0c0,.2,0,.3,0,.4,0,.3-.4.5-.6.6h-.2M1.8,69.4h0c0,0,.2,0,.3-.3v-.2h0c0,.2,0,.4-.2.6"/>
  <path class="cls-1" d="M2.4,69.7s0,0,0,0c0-.3.4-.8.7-1.1,0,0,.2,0,.3-.2,0,0,.2,0,.2.2s0,0,0,.2h0,0c-.2.3-.5.7-.4.8h0c0,.3-.2.4-.3.4-.2,0-.4-.2-.4-.3"/>
  <path class="cls-1" d="M44.2,32.7c-1.3-1.5-3.3-2.4-3.3-2.4h-.2c0,0,1-1.7,1-1.7h0c1.9.6,3.6,2.5,3.6,2.5h0l-1.1,1.6h0s0,0,0,0ZM44.3,32.6h0,0ZM44.3,32.4l.9-1.1c-.4-.4-1.8-1.8-3.2-2.3l-.7,1.1c.4.3,1.8,1.1,3,2.3"/>
  <path class="cls-1" d="M43.6,32.1s0,0,0-.2l.5-1.2-1.2.6h-.2s0,0,0-.2l.4-1.3-1.1.8h-.2c0,0,0,0,0-.2l.3-1.6h.3c0,.1-.2,1.3-.2,1.3l1.2-.8h.2s0,.1,0,.2l-.4,1.4,1.2-.7h.2s0,0,0,.2l-.5,1.3,1.2-.5h0v.3c0,0-1.5.7-1.5.7h-.2"/>
  <path class="cls-1" d="M44.4,32.6h0ZM44.1,32.5l.4-1.4-1.3.7h-.2s0,0,0-.2l.4-1.3-1.2.7h-.2q0,0,0-.2l.3-1.3-1.3.8-.2-.3,1.6-1h.2s0,.1,0,.2l-.3,1.3,1.2-.7h.2s0,0,0,.2l-.4,1.3,1.3-.7h.2s0,0,0,.2l-.5,1.8h-.2Z"/>
  <path class="cls-2" d="M17.9,45.2c1.8,1.1,5.1,2.9,10.9,3.6.9,0,10.6.3,11.2-8.3v-20.7s-1.7-1.6-1.9-1.7c-1-.9-1.1-2.2-1.1-2.2-.2-3.5,0-6.4,0-6.4,0-1.6,1.9-1.5,2.1-1.5.7.1.4-.9.4-.9-.4-1.6-1.9-2.6-2.4-2.6-1.1,0-1.6-1.1-1.6-1.1h0s-.5,1-1.6,1.1c-.5,0-2,1.1-2.4,2.6,0,0-.4,1,.4.9.2,0,2.1-.1,2.1,1.5,0,0,.3,2.9,0,6.4,0,0-.2,1.2-1.1,2.2,0,.1-1.9,1.7-1.9,1.7v19.2s0,1.9-2.7,2.1c0,0-7.4.5-10,.3,0,0-1.3,0-1.7,1.2,0,.2-.3.3-.5.3s0,.2.2.3c0,0-.3,1,1.4,2"/>
  <path class="cls-1" d="M29.5,49h-.7c-5.8-.7-9.1-2.5-11-3.6v-.2c0,0,.2-.2.2-.2,1.8,1.1,5.1,2.8,10.8,3.5h.7c2.4,0,9.7-.8,10.3-8.1v-20.6c-.3-.3-1.7-1.5-1.8-1.7-1-1-1.2-2.3-1.2-2.3,0-.9,0-1.8,0-2.6,0-2.3.2-3.9.2-3.9,0-1.5,1.5-1.8,2.1-1.7h.4c0,0,0,0,0-.2,0-.2,0-.4,0-.4-.4-1.4-1.9-2.5-2.2-2.5-.9,0-1.4-.6-1.6-.9-.3.3-.8.9-1.6.9s-1.9,1-2.2,2.5c0,0,0,.2,0,.4s0,.1,0,.2h.4c.6,0,2,.2,2.1,1.7,0,0,.2,1.6.2,3.9s0,1.7,0,2.6c0,0-.2,1.3-1.2,2.3,0,.1-1.4,1.4-1.8,1.7v19.1s0,.5-.4,1.1-1.1,1.1-2.6,1.2c0,0-5.1.4-8.3.4h-1.7c0,0-.3,0-.6.2s-.7.4-.9.9c0,.2-.2.3-.4.4,0,0,0,0,0,.2s0,.3,0,.6.5.7,1.3,1.2v.2c0,0-.2.2-.2.2-1.6-.9-1.6-1.8-1.6-2.1h0c0-.1,0-.3,0-.4,0,0,0-.2,0-.2h.3c.5-1.3,1.9-1.4,1.9-1.4h1.7c3.2,0,8.3-.4,8.3-.4,1.3,0,1.9-.6,2.2-1s.3-.8.3-.8v-19.4h0c0-.1,1.7-1.7,1.9-1.8.9-.9,1.1-2,1.1-2,0-.9,0-1.8,0-2.5,0-2.3-.2-3.9-.2-3.9,0-1.1-1.1-1.3-1.6-1.3h-.5c-.2,0-.4-.1-.4-.2,0-.1,0-.3,0-.4,0-.3,0-.6,0-.6.5-1.6,1.9-2.7,2.6-2.8.5,0,.9-.3,1.1-.5s.4-.5.4-.5h.5s0,.3.4.6c.2.2.6.5,1.1.5s2.1,1.1,2.6,2.8c0,0,0,.3,0,.6s0,.3,0,.4c0,.1-.3.2-.5.2h-.4c-.6,0-1.6.1-1.6,1.3,0,0-.2,1.6-.2,3.9s0,1.6,0,2.5c0,0,0,.3.2.7.2.4.4.9.9,1.3,0,.1,1.9,1.7,1.9,1.7h0v20.9c-.9,7.8-8.5,8.6-11,8.6h0v-.3Z"/>
  <path class="cls-1" d="M33.5,8.5s.2-.7.2-1.6,0-1.5-.6-2.2l.3-.2c.5.7.6,1.6.6,2.3s-.2,1.7-.2,1.7h-.3Z"/>
  <path class="cls-1" d="M33.2,8.2s0-.6,0-1.3,0-1.4-.5-2l.3-.2c.4.7.6,1.5.6,2.2s-.2,1.4-.2,1.4h-.3Z"/>
  <path class="cls-1" d="M32.2,7.8c.2-.4.2-.7.2-1,0-.7-.4-1-.4-1l.2-.2s.5.4.5,1.3,0,.7-.3,1.1c0,0-.2-.2-.2-.2Z"/>
  <path class="cls-1" d="M31.7,7.8c.2-.4.3-.6.3-.9,0-.5-.3-.7-.3-.7l.2-.2s.4.3.4.9,0,.6-.3,1h-.3,0Z"/>
  <path class="cls-2" d="M32.8,5.8c.2.3.4.2.2,0,.3-.2.2-.4,0-.2-.2-.3-.4-.2-.2,0-.4.2-.2.4,0,.2"/>
  <path class="cls-1" d="M32.7,6h0c0,0-.3,0-.3-.2s0-.2.2-.3h0c0-.2,0-.4.2-.4s.2,0,.3.2h0c0,0,.3,0,.3.2s0,.2-.2.3h0c0,.2,0,.4-.2.4s-.2,0-.3-.2"/>
  <path class="cls-2" d="M33,6.8c.2.3.4.2.2-.1.3-.2.2-.4,0-.2-.2-.3-.4-.2-.2,0-.4.1-.2.4,0,.2"/>
  <path class="cls-1" d="M32.9,7h0c0,0-.3-.1-.3-.2s0-.2.2-.3h0c0-.2,0-.4.2-.4s.2,0,.3.2h0c0,0,.3,0,.3.2s0,.2-.2.3h0c0,.2,0,.4-.2.4s-.2,0-.3-.2"/>
  <path class="cls-2" d="M32.9,7.7c.2.3.4.2.2-.1.3-.2.2-.4,0-.2-.2-.3-.4-.2-.2.1-.3,0-.2.4,0,.2"/>
  <path class="cls-1" d="M32.9,7.9h0c0,0-.3-.1-.3-.2s0-.2.2-.3h0c0-.2,0-.4.2-.4s.2.1.3.2h0c0,0,.3.1.3.2s0,.2-.2.3h0c0,.2,0,.4-.2.4-.2,0-.3-.1-.3-.2"/>
  <path class="cls-1" d="M37,6.9c0-.7,0-1.6.6-2.3l.3.2c-.4.7-.6,1.5-.6,2.2s.2,1.6.2,1.6h-.3s-.2-.8-.2-1.7"/>
  <path class="cls-1" d="M37.3,6.9c0-.7,0-1.5.6-2.2l.3.2c-.4.6-.5,1.3-.5,2s0,1.3,0,1.3h-.3s-.2-.6-.2-1.3"/>
  <path class="cls-1" d="M38.2,6.8c0-.8.5-1.3.5-1.3h0l.2.2s-.4.3-.4,1,0,.6.3,1h-.3c-.2-.2-.3-.5-.3-.9"/>
  <path class="cls-1" d="M38.7,7c0-.6.4-.9.4-.9h0l.2.2s-.3.2-.3.7,0,.5.3.9h-.2c-.3-.3-.4-.6-.4-.9"/>
  <path class="cls-2" d="M38.2,5.8c-.2.3-.4.2-.2,0-.3-.2-.2-.4,0-.2.2-.3.4-.2.2,0,.4.2.2.4,0,.2"/>
  <path class="cls-1" d="M37.8,5.9q0,0,0,0c0,0,0,0-.2-.4,0,0,0-.2.3-.2h0c0,0,.2,0,.3-.2,0,0,.2,0,.2.3h0c0,.1,0,.3.2.4,0,0,0,.2-.3.2h0c0,0-.2,0-.3.2,0,0-.2-.2-.2-.3M38.1,6h0,0Z"/>
  <path class="cls-2" d="M38,6.8c-.2.3-.4.2-.2-.1-.3-.2-.2-.4,0-.2.2-.3.4-.2.2,0,.4.1.2.4,0,.2"/>
  <path class="cls-1" d="M37.5,6.9h0l-.2-.4s0-.2.3-.2h0c0,0,.2,0,.3-.2,0,0,.2,0,.2.3h0c0,.2.2.2.2.4s0,.2-.3.2h0c0,0-.2.1-.3.2,0,0-.2-.2-.2-.3M37.9,6.9h0c0-.1,0,0,0,0Z"/>
  <path class="cls-2" d="M38.1,7.7c-.2.3-.4.2-.2-.1-.3-.2-.2-.4,0-.2.2-.3.4-.2.2.1.3,0,.2.4,0,.2"/>
  <path class="cls-1" d="M37.6,7.8h0l-.2-.4c0-.1,0-.2.3-.2h0c0,0,.2-.1.3-.2,0,0,.2.1.2.3h0c0,.2.2.2.2.4s0,.2-.3.2h0c0,0-.2.1-.3.2,0,0-.2-.2-.2-.3M38,7.9h0c0-.1,0,0,0,0Z"/>
  <path class="cls-1" d="M33.4,4.7v-.3c.6.2,1.3.3,2.1.3s1.5,0,2-.3v.3c-.4.2-1.1.3-2,.3s-1.5,0-2.1-.3"/>
  <path class="cls-1" d="M34.2,9c-.3-.1-.6-.2-.6-.5s.3-.4.6-.5.8-.2,1.3-.2.9.1,1.3.2c.3.1.6.2.6.5s-.3.4-.6.5-.8.2-1.3.2v-.2h0c.5-.1.9-.2,1.2-.2.3-.1.4-.2.4-.2,0,0,0-.1-.4-.2-.3-.1-.7-.1-1.2-.1s-.9.1-1.2.1c-.3.1-.4.2-.4.2,0,0,0,.1.4.2.3.1.7.1,1.2.1h0v.2c-.5.1-.9,0-1.3-.1"/>
  <path class="cls-1" d="M34.4,8.1h.3c0,.3.4.5.8.5s.7-.3.8-.7h.3c0,.6-.6,1-1.1,1s-1-.3-1.1-.8"/>
  <path class="cls-2" d="M35.5,7.9c0,0,.3.1.3.3s0,.3-.3.3-.3-.1-.3-.3.2-.3.3-.3"/>
  <path class="cls-1" d="M35.1,8.2c0-.2.2-.4.4-.4h0v.2c0,0,0,.1,0,.1,0,.1,0,.1,0,.1,0,0,0-.1,0-.1,0-.1,0-.1,0-.1h0v-.2c.2,0,.4.2.4.4s-.2.4-.4.4-.4-.2-.4-.4"/>
  <path class="cls-1" d="M35.5,16.4c0,0,.3.1.3.3s0,.3-.3.3-.3-.1-.3-.3.2-.3.3-.3"/>
  <path class="cls-1" d="M35.1,16.6c0-.2.2-.4.4-.4h0v.2c0,0,0,0,0,.1,0,.1,0,.1,0,.1,0,0,0,0,0-.1,0-.1,0-.1,0-.1h0v-.2c.2,0,.4.2.4.4s-.2.4-.4.4c-.2.1-.4-.1-.4-.4"/>
  <path class="cls-2" d="M35.5,7.8c.6,0,1.1-.7,1.1-1.5s-.5-1.5-1.1-1.5-1.1.7-1.1,1.5.5,1.5,1.1,1.5"/>
  <path class="cls-1" d="M34.3,6.4c0-.9.5-1.6,1.3-1.6s1.3.8,1.3,1.6-.5,1.6-1.3,1.6h0v-.2c.5,0,.9-.6.9-1.3s-.5-1.3-.9-1.3-.9.6-.9,1.3.5,1.3.9,1.3h0v.2c-.8,0-1.3-.8-1.3-1.6"/>
  <path class="cls-1" d="M34.6,6.4c0-.7.4-1.3.9-1.3s.9.6,1,1.3c0,.7-.4,1.3-1,1.3s-.9-.6-.9-1.3M34.9,6.4c0,.6.4,1,.6,1,.3,0,.6-.4.6-1s-.4-1-.6-1c-.3,0-.6.4-.6,1"/>
  <path class="cls-1" d="M34.9,6.4c0-.5.3-1,.6-1s.6.5.6,1-.3,1-.6,1-.6-.5-.6-1M35.7,6.9c0-.1,0-.3,0-.5s0-.4,0-.6l-.2-.2s0,0-.2.2,0,.3,0,.6h0c0,.2,0,.4,0,.5s.2.2.2.2c0,0,.2,0,.2-.2"/>
  <path class="cls-1" d="M35.3,6.4c0-.3.2-.6.2-.6h0c0,0,.2.2.2.6s-.2.6-.2.6h0c0-.1-.2-.3-.2-.6"/>
  <path class="cls-1" d="M35.5,7.1h0c-.2-.1-.3-.3-.3-.7s0-.6.3-.7h0c.2,0,.3.2.3.6s0,.7-.3.8h0M35.5,6.4v.3c0-.1,0-.2,0-.3,0,0,0-.2,0-.3v.3M35.6,7.1h0ZM35.5,7.1h0Z"/>
  <path class="cls-1" d="M35.5,21.3h0c.9-.1,1.6-.8,1.6-1.7s-.7-1.6-1.6-1.6-1.6.7-1.6,1.6.7,1.6,1.6,1.6h0v.2c-1.1,0-1.9-.9-1.9-1.9s.9-1.9,1.9-1.9,1.9.9,1.9,1.9-.9,1.9-1.9,1.9h0Z"/>
  <path class="cls-1" d="M33.9,19.5c0-.9.7-1.6,1.6-1.6s1.6.7,1.6,1.6-.7,1.6-1.6,1.6-1.6-.7-1.6-1.6M34.2,19.5c0,.7.6,1.3,1.3,1.3s1.3-.6,1.3-1.3-.6-1.3-1.3-1.3c-.7.1-1.3.6-1.3,1.3"/>
  <path class="cls-1" d="M34.2,19.5c0-.7.6-1.3,1.3-1.3s1.3.6,1.3,1.3-.6,1.3-1.3,1.3c-.7.1-1.3-.5-1.3-1.3M34.5,19.5c0,.5.4,1,1,1s1-.5,1-1-.4-1-1-1-1,.5-1,1"/>
  <path class="cls-1" d="M34.5,19.5c0-.5.4-1,1-1s1,.5,1,1-.4,1-1,1-1-.4-1-1M34.8,19.5c0,.4.3.7.7.7s.7-.3.7-.7-.3-.7-.7-.7c-.4.1-.7.4-.7.7"/>
  <path class="cls-1" d="M34.8,19.5c0-.4.3-.7.7-.7s.7.3.7.7-.3.7-.7.7c-.4.1-.7-.3-.7-.7M35.1,19.5c0,.2.2.4.4.4s.4-.2.4-.4-.2-.4-.4-.4c-.2.1-.4.2-.4.4"/>
  <path class="cls-1" d="M35.3,19.5c0-.1,0-.2.2-.2s.2.1.2.2,0,.2-.2.2c0,.1-.2,0-.2-.2"/>
  <path class="cls-1" d="M35.1,19.5c0-.2.2-.4.4-.4s.4.2.4.4-.2.4-.4.4-.4,0-.4-.4M35.4,19.5q0,.1,0,0c0,.1.2,0,.2,0h-.2"/>
  <path class="cls-1" d="M31.6,19.9c0-.6.5-1,1-1s1,.5,1,1-.5,1-1,1v-.2h0c.4,0,.7-.4.7-.8s-.3-.7-.7-.7-.7.3-.7.7.3.7.7.7h0v.2c-.5.2-1-.3-1-.9"/>
  <path class="cls-1" d="M31.9,19.9c0-.4.3-.7.7-.7s.7.3.7.7-.3.7-.7.7-.7-.3-.7-.7M32.2,19.9c0,.2.2.4.4.4s.4-.2.4-.4-.2-.4-.4-.4-.4.2-.4.4"/>
  <path class="cls-1" d="M32.2,19.9c0-.2.2-.4.4-.4s.4.2.4.4-.2.4-.4.4-.4-.2-.4-.4M32.5,19.9c0,.1,0,.1,0,.1h0c0-.1,0-.2,0-.2,0,0,0,0,0,.1"/>
  <path class="cls-1" d="M37.4,19.9c0-.6.5-1,1-1s1,.5,1,1-.5,1-1,1v-.2h0c.4,0,.7-.4.7-.8s-.3-.7-.7-.7-.7.3-.7.7.3.7.7.7h0v.2c-.5.2-1-.3-1-.9"/>
  <path class="cls-1" d="M37.7,19.9c0-.4.3-.7.7-.7s.7.3.7.7-.3.7-.7.7-.7-.3-.7-.7M38,19.9c0,.2.2.4.4.4s.4-.2.4-.4-.2-.4-.4-.4-.4.2-.4.4"/>
  <path class="cls-1" d="M38,19.9c0-.2.2-.4.4-.4s.4.2.4.4-.2.4-.4.4c-.2.1-.4-.2-.4-.4M38.3,19.9c0,.1,0,.1,0,.1h0c0-.1,0-.2,0-.2,0,0,0,0,0,.1"/>
  <path class="cls-1" d="M35.5,16.3c-.9,0-1.5.2-1.6.3v-.3c0,0,.6-.3,1.6-.3s1.1.1,1.7.3v.3c-.7-.3-1.2-.3-1.7-.3M34,16.5h0Z"/>
  <path class="cls-1" d="M35.5,9.4c-.9,0-1.5.2-1.6.3v-.3c0,0,.6-.3,1.6-.3s1.1.1,1.7.3v.3c-.7-.2-1.2-.3-1.7-.3M34,9.6h0Z"/>
  <path class="cls-1" d="M34,15.1s0-.1,0,0v.3c0,0,0,0,0,0v-.3Z"/>
  <path class="cls-1" d="M34,14.7c.2-.1.8-.3,1.6-.3s.9,0,1.4.2v.3c-.5-.1-1-.2-1.4-.2-.8,0-1.4.2-1.5.2v-.2h0Z"/>
  <path class="cls-1" d="M34,10.4c.2-.1.8-.3,1.6-.3s.9.1,1.4.2v.3c-.5-.1-1-.2-1.4-.2-.8,0-1.4.2-1.5.2v-.2h0Z"/>
  <path class="cls-1" d="M34.1,14.2c.3-.1,1.5-.5,2.9,0v.3c-1.3-.4-2.6,0-2.9,0v-.3Z"/>
  <path class="cls-1" d="M33.9,14.5v-.3h0c0-.1,0-.1,0-.1.2-.1.8-.3,1.6-.3s.9,0,1.4.2h0v.6h-.2c-.4-.2-.9-.3-1.3-.3-.8,0-1.3.2-1.5.2h-.2c0,.1,0,0,0,0h0Z"/>
  <path class="cls-1" d="M34.1,10.9c.3-.1,1.5-.5,2.9-.1v.3c-1.3-.4-2.6-.1-2.9.1v-.3Z"/>
  <path class="cls-1" d="M33.9,11.2v-.3h0c0-.1,0-.1,0-.1.2-.1.8-.3,1.6-.3s.9.1,1.4.2h0v.6h-.2c-.4-.2-.9-.3-1.3-.3-.8,0-1.3.2-1.5.2,0,0-.2,0-.2,0Z"/>
  <path class="cls-1" d="M33.7,16.6v-.3h.3v.3c0,.4.6.9,1.5.9s1.5-.5,1.5-.9h0c0-.1,0-.1,0-.1h0v-.2c.2.1.2.2.2.2h0c0,.8-.9,1.3-1.8,1.3s-1.8-.4-1.8-1.2"/>
  <path class="cls-1" d="M34.1,16.6h0c0-.2,0-.4,0-.4h.3c0,.1,0,.2,0,.4h0c0,.1,0,.2.3.3s.5.2.8.2.6-.1.8-.2.3-.3.3-.3h0v-.2h0c0-.1.3-.1.3-.1h0v.2h0c0,.6-.6.9-1.4.9s-1.3-.3-1.4-.8M36.8,16.6h0ZM36.8,16.6h0c0,0,0,0,0,0"/>
  <path class="cls-1" d="M34,15.4s1.4-.5,2.9,0v.3c-1.5-.5-3,0-3,0v-.3h0Z"/>
  <path class="cls-1" d="M37,15.9c-.5-.1-1-.2-1.4-.2-.9,0-1.5.2-1.5.2h-.2c0,.1,0-.1,0-.1v-.3h0c0-.1,0-.1,0-.1,0,0,.7-.2,1.6-.2s.9,0,1.4.2h0c0,.1,0,.7,0,.7l-.2-.2ZM34.2,15.5c.3-.1.8-.1,1.4-.1s.8,0,1.3.1h0c-.4-.1-.9-.2-1.3-.2-.7,0-1.2.2-1.4.2h0Z"/>
  <path class="cls-1" d="M34,9.9s1.4-.5,2.9,0v.3c-1.5-.5-3,0-3,0v-.3h0Z"/>
  <path class="cls-1" d="M33.9,10.2v-.3h0c0-.1,0-.1,0-.1,0,0,.7-.2,1.6-.2s.9.1,1.4.2h0c0,.1,0,.7,0,.7h-.2c-.5-.2-1-.3-1.4-.3-.9,0-1.5.2-1.5.2h-.2c0,.1,0-.2,0-.2ZM34.2,10c.3-.1.8-.1,1.4-.1s.8,0,1.3.1h0c-.4-.1-.9-.2-1.3-.2-.7,0-1.2.1-1.4.2h0Z"/>
  <path class="cls-2" d="M35.5,13.3c.8,0,1.4-.4,1.4-.8s-.6-.8-1.4-.8-1.4.4-1.4.8.6.8,1.4.8"/>
  <path class="cls-1" d="M34,12.5c0-.6.7-1,1.6-1s1.5.4,1.6,1c0,.6-.7,1-1.6,1h0v-.2c.4,0,.7-.1.9-.2s.3-.3.3-.5,0-.3-.3-.5c-.2-.1-.6-.2-.9-.2s-.7.1-.9.2c-.2.1-.3.3-.3.5s0,.3.3.5c.2.1.6.2.9.2h0v.2c-.9,0-1.6-.4-1.6-1"/>
  <path class="cls-1" d="M34.3,12.5c0-.4.6-.7,1.3-.7s1.2.3,1.3.7c0,.4-.6.7-1.3.7s-1.3-.3-1.3-.7M34.8,12.7c.2.1.4.1.7.1s.5-.1.7-.1c.2-.1.2-.2.2-.2,0,0,0-.1-.2-.2-.2-.1-.4-.2-.7-.2s-.6.1-.7.2c-.2.1-.2.2-.2.2l.2.2"/>
  <path class="cls-1" d="M34.7,12.5h0s.3-.2.8-.2.8.2.8.3h0c0,.1-.3.3-.8.3s-.7-.4-.8-.4h0"/>
  <path class="cls-1" d="M34.6,12.5h0c0-.3.4-.4.9-.4s.8.2.9.3h0,0,0,0c0,.3-.4.4-.9.4s-.8-.1-.9-.3M35.5,12.6c.2,0,.4,0,.5-.1,0,0-.3-.1-.5-.1s-.4,0-.5.1c.2,0,.3.1.5.1M34.6,12.5h0Z"/>
  <path class="cls-1" d="M31,21v-.3c0,0,2.1.8,4.7.8s2.8-.2,4.3-.8v.3c-1.4.6-2.9.8-4.3.8-2.7,0-4.7-.8-4.7-.8"/>
  <path class="cls-1" d="M31,21.2v-.2c0,0,2.1.8,4.7.8s2.8-.2,4.3-.8v.3c-1.4.6-2.9.8-4.3.8-2.7,0-4.7-.9-4.7-.9"/>
  <path class="cls-1" d="M31,22.7v-.3c0,0,2.1.8,4.7.8s2.8-.2,4.3-.8v.3c-1.4.6-2.9.8-4.3.8-2.7,0-4.7-.8-4.7-.8"/>
  <path class="cls-1" d="M31.1,24s4.4,1.8,8.9,0v-1.2c-4.5,1.8-8.9,0-8.9,0v1.2Z"/>
  <path class="cls-1" d="M31,24.1h0c0-.1,0-.1,0-.1h-.2c0,.1,0,0,0,0v-1.2h.2c0-.1,1.9.7,4.6.7s2.8-.2,4.2-.8h.2v1.3h0c-1.5.7-3,.9-4.4.9-2.6.1-4.6-.8-4.6-.8M35.7,24.7c1.3,0,2.7-.2,4.1-.8v-.8c-1.4.5-2.9.7-4.1.7-2.2,0-3.9-.5-4.5-.8v.9c.4,0,2.2.8,4.5.8"/>
  <path class="cls-1" d="M31,24.4v-.3c0,0,2.1.8,4.7.8s2.8-.2,4.3-.8v.3c-1.4.6-2.9.8-4.3.8-2.7.1-4.7-.8-4.7-.8"/>
  <path class="cls-1" d="M30.9,25.9v-.3c0,0,2.1.8,4.7.8s2.8-.2,4.3-.8v.3c-1.4.6-2.9.8-4.3.8-2.7.1-4.7-.8-4.7-.8"/>
  <path class="cls-1" d="M31,26.2v-.3c0,0,2.1.8,4.7.8s2.8-.2,4.3-.8v.3c-1.4.6-2.9.8-4.3.8-2.7,0-4.7-.8-4.7-.8M31,26.2h0Z"/>
  <path class="cls-1" d="M40,26.9c-4.5,1.8-8.9,0-8.9,0v-.3s4.4,1.8,8.9,0v.3Z"/>
  <path class="cls-1" d="M31,27.1h0v-.4h.2c0-.1,2,.7,4.6.7s2.8-.2,4.2-.8h.2v.4h0,0v.2c-1.6.6-3.1.8-4.5.8-2.6-.1-4.6-.9-4.6-.9"/>
  <path class="cls-1" d="M31,30.8v-.3c0,0,2.1.8,4.7.8s2.8-.2,4.3-.8v.3c-1.4.6-2.9.8-4.3.8-2.7,0-4.7-.8-4.7-.8M31,30.8h0Z"/>
  <path class="cls-1" d="M31,27.7v-.3c0,0,.6.2,1.4.4.8.2,2,.4,3.3.4s2.8-.2,4.3-.8v.3c-1.4.6-2.9.8-4.3.8-2.7,0-4.7-.8-4.7-.8"/>
  <path class="cls-1" d="M31.6,22.4h0c0,0,0,.2-.3.3h-.2c0-.1,0-.2,0-.2.3-.1,0-.4.5-.7,0-.1.3-.1.4-.1.3,0,.6.2.6.5v.2c0,.3-.2.5-.5.6h0c-.2-.2-.4-.4-.4-.6M32,22.2h0M32,22.2q0,0,0,0h0c0,0,0-.1,0-.1h0M32.3,22c0-.1-.2-.1-.3-.1s0,0-.2.1h0s0,0,0-.1h0s.2,0,.3.1"/>
  <path class="cls-1" d="M32.7,22.7h0v-.3c0,.1,0,.3-.5.4,0,0-.2,0-.2-.1s0-.2,0-.2c.4-.2.2-.2.6-.5,0-.1.3-.1.4-.1.3,0,.6.2.6.5v.2c0,.3-.2.5-.5.6h0c0,0-.3-.3-.4-.5M33.2,22.6q0,0,0,0h0c0,0,0-.1,0-.1h0c0,0,0,0,0,.1h0ZM33.4,22.3c0-.1-.2-.1-.3-.1s0,0-.2.1h0s0,0,0-.1h0c0-.1.3,0,.3.1"/>
  <path class="cls-1" d="M33.9,22.9h0c0,0,0,.1-.4.3,0,0-.2,0-.2-.1s0-.2,0-.2c.4-.2,0-.3.5-.7,0-.1.3-.1.4-.1.3,0,.6.2.6.5v.2c0,.3-.2.5-.5.6h0c0,0-.4-.3-.4-.5M34.4,22.7h0M34.4,22.7h0c0,0,0-.1,0-.1h0s0,.1,0,.1M34.6,22.4c0-.1-.2-.1-.3-.1s0,0-.2.1h0s0-.1.2-.1h0s0,.1.2.1"/>
  <path class="cls-1" d="M35.6,23.3c-.2,0-.4-.2-.5-.4h0c0,.1-.2.2-.5.4,0,0-.2,0-.2-.1s0-.2,0-.2c.4-.2.2-.4.6-.8,0-.1.3-.1.4-.1.3,0,.6.2.6.5v.2c0,.3-.2.5-.5.6h0ZM35.6,22.8h0M35.6,22.8h0c0,0,0-.1,0-.1h0s0,0,0,.1M35.8,22.5c0-.1-.2-.1-.3-.1s0,0-.2.1h0s0,0,0-.1h0c.1,0,.2,0,.3.1"/>
  <path class="cls-1" d="M35.7,23.2c0-.1,0-.2,0-.2.4-.2.2-.5.5-.9,0-.1.3-.2.5-.2.3,0,.5.1.6.4,0,.1,0,.2,0,.3,0,.3-.2.5-.4.5h-.2c-.2,0-.4-.1-.5-.3h0c0,.1,0,.3-.4.4h0c0,0-.1,0-.2,0M36.9,22.7h0s0-.1,0,0h0c0,0,0-.1,0-.1h0s0,0,0,.1M36.8,22.3c0,0-.2,0-.2.1h.2c0-.1.2,0,.3,0,0-.1-.2-.1-.3-.1h0Z"/>
  <path class="cls-1" d="M37,23.1c0-.1,0-.2,0-.2.4-.1.3-.5.6-.9,0-.1.3-.2.5-.2.3,0,.5.1.6.4,0,.1,0,.2,0,.3,0,.3-.2.5-.4.5h-.2c-.2,0-.4-.1-.5-.3h0c0,.1-.2.4-.5.5h-.3M38.2,22.5h0M38.2,22.5h0c0,0,0-.1,0-.1h0c0,0,0,.1,0,.1M38.1,22.1c0,0-.2,0-.2.1h.2c0-.1.2,0,.3,0,0-.1-.2-.1-.3-.1h0Z"/>
  <path class="cls-1" d="M38.3,23c0-.1,0-.2,0-.2.4-.2.2-.6.5-1.1,0-.2.3-.3.5-.3s.4.1.6.3c0,.1,0,.3,0,.4,0,.2,0,.4-.3.5h-.2c-.2,0-.4-.1-.5-.3h0c0,.2,0,.4-.5.6h-.3M39.4,22.1h0s0-.1,0,0q0,0,0,0h0c0,0,0,0,0,0M39.4,22.1h0ZM39,21.9h0s0,0,0-.1h.2c0,0,.1,0,.2.1,0,0,0-.1-.2-.1,0,0-.2,0-.3.1"/>
  <path class="cls-1" d="M31.6,25.5h0c0,0,0,.2-.3.3h-.2c0-.1,0-.2,0-.2.3-.1,0-.4.5-.7,0-.1.3-.1.4-.1.3,0,.6.2.6.5v.2c0,.3-.2.5-.5.6h0c-.2-.2-.4-.3-.4-.6M32,25.4h0q0,0,0,0h0c0,0,0-.1,0-.1h0c0,0,0,.1,0,.1M32.3,25.1c0-.1-.2-.1-.3-.1s0,0-.2.1h0c0-.1,0-.1,0-.1,0,0,.2,0,.3.1"/>
  <path class="cls-1" d="M32.7,25.9h0v-.3c0,.1,0,.3-.5.4,0,0-.2,0-.2-.1s0-.2,0-.2c.4-.2.2-.2.6-.5,0-.1.3-.1.4-.1.3,0,.6.2.6.5v.2c0,.3-.2.5-.5.6h0c0,0-.3-.3-.4-.5M33.2,25.7h0M33.2,25.7h0c0,0,0-.1,0-.1h0M33.4,25.4c0-.1-.2-.1-.3-.1s0,0-.2.1h0s0,0,0-.1h0s.2.1.3.1"/>
  <path class="cls-1" d="M33.9,26h0c0,0,0,.1-.4.2,0,0-.2,0-.2-.1s0-.2,0-.2c.4-.2,0-.3.5-.7,0-.1.3-.1.4-.1.3,0,.6.2.6.5v.2c0,.3-.2.5-.5.6h0c-.2,0-.4,0-.4-.4M34.4,25.9h0c0,0,0-.1,0-.1h0ZM34.6,25.6c0-.1-.2-.1-.3-.1s0,0-.2.1h0c0,0,0-.1.2-.1h.3"/>
  <path class="cls-1" d="M35.6,26.5c-.2,0-.4-.2-.5-.4h0c0,.1-.2.2-.5.4,0,0-.2,0-.2-.1s0-.2,0-.2c.4-.1.2-.4.6-.8,0-.1.3-.1.4-.1.3,0,.6.2.6.5v.2c0,.2,0,.4-.5.5,0,0,0,0,0,0h0ZM35.6,26h0M35.6,26s0-.1,0,0h0c0,0,0-.1,0-.1h0s0,0,0,.1M35.8,25.7c0-.1-.2-.1-.3-.1s0,0-.2.1h0s0,0,0-.1h0c0-.1.2,0,.3.1"/>
  <path class="cls-1" d="M35.7,26.4c0-.1,0-.2,0-.2.4-.2.2-.5.5-.9,0-.1.3-.2.5-.2.3,0,.5.1.6.4,0,.1,0,.2,0,.3,0,.3-.2.5-.4.5h-.2c-.2,0-.4-.1-.5-.3h0c0,.1,0,.3-.4.4h0c0,.1,0,0-.2,0M36.9,25.8h0c0,0,0-.1,0-.1h0c0,0,0,.1,0,.1,0,0,0,0,0,0M36.8,25.4c0,0-.2,0-.2.1h.2c0-.1.2-.1.3,0,0,0-.2-.1-.3-.1h0Z"/>
  <path class="cls-1" d="M37,26.2c0-.1,0-.2,0-.2.4-.1.3-.5.6-.9,0-.1.3-.2.5-.2.3,0,.5.1.6.4,0,.1,0,.2,0,.3,0,.3-.2.5-.4.5h-.2c-.2,0-.4-.1-.5-.4h0c0,.1-.2.4-.5.5h0c-.1,0-.2,0-.2,0M38.2,25.7h0c0,0,0-.1,0-.1h0c0,0,0,0,0,.1M38.1,25.3c0,0-.2,0-.2.1h.2c0,0,0-.1,0-.1,0,0,.2.1.3.1,0-.1-.2-.1-.3-.1h0Z"/>
  <path class="cls-1" d="M38.3,26.1c0-.1,0-.2,0-.2.4-.2.2-.6.5-1.1,0-.2.3-.3.5-.3s.4.1.6.3c0,.1,0,.3,0,.4,0,.2,0,.4-.3.5h-.2c-.2,0-.4-.1-.5-.3h0c0,.2,0,.4-.5.6h0c-.1.1-.2.2-.2.1M39.4,25.3h0q0,0,0,0t0,0h0c0-.1,0,0,0,0M39.3,24.9c0,0-.2,0-.3.1h0c0-.1.2-.1.2-.1,0,0,.1,0,.2.1q0-.1-.2-.1h0Z"/>
  <path class="cls-1" d="M27.4,41.4v-.4h.3v.3c0,.6,0,1.7,1.4,1.7s.4,0,.6,0c.3,0,4.4-1.3,10.2-5l.2.3c-5.8,3.8-10,5-10.3,5.1h-.6c-1.6,0-1.7-1.4-1.8-2"/>
  <rect class="cls-1" x="19.6" y="41.4" width=".3" height="4.9"/>
  <path class="cls-1" d="M18.7,44.4s-1.1-.3-1.2-1.2v-.2c0-.2.4-.7,1-.8h.3v.2-.2q0,0,0,.2v1.8h0c0,0,0,0,0,0q0,0,0,0M17.8,43.2s0,0,0,0c0,.5.5.8.8.9v-1.4h0c-.4,0-.7.4-.7.5"/>
  <path class="cls-1" d="M18.7,43v.8s-.6,0-.6-.5c0-.2.3-.4.6-.3"/>
  <path class="cls-1" d="M18.7,44s-.6,0-.7-.6h0c0-.3.3-.6.6-.6h.2q0,0,0,.1v.8h0s0,.2,0,.2h0M18.3,43.3h0s0,.2.2.2h0v-.5h0c-.2,0-.3.2-.3.3"/>
  <path class="cls-1" d="M24.2,45c0-2.2.4-3.8.4-3.8h.3s-.4,1.7-.4,3.8,0,1.9.2,3h-.3c0-1.1-.2-2.1-.2-3"/>
  <path class="cls-1" d="M28.2,45.2c0-2.5.4-4.2.4-4.2h.3s-.4,1.8-.4,4.3,0,2.3.3,3.5h-.3c-.3-1.3-.3-2.6-.3-3.6"/>
  <path class="cls-1" d="M33.8,48.1c0-1.2.2-2.2.2-3.1,0-1.9-.2-3.2-.3-3.4-1-1-3.2-1.3-3.3-1.3v-.3s2.3.3,3.5,1.5h0s.3,1.4.3,3.6,0,2-.2,3.2l-.2-.2ZM30.5,40.2h0Z"/>
  <polygon class="cls-1" points="20.9 43.3 20.7 43.8 20.9 44.5 21 43.8 20.9 43.3"/>
  <path class="cls-1" d="M20.7,44.5v-.6h0l.2-.5h.3v.5h0v.6h-.5ZM20.7,43.3h0,0Z"/>
  <polygon class="cls-1" points="21.3 43.6 21.2 43.9 21.3 44.2 21.4 43.9 21.3 43.6"/>
  <path class="cls-1" d="M21.1,44.2v-.3h0v-.3h.4v.3h0v.3h-.4ZM21.1,43.6h0,0Z"/>
  <polygon class="cls-1" points="20.5 43.6 20.4 43.8 20.5 44.1 20.6 43.8 20.5 43.6"/>
  <path class="cls-1" d="M20.4,44.2v-.3h0v-.3h.4v.3h0v.3h-.4ZM20.4,43.6h0,0Z"/>
  <polygon class="cls-1" points="23.2 43.3 22.9 44.1 23.2 45 23.4 44.1 23.2 43.3"/>
  <path class="cls-1" d="M23,45l-.2-.9h0l.2-.9h.3l.2.8h0l-.2,1s-.3,0-.3,0ZM23.1,44.1v.3c0,0,.2-.3.2-.3v-.2c0,0-.2.2-.2.2ZM23,43.4h0,0Z"/>
  <polygon class="cls-1" points="23.7 43.8 23.6 44.2 23.7 44.6 23.8 44.2 23.7 43.8"/>
  <path class="cls-1" d="M23.6,44.7v-.4h0v-.4h.4v.4h0v.4h-.4ZM23.6,43.8h0,0Z"/>
  <polygon class="cls-1" points="22.6 43.7 22.5 44.1 22.6 44.5 22.7 44.1 22.6 43.7"/>
  <path class="cls-1" d="M22.3,44.2h0v-.5h.4v.4h0v.4h-.4v-.4h0ZM22.5,43.8h0,0Z"/>
  <polygon class="cls-1" points="26.3 43.6 26.1 44.6 26.3 45.6 26.6 44.6 26.3 43.6"/>
  <path class="cls-1" d="M26.2,45.7l-.3-1h0l.3-1h.3l.2.9h0l-.3,1.1h-.2ZM26.2,44.6v.4c0,0,.2-.4.2-.4v-.4c0,0-.2.4-.2.4ZM26.2,43.7h0,0Z"/>
  <polygon class="cls-1" points="27 44.1 26.9 44.6 27 45.1 27.1 44.6 27 44.1"/>
  <path class="cls-1" d="M26.9,45.2v-.5h0v-.5h.4v.5h0v.5h-.4ZM26.9,44.2h0,0Z"/>
  <polygon class="cls-1" points="25.7 44.1 25.5 44.5 25.7 45.1 25.8 44.5 25.7 44.1"/>
  <path class="cls-1" d="M25.5,45.1v-.5h0v-.5h.4v.5h0v.5h-.4ZM25.5,44.1h0,0Z"/>
  <polygon class="cls-1" points="29.5 44.2 29.3 45 29.5 45.9 29.7 45 29.5 44.2"/>
  <path class="cls-1" d="M29.3,45.9l-.2-.9h0l.2-.8h.3l.2.8h0l-.2,1h-.3ZM29.4,45v.2c0,0,.2-.3.2-.3v-.2c0,0-.2.3-.2.3ZM29.4,44.3h0,0Z"/>
  <polygon class="cls-1" points="30.1 44.7 30 45.1 30.1 45.5 30.2 45.1 30.1 44.7"/>
  <path class="cls-1" d="M29.9,45.5v-.4h0v-.4h.4v.4h0v.4h-.4ZM29.9,44.7h0,0Z"/>
  <polygon class="cls-1" points="29 44.6 28.8 45 28.9 45.4 29 45 29 44.6"/>
  <path class="cls-1" d="M28.8,45.5v-.4h0v-.4h.4v.4h0v.4h-.4ZM28.8,44.7h0,0Z"/>
  <path class="cls-1" d="M19.4,45.7s-1.9-.7-2.5-1.7c0-.2-.2-.6-.3-.9h0s.3-1,1.1-1.3c.2,0,.4-.2.9-.2h.8v.2-.2q0,0,0,.2v3.7h0s0,0,0,0h0M17.1,43.8c.4.6,1.7,1.2,2.2,1.5v-3.4h-.6c-.5,0-.6,0-.9.2-.5.2-.8.9-.9,1.1,0,0,.2.6.2.6"/>
  <path class="cls-1" d="M18.7,42.4h0c0-.4.5-.6.5-.6h0v.3c0,0,0,0,0,0h.2s0,0,0,.2,0,.3-.2.4h0c-.2,0-.4-.3-.4-.5M19.2,42.6h0s0,0,0,0h0v-.3h-.2c0,.2,0,.3.2.3"/>
  <path class="cls-1" d="M18.2,42.6c-.2,0-.3,0-.4-.2h0c0-.4.2-.5.4-.6h0c.4,0,.6.5.6.5h0l-.3.2s0,0,0-.2h0s0,.2-.2.3h0ZM18.1,42.3h.3c0,0-.1,0-.2-.2h0q0,0,0,.2h0"/>
  <path class="cls-1" d="M17.2,43c0,0-.2-.2-.2-.3s0-.3.2-.4h.8v.3h-.3c0,0,0,0,0,.2,0,.3-.3.3-.4.3h-.2M17.5,42.5h0c0,0,0,0,0,.2h0l.2-.2s0,0-.2,0h0"/>
  <path class="cls-1" d="M17.4,43.9c-.3,0-.4-.3-.4-.5,0-.4.6-.5.6-.5h0v.3c0,0,0,0,0,0,.2,0,.3.2.3.3,0,0-.2.2-.4.3h0M17.4,43.6h0s0,0,0,0v-.3h0c0,0,0,.2,0,.2M17.2,43.4h0M16.9,43.3s0,0,0,0t0,0h0"/>
  <path class="cls-1" d="M17.8,44.6c-.2,0-.3,0-.4-.2,0,0,0-.2,0-.2,0-.3.2-.5.2-.6h0l.3.2s0,0,0,.2h.2c.3,0,.3.3.3.4s0,0,0,.2h-.3ZM17.8,44.3s0,0,0,0q0,0,0,0t0,0v-.3c0,0,0,0,0,.2h0M17.9,44.2h0"/>
  <path class="cls-1" d="M18.5,45.1h-.3c-.2,0-.2-.3-.2-.5v-.3h.3v.2h.2c.3,0,.3.2.3.4h0c0,.3-.2.4-.3.4h0v-.2ZM18.5,44.8h0c0-.1,0-.1,0,0l-.2-.2v.2h0c0,0,0,0,.2,0"/>
  <path class="cls-1" d="M18.7,43.3s0,0,0,0c0-.4.5-.6.5-.6h0v.3c0,0,0,0,0,0h.2s0,0,0,.2,0,.3-.2.4h0c-.2,0-.4-.3-.4-.5M19.2,43.4h0v-.3c0,0,0,0,0,.2h0c0,0,0,0,0,0"/>
  <path class="cls-1" d="M18.7,44.1h0c0-.4.5-.6.5-.6h0v.3c0,0,0,0,0,0h.2s0,0,0,.2,0,.3-.2.4h0c-.2,0-.4-.3-.4-.5M19.2,44.2h0v-.3h0c0,.3,0,.4,0,.3"/>
  <path class="cls-1" d="M18.7,44.9h0c0-.4.5-.6.5-.6h0v.3c0,0,0,0,0,0h.2s0,0,0,.2,0,.3-.2.4h0c-.2,0-.4-.2-.4-.5M19.1,45.1h0s0,0,0,0h0v-.3h-.2c0,.2,0,.3.2.3"/>
  <rect class="cls-2" x="9.9" y="30.4" width="11.4" height="7.6"/>
  <path class="cls-1" d="M9.6,38.2v-8.1h11.8v8.1h-11.8ZM21.2,38v-.2.2ZM10.1,37.8h10.9v-7.2h-10.9s0,7.2,0,7.2Z"/>
  <rect class="cls-1" x="9.9" y="31.8" width="11.2" height=".3"/>
  <rect class="cls-1" x="9.9" y="36.3" width="11.2" height=".3"/>
  <path class="cls-1" d="M20.9,30.5h.3v.3h-.3v-.3ZM20.3,30.5h.3v.3h-.3v-.3ZM19.7,30.5h.3v.3h-.3s0-.3,0-.3ZM19,30.5h.3v.3h-.3v-.3ZM18.4,30.5h.3v.3h-.3v-.3ZM17.8,30.5h.3v.3h-.3v-.3ZM17.2,30.5h.3v.3h-.3v-.3ZM16.6,30.5h.3v.3h-.3v-.3ZM16,30.5h.3v.3h-.3v-.3ZM15.4,30.5h.3v.3h-.3v-.3ZM14.8,30.5h.3v.3h-.3v-.3ZM14.2,30.5h.3v.3h-.3v-.3ZM13.6,30.5h.3v.3h-.3v-.3ZM13,30.5h.3v.3h-.3v-.3ZM12.3,30.5h.3v.3h-.3v-.3ZM11.7,30.5h.3v.3h-.3v-.3ZM11.1,30.5h.3v.3h-.3v-.3ZM10.5,30.5h.3v.3h-.3v-.3ZM9.9,30.5h.3v.3h-.3v-.3Z"/>
  <path class="cls-1" d="M20.9,31.4h.3v.3h-.3v-.3ZM20.3,31.4h.3v.3h-.3v-.3ZM19.7,31.4h.3v.3h-.3s0-.3,0-.3ZM19,31.4h.3v.3h-.3v-.3ZM18.4,31.4h.3v.3h-.3v-.3ZM17.8,31.4h.3v.3h-.3v-.3ZM17.2,31.4h.3v.3h-.3v-.3ZM16.6,31.4h.3v.3h-.3v-.3ZM16,31.4h.3v.3h-.3v-.3ZM15.4,31.4h.3v.3h-.3v-.3ZM14.8,31.4h.3v.3h-.3v-.3ZM14.2,31.4h.3v.3h-.3v-.3ZM13.6,31.4h.3v.3h-.3v-.3ZM13,31.4h.3v.3h-.3v-.3ZM12.3,31.4h.3v.3h-.3v-.3ZM11.7,31.4h.3v.3h-.3v-.3ZM11.1,31.4h.3v.3h-.3v-.3ZM10.5,31.4h.3v.3h-.3v-.3ZM9.9,31.4h.3v.3h-.3v-.3Z"/>
  <path class="cls-1" d="M20.9,36.7h.3v.3h-.3v-.3ZM20.3,36.7h.3v.3h-.3v-.3ZM19.7,36.7h.3v.3h-.3s0-.3,0-.3ZM19.1,36.7h.3v.3h-.3v-.3ZM18.5,36.7h.3v.3h-.3v-.3ZM17.8,36.7h.3v.3h-.3v-.3ZM17.2,36.7h.3v.3h-.3v-.3ZM16.6,36.7h.3v.3h-.3v-.3ZM16,36.7h.3v.3h-.3v-.3ZM15.4,36.7h.3v.3h-.3v-.3ZM14.8,36.7h.3v.3h-.3v-.3h0ZM14.2,36.7h.3v.3h-.3v-.3ZM13.6,36.7h.3v.3h-.3v-.3ZM13,36.7h.3v.3h-.3v-.3ZM12.4,36.7h.3v.3h-.3v-.3ZM11.7,36.7h.3v.3h-.3v-.3ZM11.1,36.7h.3v.3h-.3v-.3ZM10.5,36.7h.3v.3h-.3v-.3ZM9.9,36.7h.3v.3h-.3v-.3Z"/>
  <path class="cls-1" d="M20.9,37.5h.3v.3h-.3v-.3ZM20.3,37.5h.3v.3h-.3v-.3ZM19.7,37.5h.3v.3h-.3s0-.3,0-.3ZM19,37.5h.3v.3h-.3v-.3ZM18.4,37.5h.3v.3h-.3v-.3ZM17.8,37.5h.3v.3h-.3v-.3ZM17.2,37.5h.3v.3h-.3v-.3ZM16.6,37.5h.3v.3h-.3v-.3ZM16,37.5h.3v.3h-.3v-.3ZM15.4,37.5h.3v.3h-.3v-.3ZM14.8,37.5h.3v.3h-.3v-.3ZM14.2,37.5h.3v.3h-.3v-.3ZM13.6,37.5h.3v.3h-.3v-.3ZM13,37.5h.3v.3h-.3v-.3ZM12.4,37.5h.3v.3h-.3v-.3ZM11.7,37.5h.3v.3h-.3v-.3ZM11.1,37.5h.3v.3h-.3v-.3ZM10.5,37.5h.3v.3h-.3v-.3ZM9.9,37.5h.3v.3h-.3v-.3Z"/>
  <path class="cls-1" d="M16.6,35.6h-.2c0,0-.4.2-.7.2h-.3c-.4,0-.7-.3-.8-.4-.3.3-.6.4-.8.4-.5,0-.7-.5-.8-.7h0c-.3,0-1.2,0-1.3-1h0c0-1.1,1-1.2,1.3-1.2,0-.2.3-.7.8-.7s.5,0,.8.4h0c0-.2.4-.3.7-.3h.3c.4,0,.7.3.8.4.3-.3.6-.4.8-.4.5,0,.7.5.8.7.3,0,1.2,0,1.3,1.1h0,0c0,.9-.9,1-1.2,1h0c0,.2-.3.7-.8.7s-.5-.2-.8-.4M17.9,35h.2c.3,0,.9,0,.9-.7h0c0-.8-.7-.9-.9-.9h-.2s-.2-.8-.5-.7c0,0-.3,0-.6.4h0c-.2,0-.2,0-.4,0s-.3-.2-.5-.2h-.3c-.2,0-.4,0-.5.2,0,0,0,.2-.4.2s0,0,0,0c-.3-.3-.5-.4-.6-.4-.3,0-.5.6-.5.6h-.2c-.3,0-1,0-1,.8h0c0,.8.6.8.9.8h.2s.2.8.5.7c0,0,.4,0,.6-.4h0c.2,0,.2,0,.4,0s.3.2.5.2h.3c.2,0,.4,0,.5-.2,0,0,0-.2.4-.2s0,0,0,0c.3.3.5.4.6.4.4,0,.6-.5.6-.6"/>
  <path class="cls-1" d="M12.3,34.1h0c0-.5.4-.7.7-.7h.2v.3h-.2c-.2,0-.3,0-.4.4h0s0,.3.3.3h.2v.3h-.2c-.5,0-.6-.4-.6-.6"/>
  <path class="cls-1" d="M18.1,34.7v-.3h.3c.2,0,.3-.3.3-.3h0c0-.4-.2-.4-.4-.4h0v-.3c0,0,0,0,0,0,.2,0,.6,0,.7.7h0c0,.2,0,.6-.6.6,0,0-.2,0-.3,0"/>
  <path class="cls-1" d="M13.8,33.4h0ZM13.5,33.3s0-.5.4-.5.4,0,.6.3l-.2.2-.3-.3h0v.2h-.4Z"/>
  <path class="cls-1" d="M17.5,33.2h0s0,0-.3.3l-.2-.2c.2-.2.4-.3.6-.3.4,0,.4.5.4.5h-.3c0,0-.1,0,0-.2"/>
  <path class="cls-1" d="M13.5,35h.3v.2h0s0,0,.3-.3l.2.2c-.2.2-.4.3-.6.3-.3,0-.3-.5-.3-.5"/>
  <path class="cls-1" d="M16.8,35.2l.2-.2c.2.2.3.3.3.2h0v-.2h.3s0,.5-.4.5c0,0-.3,0-.5-.2"/>
  <path class="cls-1" d="M14.6,34c0-.5.4-1,1-1s1,.4,1,1-.4,1-1,1v-.4c.4,0,.7-.3.7-.7s-.3-.7-.7-.7-.7.3-.7.7.3.7.7.7v.4c-.5,0-1-.4-1-1"/>
  <path class="cls-2" d="M25.5,33.8c-.4-2.1-.9-2.4-1.8-2.3-.9.2-1.4,1.5-1.1,2.9s1.2,2.4,2.1,2.3c.8-.2,1.1-1.2.8-2.9M24.6,36.4c-.3,0-.6,0-.7-.2-.5-.3-.9-1.1-1.1-1.9-.2-1.3.2-2.4.9-2.6h.7c.3.2.6.9.8,2,.3,1.6,0,2.5-.6,2.6"/>
  <path class="cls-1" d="M22.4,34.4c0-.3,0-.5,0-.8,0-1.1.5-2.1,1.3-2.3h.4c.8,0,1.3.6,1.6,2.4h-.2.2c0,.5,0,.8,0,1.2,0,1-.4,1.7-1.1,1.8h-.2c-.9,0-1.8-.9-2-2.3M23.7,31.9c-.5,0-.9.8-.9,1.7s0,.4,0,.7c0,.8.5,1.5,1,1.8,0,0,.3.2.5.2h0c.4,0,.7-.5.7-1.3s0-.7,0-1.1c-.2-1.1-.5-1.7-.7-1.9h-.7"/>
  <polygon class="cls-2" points="23.3 35.4 22.9 33 20.1 33 20.1 35.4 23.3 35.4"/>
  <path class="cls-1" d="M20,35.6v-2.7h3.1l.4,2.6h0v-.2.2h0v.2h-3.5ZM20.3,35.3h2.8l-.3-2.1h-2.5v2.1h0Z"/>
  <polygon class="cls-2" points="20.4 35.1 20.4 33.3 20.5 33.3 22.6 33.3 22.7 33.3 23 35.2 20.5 35.2 20.4 35.1"/>
  <path class="cls-1" d="M20.4,35.3h0v-.2h0,0v.2h0v-2.1h2.5v.2c0,0,.4,2,.4,2h-2.8ZM22.8,35l-.3-1.6h-2v1.6h2.3Z"/>
  <path class="cls-1" d="M20.6,34.2c0-.5.5-.8,1.1-.8s1,.3,1.1.8c0,.5-.5.8-1.1.8v-.4c.4,0,.7-.3.8-.5,0-.2-.3-.5-.8-.5s-.7.3-.8.5c0,.2.3.5.8.5v.4c-.6,0-1.1-.3-1.1-.8"/>
  <path class="cls-1" d="M20.8,34.2c0-.3.4-.5.8-.5s.8.2.8.5-.4.5-.8.5-.7-.2-.8-.5M21.1,34.2h0c0,0,.2.2.4.2h.5-1"/>
  <path class="cls-1" d="M21.2,34.2h.8-.8"/>
  <path class="cls-1" d="M21.1,34.2h0c0-.2.3-.3.5-.3.3,0,.4,0,.5.2h0,.2,0,0c0,0-.3.2-.5.2-.4,0-.5,0-.6,0M22.1,34.2h0Z"/>
  <path class="cls-1" d="M20.4,33.8v-.3h.4l.3-.2v.2c0,.4-.4.4-.5.4h-.2"/>
  <path class="cls-1" d="M22.2,33.4v-.2h.3v.2h.3v.3q0,0,0,0c-.3,0-.6,0-.6-.4"/>
  <path class="cls-1" d="M20.7,35.1h0c0-.2,0-.2-.2-.2h0v-.3q0,0,0,0c0,0,.5,0,.5.4v.2h-.2Z"/>
  <path class="cls-1" d="M22.3,35c0-.4.4-.4.5-.4h0v.3h-.4l-.3.2c0,0,0-.2,0-.2"/>
  <rect class="cls-2" x="49.9" y="30.4" width="11.4" height="7.6"/>
  <path class="cls-1" d="M49.9,38.2v-.2h.2-.2v.2h-.2v-8.1h11.8v8.1h-11.6ZM61,30.6h-10.9v7.2h10.9v-7.2h0Z"/>
  <rect class="cls-1" x="49.9" y="31.8" width="11.2" height=".3"/>
  <rect class="cls-1" x="50" y="36.3" width="11.3" height=".3"/>
  <path class="cls-1" d="M60.9,30.5h.3v.3h-.3v-.3ZM60.3,30.5h.3v.3h-.3v-.3ZM59.6,30.5h.3v.3h-.3v-.3ZM59,30.5h.3v.3h-.3v-.3ZM58.4,30.5h.3v.3h-.3v-.3ZM57.8,30.5h.3v.3h-.3v-.3ZM57.2,30.5h.3v.3h-.3v-.3ZM56.6,30.5h.3v.3h-.3v-.3ZM56,30.5h.3v.3h-.3v-.3ZM55.4,30.5h.3v.3h-.3v-.3ZM54.8,30.5h.3v.3h-.3v-.3ZM54.2,30.5h.3v.3h-.3v-.3ZM53.6,30.5h.3v.3h-.3v-.3ZM53,30.5h.3v.3h-.3v-.3ZM52.3,30.5h.3v.3h-.3v-.3ZM51.7,30.5h.3v.3h-.3v-.3ZM51.1,30.5h.3v.3h-.3v-.3ZM50.5,30.5h.3v.3h-.3v-.3ZM49.9,30.5h.3v.3h-.3v-.3Z"/>
  <path class="cls-1" d="M60.9,31.4h.3v.3h-.3v-.3ZM60.3,31.4h.3v.3h-.3v-.3ZM59.6,31.4h.3v.3h-.3v-.3ZM59,31.4h.3v.3h-.3v-.3ZM58.4,31.4h.3v.3h-.3v-.3ZM57.8,31.4h.3v.3h-.3v-.3ZM57.2,31.4h.3v.3h-.3v-.3ZM56.6,31.4h.3v.3h-.3v-.3ZM56,31.4h.3v.3h-.3v-.3ZM55.4,31.4h.3v.3h-.3v-.3ZM54.8,31.4h.3v.3h-.3v-.3ZM54.2,31.4h.3v.3h-.3v-.3ZM53.6,31.4h.3v.3h-.3v-.3ZM53,31.4h.3v.3h-.3v-.3ZM52.3,31.4h.3v.3h-.3v-.3ZM51.7,31.4h.3v.3h-.3v-.3ZM51.1,31.4h.3v.3h-.3v-.3ZM50.5,31.4h.3v.3h-.3v-.3ZM49.9,31.4h.3v.3h-.3v-.3Z"/>
  <path class="cls-1" d="M60.9,36.7h.3v.3h-.3v-.3ZM60.2,36.7h.3v.3h-.3v-.3ZM59.6,36.7h.3v.3h-.3v-.3ZM59,36.7h.3v.3h-.3v-.3ZM58.4,36.7h.3v.3h-.3v-.3ZM57.8,36.7h.3v.3h-.3v-.3ZM57.2,36.7h.3v.3h-.3v-.3ZM56.6,36.7h.3v.3h-.3v-.3ZM56,36.7h.3v.3h-.3v-.3ZM55.4,36.7h.3v.3h-.3v-.3ZM54.8,36.7h.3v.3h-.3v-.3ZM54.1,36.7h.3v.3h-.3v-.3ZM53.5,36.7h.3v.3h-.3v-.3ZM52.9,36.7h.3v.3h-.3v-.3ZM52.3,36.7h.3v.3h-.3v-.3ZM51.7,36.7h.3v.3h-.3v-.3ZM51.1,36.7h.3v.3h-.3v-.3ZM50.5,36.7h.3v.3h-.3v-.3ZM49.9,36.7h.3v.3h-.3v-.3Z"/>
  <path class="cls-1" d="M60.9,37.6h.3v.3h-.3v-.3ZM60.2,37.6h.3v.3h-.3v-.3ZM59.6,37.6h.3v.3h-.3v-.3ZM59,37.6h.3v.3h-.3v-.3ZM58.4,37.6h.3v.3h-.3v-.3ZM57.8,37.6h.3v.3h-.3v-.3ZM57.2,37.6h.3v.3h-.3v-.3ZM56.6,37.6h.3v.3h-.3v-.3ZM56,37.6h.3v.3h-.3v-.3ZM55.4,37.6h.3v.3h-.3v-.3ZM54.8,37.6h.3v.3h-.3v-.3ZM54.2,37.6h.3v.3h-.3v-.3ZM53.5,37.6h.3v.3h-.3v-.3ZM52.9,37.6h.3v.3h-.3v-.3ZM52.3,37.6h.3v.3h-.3v-.3ZM51.7,37.6h.3v.3h-.3v-.3ZM51.1,37.6h.3v.3h-.3v-.3ZM50.5,37.6h.3v.3h-.3v-.3ZM49.9,37.6h.3v.3h-.3v-.3Z"/>
  <path class="cls-1" d="M56.4,35.6h-.2c0,0-.4.2-.7.2h-.3c-.5,0-.7-.3-.8-.4-.3.3-.6.4-.8.4-.5,0-.7-.5-.8-.7h0c-.3,0-1.2,0-1.2-1h0c0-1.1.9-1.2,1.3-1.1,0-.2.2-.7.8-.7s.5,0,.8.4h.2c0,0,.4-.2.7-.2h.2c.5,0,.7.3.8.4.3-.3.6-.4.8-.4.5,0,.7.5.8.7.3,0,1.2,0,1.3,1.1h0c0,1-.9,1.1-1.3,1.1h0c0,.2-.3.7-.8.7s-.5-.2-.8-.5M57.7,35.1h.2c.3,0,.9,0,1-.7h0c0-.8-.7-.9-1-.9h-.2s-.2-.8-.5-.7c0,0-.4,0-.6.4h0c-.2,0-.2,0-.4,0s-.3-.2-.5-.2h-.3c-.2,0-.4,0-.5.2,0,0,0,.2-.4.2h0c-.3-.3-.5-.4-.6-.4-.3,0-.5.6-.5.6h-.2c-.3,0-.9,0-1,.8h0c0,.8.6.8.9.8h.2s.2.8.5.7c0,0,.3,0,.6-.4h0c.2,0,.2,0,.4,0s.3.2.5.2h.3c.2,0,.4,0,.5-.2,0,0,0-.2.4-.2h0c.3.3.5.4.6.4.5,0,.6-.6.6-.6M56.5,32.7h0Z"/>
  <path class="cls-1" d="M57.9,34.7v-.3h.3c.2,0,.3-.3.3-.3h0c0-.4-.2-.4-.4-.4h0v-.3c0,0,0,0,0,0,.2,0,.6,0,.7.7h0c0,.2,0,.6-.6.6,0,0-.2,0-.3,0"/>
  <path class="cls-1" d="M52.1,34.1h0c0-.5.4-.7.7-.7h.2v.3h-.2c-.2,0-.3,0-.4.4h0s0,.3.3.3h.2v.3h-.2c-.5,0-.6-.4-.6-.6"/>
  <path class="cls-1" d="M57.2,33.2h0s0,0-.3.3l-.2-.2c.2-.2.4-.3.5-.3.4,0,.4.5.4.5h-.3q0,0,0-.2"/>
  <path class="cls-1" d="M53.6,33.3h0ZM53.2,33.3s0-.5.4-.5.4,0,.5.3l-.2.2c-.2-.2-.3-.3-.3-.3h0v.2h-.3Z"/>
  <path class="cls-1" d="M56.6,35.2l.2-.2c.2.2.3.3.3.3h0v-.2h.3s0,.5-.4.5-.3,0-.5-.3"/>
  <path class="cls-1" d="M53.3,35h.3v.2h0s0,0,.3-.2l.2.2c-.2.2-.4.3-.5.3-.4,0-.4-.6-.4-.6"/>
  <path class="cls-1" d="M54.5,34c0-.5.5-1,1-1s1,.4,1,1-.5,1-1,1v-.4c.4,0,.7-.3.7-.7s-.3-.7-.7-.7-.7.3-.7.7.3.7.7.7v.4c-.6,0-1-.4-1-1"/>
  <path class="cls-2" d="M46.5,36.7c.9.2,1.8-.8,2.1-2.3.3-1.4-.3-2.7-1.1-2.9-.9-.2-1.5.2-1.9,2.3-.3,1.7,0,2.7.9,2.9M45.8,33.8c.2-1.1.5-1.7.8-2,.2,0,.4-.2.7,0,.7,0,1.2,1.3.9,2.6,0,.8-.5,1.5-1,1.9-.2,0-.4.3-.7.2-.7,0-.9-1-.7-2.6"/>
  <path class="cls-1" d="M46.5,36.8v-.2.2c-.8,0-1.1-.8-1.1-1.8s0-.8,0-1.2c.3-1.8.8-2.4,1.6-2.4h.4c.9.2,1.3,1.2,1.3,2.3s0,.5,0,.8c-.3,1.4-1.1,2.4-2.2,2.3,0,0,0,0,0,0M45.9,35c0,.8.2,1.2.7,1.3h0c.2,0,.4,0,.5-.2.5-.3.9-1,1-1.8,0-.2,0-.4,0-.7,0-.9-.4-1.7-.9-1.7h-.7c-.3.2-.5.8-.7,1.9,0,.4,0,.8,0,1.1"/>
  <polygon class="cls-2" points="47.8 35.4 48.1 33 50.9 33 50.9 35.4 47.8 35.4"/>
  <path class="cls-1" d="M47.8,35.6v-.2h0,0v.2h-.2l.4-2.7h3.1v2.7h-3.3ZM50.8,35.3v-2.1h-2.5l-.3,2.1h2.8Z"/>
  <polygon class="cls-2" points="50.7 35.1 50.7 33.3 50.6 33.3 48.5 33.3 48.4 33.3 48.1 35.2 50.6 35.2 50.7 35.1"/>
  <path class="cls-1" d="M47.9,35.3l.3-2h0v-.2h2.5v2h0v.2h-2.8ZM48.3,35h2.3v-1.6h-2l-.3,1.6Z"/>
  <path class="cls-1" d="M48.4,34.2c0-.5.5-.8,1-.8s1,.3,1,.8-.5.8-1,.8v-.4c.5,0,.7-.3.7-.5s-.3-.5-.7-.5-.7.3-.8.5c0,.2.3.5.8.5v.4c-.5,0-1-.3-1-.8"/>
  <path class="cls-1" d="M48.7,34.2c0-.3.4-.5.8-.5s.8.2.8.5-.4.5-.8.5-.8-.2-.8-.5M49.1,34.1h0,0c0,0,.2.2.4.2h.5-.9"/>
  <path class="cls-1" d="M49.8,34.2s0,0,0,0h-.8.8c0,0,0,0,0,0"/>
  <path class="cls-1" d="M48.9,34.2h0c0-.2.3-.3.5-.3.3,0,.4,0,.5.2h0,0c0,0-.3.2-.5.2s-.4,0-.5,0M50,34.3h0Z"/>
  <path class="cls-1" d="M50.1,33.4v-.2h.3v.2h.2v.3h0s-.4,0-.4-.4"/>
  <path class="cls-1" d="M48.3,33.8v-.3h.2l.3-.2v.2c0,.4-.4.4-.5.4,0,0,0,0,0,0"/>
  <path class="cls-1" d="M50.1,35c0-.4.4-.4.5-.4h0v.3h-.2l-.3.2c0,0,0-.2,0-.2"/>
  <path class="cls-1" d="M48.4,35.1h0s0,0-.2-.2h0v-.3h0c0,0,.5,0,.5.4v.2h-.4ZM48.2,34.9h0Z"/>
  <path class="cls-2" d="M35.5,36.5c2.8,0,5.2-.4,6.5-1h3.8l.4-2.4h-4.1c-1.3.6-3.8,1-6.5,1h0c-2.8,0-5.2-.4-6.5-1h-4.1l.4,2.4h3.7c1.2.6,3.6,1,6.4,1h0Z"/>
  <path class="cls-1" d="M35.5,36.5v.2c-2.8,0-5.2-.4-6.6-1.1h-3.8l-.4-2.7h4.3c1.3.6,3.7,1,6.5,1h0c2.8,0,5.2-.4,6.5-1h4.3l-.4,2.7h-3.8c-1.4.7-3.8,1.1-6.6,1.1v-.2h0ZM25.4,35.3h3.6c1.3.6,3.7,1,6.5,1s5.2-.4,6.5-1h3.7l.3-2.1h-3.9c-1.4.7-3.8,1.1-6.6,1.1h0c-2.8,0-5.3-.4-6.6-1.1h-4l.5,2.1ZM35.5,36.7h0Z"/>
  <path class="cls-1" d="M35.5,36.3h0c-2.7,0-5.1-.4-6.5-1h-3.7v-.3h3.8c1.3.6,3.7,1,6.4,1h0c2.6,0,5.1-.4,6.4-1h3.9v.3h-3.8c-1.3.6-3.8,1-6.5,1h0Z"/>
  <path class="cls-1" d="M35.5,34.7c-2.8,0-5.2-.4-6.7-1.1h-3.9v-.3h4c1.4.7,3.8,1,6.6,1h0c2.7,0,5.2-.4,6.6-1h4v.3h-3.9c-1.4.7-3.9,1.1-6.7,1.1h0Z"/>
  <path class="cls-1" d="M41,35.2c-.3,0-.5-.3-.5-.6v-.2c0-.3.4-.5.6-.5h.4c.4.3.3.6.5.7q0,0,0,.2h-.2c-.2,0-.3-.3-.3-.4h0v.2c0,.4,0,.6-.5.5,0,0,0,0,0,0M41.1,34.7h0,0q0,0,0,0h0ZM40.9,34.4h.6-.6"/>
  <path class="cls-1" d="M42.5,35c-.2,0-.4-.2-.4-.5v-.2c0-.3.3-.4.5-.4h.3c.3.3.2.3.5.5q0,0,0,.2h-.2c0,0-.2-.2-.3-.2h0c0,.4,0,.5-.4.5,0,0,0,0,0,0"/>
  <path class="cls-1" d="M45,34.7h0s0,0,0,0h-.5v-.2c.2,0,.2-.2.5-.5h.3c.3,0,.5.2.5.4v.2c0,.3-.2.5-.4.5h0s-.3-.2-.3-.4"/>
  <path class="cls-1" d="M39.9,35.5c-.3,0-.5-.3-.5-.6v-.2c0-.3.4-.5.6-.5h.4c.4.3.2.4.6.5q0,0,0,.2c0,.2,0,0-.2,0-.3,0-.4-.3-.5-.4,0,0,0,0,0,.2h0c0,.5-.2.6-.6.6h0M40,35h0,0ZM39.8,34.7h.6-.6"/>
  <path class="cls-1" d="M38.8,35.7c-.3,0-.5-.3-.5-.6v-.2c0-.3.4-.5.6-.5h.4c.4.3.2.5.6.6q0,0,0,.2c0,.2,0,0-.2,0-.2,0-.3-.2-.4-.3h0c0,.5-.3.7-.6.6q0,0,0,0M38.9,35.2h0,0ZM38.7,34.9h.6-.6"/>
  <path class="cls-1" d="M37.5,35.9c-.3,0-.5-.3-.5-.6v-.2c0-.3.4-.5.6-.5h.4c.4.3.3.6.6.7q0,0,0,.2c0,.2,0,0-.2,0-.3,0-.4-.3-.5-.4h0v.2c0,.2,0,.4-.5.4q0,0,0,0M37.7,35.4h0c0,0-.2,0,0,0h0q0,0,0,0h0ZM37.4,35.1h.6-.2c-.2,0-.3,0-.4,0"/>
  <path class="cls-1" d="M36.2,36c-.3,0-.5-.3-.5-.6h0c0-.4.4-.6.7-.6h.3c.4.3.3.7.7.7s0,0,0,.2,0,0-.2,0c-.3,0-.5-.3-.6-.4h0c0,.2,0,0,0,0,0,.2-.2.4-.5.4h0M36.3,35.4h0c0,0-.2,0,0,0h0ZM36,35.1h.5-.5"/>
  <path class="cls-1" d="M43,34.2c0-.5.5-.8,1-.8s1,.3,1,.8-.5.8-1,.8v-.4c.5,0,.7-.3.7-.5s-.3-.5-.7-.5-.7.3-.8.5c0,.2.3.5.8.5v.4c-.5,0-1-.3-1-.8"/>
  <path class="cls-1" d="M43.2,34.2c0-.3.4-.5.8-.5s.8.2.8.5-.4.5-.8.5-.7,0-.8-.5M44.4,34.3h0,0c0,0-.2-.2-.4-.2h-.5.9"/>
  <path class="cls-1" d="M44.4,34.2q0,0,0,0c0,0-.2,0-.4,0h-.4.8"/>
  <path class="cls-1" d="M43.5,34.3h0q0,0,0,0t0,0h0c0-.2.3-.3.5-.3.3,0,.4,0,.5.2h0,0c0,0-.3.2-.5.2s-.4,0-.5,0M43.5,34.3h0ZM44.5,34.2h0Z"/>
  <path class="cls-1" d="M45.5,33.6v-.2h.3v.2h.2v.3h0s-.4,0-.4-.4"/>
  <path class="cls-1" d="M42,34h0v-.3h.3l.3-.2h0c0,.6-.4.6-.6.6h0"/>
  <path class="cls-1" d="M41.7,34.3c0-.6.5-1.1.6-1.1h0l.2.2s-.5.5-.5.9,0,.4.4.5v.3c-.5-.2-.7-.5-.7-.8"/>
  <path class="cls-2" d="M42.1,35.5s0,0,0,.2c-.4,1.3-1.5,2.2-2.5,1.9s-1.6-1.6-1.3-2.9c.4-1.3,1.5-2.2,2.5-1.9.3,0,.6.3.8.5h-.2c0,0-.3,0-.5,0-.9-.2-1.9.5-2.2,1.6s.2,2.2,1.1,2.5c.9.2,1.7-.4,2-1.6,0,0,.4-.2.4-.2Z"/>
  <path class="cls-1" d="M39.5,37.7c-.9-.3-1.5-1.2-1.5-2.3s0-.6,0-.8c.3-1.2,1.3-2.1,2.3-2.1s.3,0,.4,0c.3,0,.6.3.9.5v.3h-.4c0,0-.3-.2-.4-.2h-.3c-.7,0-1.4.6-1.7,1.5,0,.2,0,.4,0,.6,0,.8.4,1.5,1,1.6h.3c.7,0,1.3-.6,1.5-1.5h0l.3-.2.2.2s0,0,0,.2c-.3,1.2-1.3,2.1-2.3,2.1h-.3M38.5,34.7c0,.3,0,.5,0,.8,0,1,.5,1.8,1.2,2h.4c.3,0,.6,0,.8-.2h-1c-.8-.2-1.3-1-1.3-1.9v-.8c.4-.9,1.2-1.7,2.1-1.7h.3-.4c-.9,0-1.8.6-2,1.7"/>
  <path class="cls-1" d="M29.4,34.8h0v-.2c0,0,0,.3-.3.4h-.2s0-.2,0-.2c.3,0,0-.4.5-.7h.4c.3,0,.6.2.6.5v.2c0,.3-.2.5-.5.6h0c-.2,0-.4-.2-.5-.5M29.9,34.7h0,0M30.1,34.4h-.5.5"/>
  <path class="cls-1" d="M28,34.7h-.5s0-.2,0-.2c.2,0,.2-.2.5-.5h.3c.3,0,.5.2.6.4v.2c0,.3-.2.5-.4.5h0c-.2,0-.4-.2-.5-.4"/>
  <path class="cls-1" d="M25.6,35c-.2,0-.4-.2-.4-.5v-.2c0-.3.3-.4.6-.4h.3c.3.3.2.3.5.5q0,0,0,.2c0,.2,0,0-.2,0s-.2-.2-.3-.2h0c-.2.4-.4.5-.6.5h0"/>
  <path class="cls-1" d="M30.5,35.1h0c0-.1,0-.2,0-.3,0,0-.2.3-.5.4h-.2s0-.2,0-.2c.4-.2.2-.2.6-.5h.4c.3,0,.6.2.6.5v.2c0,.3-.2.5-.5.6h0c-.2,0-.4-.2-.5-.5M31,35h0s0,0,0,0h0,0M31.3,34.7c0,0-.2-.2-.3-.2h-.2.2s.2,0,.3,0"/>
  <path class="cls-1" d="M31.7,35.3h0q0,0,0,0c0,0-.2,0-.4.2h-.2s0-.2,0-.2c.4,0,.2-.3.6-.6h.4c.3,0,.6.2.6.5v.2c0,.3-.2.5-.5.6h0c-.2,0-.5-.2-.5-.5M32.2,35.2h0M32.2,35.2h0,0M32.4,34.9c0,0-.2-.2-.3-.2h-.2.3c0,0,.2,0,.2.2"/>
  <path class="cls-1" d="M32.9,35.5q0,0,0,0v-.2c0,.2-.2.3-.5.4h-.2s0-.2,0-.2c.4,0,.2-.4.6-.7h.4c.3,0,.6.2.6.5v.2c0,.3-.2.5-.5.6h0c0,0-.3-.2-.4-.4M33.4,35.3h0,0ZM33.4,34.9h.3-.5c0,0,0,0,.2,0,0,0,0,0,0,0h0Z"/>
  <path class="cls-1" d="M34.3,35.5h0q0,0,0,0c0,0-.2.2-.6.3h-.2s0-.2,0-.2c.4,0,.3-.4.7-.7h.3c.3,0,.6.2.7.5h0c0,.4-.2.7-.6.7h0c0,0-.4,0-.4-.4M34.8,35.4h0,0M34.7,35c0,0,.3,0,.3.2,0,0,0-.2-.3-.2h-.2.2Z"/>
  <path class="cls-1" d="M26,34.2c0-.5.5-.8,1.1-.8s1,.3,1.1.8c0,.5-.5.8-1.1.8v-.4c.4,0,.7-.3.8-.5,0-.2-.3-.5-.8-.5s-.8.3-.8.5.3.5.8.5v.4c-.6,0-1.1-.3-1.1-.8"/>
  <path class="cls-1" d="M26.3,34.2c0-.3.4-.5.8-.5s.8.2.8.5-.4.5-.8.5-.8-.2-.8-.5M27.4,34.3h0,0c0,0-.2-.2-.4-.2h-.5.9"/>
  <path class="cls-1" d="M26.7,34.2s0,0,0,0h.8-.8"/>
  <path class="cls-1" d="M26.5,34.3h0q0,0,0,0h0q0,0,0,0h0c0-.2.3-.3.5-.3.3,0,.4,0,.5.2h0,0,0,0c0,0-.3.2-.5.2s-.4,0-.5,0M27.5,34.2h0Z"/>
  <path class="cls-1" d="M25,34v-.3h.4l.3-.2v.2c0,.4-.4.4-.5.4h-.2M25,34h0Z"/>
  <path class="cls-1" d="M28.4,33.6h.3c0,.2,0,.2.2.2h0v.3h0c0,0-.4,0-.5-.5"/>
  <path class="cls-1" d="M28.6,34.8c.3-.2.4-.3.4-.5,0-.4-.4-.9-.5-.9l.2-.2s.5.5.6,1.1c0,.3-.2.6-.6.8v-.3h0Z"/>
  <path class="cls-1" d="M35.8,34.9h-.2v-.2h0s0,0,0,.2h-.2c0,0,.4.3,0,.9h.3s.2,0,0,0c-.2-.7.2-1,.2-1"/>
  <path class="cls-1" d="M35.3,35.9h-.2c0-.3,0-.4,0-.5,0-.2,0-.2-.2-.4h.8,0,.2c0,.2-.2.2-.2.4s0,.2,0,.4h0v.2h-.5M35.5,35h0"/>
  <path class="cls-2" d="M29.2,35.6c.3,1.1,1.1,1.8,2,1.6s1.4-1.3,1.1-2.5c-.3-1.1-1.3-1.8-2.2-1.6-.2,0-.3,0-.5.2h-.2c.2-.3.5-.5.8-.6,1.1-.3,2.2.6,2.5,1.9.4,1.3-.2,2.6-1.3,2.9-1,.3-2.2-.6-2.5-1.9,0,0,0,0,0-.2,0,0,.4.2.4.2Z"/>
  <path class="cls-1" d="M28.8,35.7s0,0,0-.2l.2-.2h.3v.2c0,0,0,0,0,0h0c.3.9.9,1.5,1.5,1.5h.3c.6-.2,1-.8,1-1.7s0-.4,0-.6c-.3-.9-1-1.5-1.7-1.5h-.3c0,0-.3,0-.4.2h-.3v-.4c0-.3.4-.4.8-.5h.4c1,0,1.9.8,2.3,2.1,0,.3,0,.6,0,.8,0,1.1-.6,2-1.5,2.3h-.4c-.9,0-1.8-.8-2.2-2M31.1,37.5h.4c.7-.2,1.2-1,1.2-2s0-.5,0-.8c-.3-1.1-1.2-1.8-2-1.8h-.4.2c.9,0,1.7.7,2,1.8,0,.2,0,.5,0,.7,0,.9-.5,1.7-1.3,1.9h-1c.4.2.6.3.9.3"/>
</svg>