<?xml version="1.0" encoding="UTF-8"?>
<svg id="Layer_1" xmlns="http://www.w3.org/2000/svg" version="1.1" viewBox="0 0 106.84 91.45">
  <!-- Generator: Adobe Illustrator 29.1.0, SVG Export Plug-In . SVG Version: 2.1.0 Build 54)  -->
  <defs>
    <style>
      .st0 {
        fill: #fff;
      }

      .st1 {
        fill: #fbcc15;
      }
    </style>
  </defs>
  <path class="st0" d="M93.9,16.67l-51.55,59.19c-.5.57-1.38.54-1.85-.05l-5.26-6.79c.1-.58.16-1.17.16-1.78,0-5.39-4.16-9.81-9.44-10.23l-9.65-12.47c-.24-.31.13-.73.47-.53l23.84,14.02c.43.25.97.21,1.36-.1l51.41-41.78c.34-.28.79.18.5.52"/>
  <path class="st1" d="M33.63,67.5c0,4.83-3.92,8.75-8.75,8.75s-8.75-3.92-8.75-8.75,3.92-8.75,8.75-8.75,8.75,3.92,8.75,8.75"/>
</svg>