<?xml version="1.0" encoding="UTF-8"?>
<svg id="uuid-68ef6429-a40a-4e19-a8f8-d3990de0d4b9" data-name="Layer 1" xmlns="http://www.w3.org/2000/svg" viewBox="0 0 557.13 533.56">
  <defs>
    <style>
      .uuid-b63eea05-9954-4fc9-9afa-46103371bd73 {
        fill: #ffffff;
      }

      .uuid-b63eea05-9954-4fc9-9afa-46103371bd73, .uuid-6309ad3c-7ddc-4a5a-8ec2-640451148105 {
        stroke-width: 0px;
      }

      .uuid-6309ad3c-7ddc-4a5a-8ec2-640451148105 {
        fill: #ffffff;
      }
    </style>
  </defs>
  <path class="uuid-b63eea05-9954-4fc9-9afa-46103371bd73" d="M115.24,418.94c-1.47,8.38-7.88,13.61-16.86,13.61h-56.06c-14.1,0-24.73-5.41-32.06-16.23-6.05-8.9-9.16-20.59-9.71-35.07l-.55-12.39h10.81l.55,12.39c.55,15.35,4.76,26.52,12.82,33.32,5.31,4.54,11.36,6.81,18.14,6.81h52.95c4.95,0,7.33-3.31,7.33-9.77,0-3.84-.18-18.15-.73-42.75h13.01c.18,8.9.37,25.65.37,50.07M53.31,368.87h-13.56v-13.43h13.56v13.43ZM75.66,368.87h-13.56v-13.43h13.56v13.43Z"/>
  <path class="uuid-b63eea05-9954-4fc9-9afa-46103371bd73" d="M227.09,432.55h-16.3c-5.13,0-9.71-2.09-13.56-6.28-3.66-3.84-6.05-8.38-6.96-13.61-7.33,12.39-23.45,19.89-43.79,19.89h-8.79v-11.34h8.06c8.61,0,15.94-1.57,22.35-4.71,8.79-4.36,13.01-11.34,13.01-20.59,0-2.44-.37-27.92-.91-76.24h12.64c.37,18.32.73,45.71,1.1,82.18,0,5.93,2.02,10.82,6.23,14.83,3.48,3.14,6.96,4.71,10.81,4.71h16.12v11.17ZM159.67,409.87c-3.3,2.44-7.51,2.44-12.82,2.44,0-15.36-.37-46.41-.92-92.99h12.64l1.1,90.55Z"/>
  <path class="uuid-b63eea05-9954-4fc9-9afa-46103371bd73" d="M302.38,399.75c0,20.41-11.17,32.8-30.23,32.8h-51.11v-11.17h26.57c-4.95-6.11-7.51-13.26-7.51-21.64,0-20.24,11.54-32.8,30.6-32.8,9.71,0,17.59,3.49,23.63,10.47,5.31,6.11,8.06,13.61,8.06,22.33M289.93,399.57c0-7.15-2.02-12.91-5.86-17.27-3.48-3.66-7.69-5.58-12.64-5.58s-9.16,1.92-12.28,5.58c-3.48,4.01-5.31,9.77-5.31,17.27s2.02,13.09,5.86,17.27c3.48,3.66,7.69,5.58,12.64,5.58s9.16-1.92,12.27-5.58c3.48-4.01,5.31-9.77,5.31-17.27"/>
  <path class="uuid-b63eea05-9954-4fc9-9afa-46103371bd73" d="M364.95,432.55h-15.76c-5.13,0-9.53-1.75-13.01-5.06-4.03-3.66-6.23-8.9-6.23-15.53l-.55-92.3h12.64l.55,90.72c0,6.46,2.93,10.12,8.61,11h13.74v11.17Z"/>
  <path class="uuid-b63eea05-9954-4fc9-9afa-46103371bd73" d="M477.81,432.55h-36.27c-7.33,0-13.56-2.79-18.69-8.38-10.81,5.58-21.44,8.38-31.51,8.38h-30.23v-11.17h30.04c7.88,0,16.12-1.92,24.55-5.76-7.33-8.55-13.56-14.83-18.69-18.67-7.88-5.76-16.12-9.07-24.92-9.59v-14.31c10.81-9.77,26.2-14.66,46.35-14.48,13.37.17,25.46,2.96,36.46,8.72,6.78,3.31,11.73,6.98,15.02,10.64-8.98,16.4-21.62,30.01-38.11,41,2.02,1.4,4.4,2.27,7.51,2.45h38.47v11.17ZM455.09,380.38c-3.3-1.92-6.41-3.84-9.53-5.76-7.88-3.49-16.67-5.24-26.38-5.24-8.43,0-15.57.87-21.62,2.44-4.21,1.22-9.34,3.32-15.02,6.28,14.29,3.66,28.4,14.48,42.14,32.45,12.27-7.85,22.53-17.97,30.41-30.18"/>
  <path class="uuid-b63eea05-9954-4fc9-9afa-46103371bd73" d="M552.93,399.75c0,20.41-11.17,32.8-30.23,32.8h-51.11v-11.17h26.56c-4.94-6.11-7.51-13.26-7.51-21.64,0-20.24,11.54-32.8,30.6-32.8,9.71,0,17.59,3.49,23.63,10.47,5.31,6.11,8.06,13.61,8.06,22.33M540.47,399.57c0-7.15-2.01-12.91-5.86-17.27-3.48-3.66-7.69-5.58-12.64-5.58s-9.16,1.92-12.28,5.58c-3.48,4.01-5.31,9.77-5.31,17.27s2.02,13.09,5.86,17.27c3.48,3.66,7.69,5.58,12.64,5.58s9.16-1.92,12.27-5.58c3.48-4.01,5.31-9.77,5.31-17.27"/>
  <path class="uuid-b63eea05-9954-4fc9-9afa-46103371bd73" d="M84.5,488.27v43.25h-13.72v-43.25c0-6.98-1.6-9.89-5.99-9.89-2.66,0-5.19,2.41-9.45,6.98-2.26,2.28-2.66,2.66-4.53,4.44v41.73h-13.72v-43.25c0-6.98-1.6-9.89-5.99-9.89-2.66,0-5.19,2.41-9.46,6.98-2.26,2.28-2.66,2.66-4.53,4.44v41.73H3.41v-58.22h13.72v14.97c9.32-12.56,12.25-17,19.97-17,9.72,0,13.72,4.95,13.72,17,9.32-12.56,12.25-17,19.97-17,9.72,0,13.72,4.95,13.72,17"/>
  <path class="uuid-b63eea05-9954-4fc9-9afa-46103371bd73" d="M157.08,502.48c0,18.52-11.72,31.08-29.03,31.08s-29.16-12.56-29.16-31.08,11.72-31.2,29.16-31.2,29.03,12.68,29.03,31.2M141.37,502.48c0-17.12-4.93-28.16-13.31-28.16s-13.45,11.16-13.45,28.16,5.06,28.16,13.45,28.16,13.31-11.04,13.31-28.16"/>
  <path class="uuid-b63eea05-9954-4fc9-9afa-46103371bd73" d="M225.53,531.53h-14.38v-8.75c-3.59,5.83-8.79,10.78-18.11,10.78-16.25,0-25.04-10.91-25.04-31.2,0-14.97,8.12-31.08,26.9-31.08,5.99,0,11.45,2.03,16.24,6.09v-4.06h14.38v58.22ZM211.15,519.86v-40.46c-3.99-3.55-8.52-5.2-13.98-5.2-8.39,0-13.45,11.16-13.45,28.16s4.39,28.16,11.58,28.16c5.46,0,11.85-4.31,15.85-10.66"/>
  <path class="uuid-b63eea05-9954-4fc9-9afa-46103371bd73" d="M326.08,488.27v43.25h-13.72v-43.25c0-6.98-1.6-9.89-5.99-9.89-2.66,0-5.19,2.41-9.45,6.98-2.26,2.28-2.66,2.66-4.53,4.44v41.73h-13.72v-43.25c0-6.98-1.6-9.89-5.99-9.89-2.66,0-5.19,2.41-9.46,6.98-2.26,2.28-2.66,2.66-4.53,4.44v41.73h-13.72v-58.22h13.72v14.97c9.32-12.56,12.25-17,19.97-17,9.72,0,13.72,4.95,13.72,17,9.32-12.56,12.25-17,19.97-17,9.72,0,13.72,4.95,13.72,17"/>
  <path class="uuid-b63eea05-9954-4fc9-9afa-46103371bd73" d="M399.46,531.53h-14.38v-8.75c-3.59,5.83-8.79,10.78-18.11,10.78-16.25,0-25.04-10.91-25.04-31.2,0-14.97,8.12-31.08,26.9-31.08,5.99,0,11.45,2.03,16.24,6.09v-4.06h14.38v58.22ZM385.08,519.86v-40.46c-3.99-3.55-8.52-5.2-13.98-5.2-8.39,0-13.45,11.16-13.45,28.16s4.39,28.16,11.58,28.16c5.46,0,11.85-4.31,15.85-10.66"/>
  <path class="uuid-b63eea05-9954-4fc9-9afa-46103371bd73" d="M441.01,531.53v1.65c-17.04,0-22.11-5.58-22.11-24.61v-63.68h14.25v63.68c0,14.59,2.53,22.96,7.86,22.96"/>
  <path class="uuid-b63eea05-9954-4fc9-9afa-46103371bd73" d="M508.79,531.53h-14.38v-8.75c-3.59,5.83-8.79,10.78-18.11,10.78-16.25,0-25.04-10.91-25.04-31.2,0-14.97,8.12-31.08,26.9-31.08,5.99,0,11.45,2.03,16.24,6.09v-4.06h14.38v58.22ZM494.41,519.86v-40.46c-3.99-3.55-8.52-5.2-13.98-5.2-8.39,0-13.45,11.16-13.45,28.16s4.39,28.16,11.58,28.16c5.46,0,11.85-4.31,15.85-10.66"/>
  <path class="uuid-b63eea05-9954-4fc9-9afa-46103371bd73" d="M542.62,510.73c0,14.71,1.73,20.04,7.72,20.04,1.86,0,5.86-.89,5.86-.89v1.65c-3.2,1.01-7.32,1.65-11.72,1.65-10.79,0-16.24-7.48-16.24-22.45v-51.63h14.38v14.21h14.51v1.9h-14.51v35.52Z"/>
  <path class="uuid-b63eea05-9954-4fc9-9afa-46103371bd73" d="M264.4,193.38l-126.7-75.57,54.31,68.86c28.04.21,50.78,23.08,50.78,51.18,0,3.96-.47,7.82-1.32,11.52l20.71,26.26L502.23,0l-237.83,193.38Z"/>
  <path class="uuid-6309ad3c-7ddc-4a5a-8ec2-640451148105" d="M233.85,237.83c0,23.32-18.91,42.23-42.23,42.23s-42.23-18.91-42.23-42.23,18.91-42.23,42.23-42.23,42.23,18.91,42.23,42.23"/>
</svg>