<?xml version="1.0" encoding="UTF-8"?>
<svg id="Layer_1" xmlns="http://www.w3.org/2000/svg" version="1.1" viewBox="0 0 423 337">
  <!-- Generator: Adobe Illustrator 29.1.0, SVG Export Plug-In . SVG Version: 2.1.0 Build 54)  -->
  <defs>
    <style>
      .st0 {
        fill: #fbcb0f;
      }

      .st1 {
        fill: #253f8f;
      }
    </style>
  </defs>
  <path class="st1" d="M414.06,13.34L143.62,323.85c-2.6,2.97-7.26,2.84-9.68-.28l-27.57-35.63c.54-3.03.81-6.15.81-9.34,0-28.28-21.81-51.46-49.53-53.64L7.06,159.56c-1.28-1.65.66-3.86,2.47-2.8l125.08,73.57c2.25,1.33,5.09,1.11,7.13-.54L411.43,10.62c1.81-1.46,4.15.97,2.63,2.72"/>
  <path class="st0" d="M97.9,280c0,25.36-20.56,45.92-45.91,45.92s-45.92-20.56-45.92-45.92,20.56-45.92,45.92-45.92,45.91,20.56,45.91,45.92"/>
</svg>