<?xml version="1.0" encoding="UTF-8"?>
<svg xmlns="http://www.w3.org/2000/svg" version="1.1" viewBox="0 0 128 128">
  <defs>
    <style>
      .cls-1 {
        fill: #fccc11;
      }

      .cls-2 {
        fill: #243f90;
      }
    </style>
  </defs>
  <!-- Generator: Adobe Illustrator 28.6.0, SVG Export Plug-In . SVG Version: 1.2.0 Build 558)  -->
  <g>
    <g id="Layer_1">
      <path class="cls-2" d="M31.6,95.5c-.3,1.7-1.6,2.7-3.4,2.7h-11.2c-2.8,0-5-1.1-6.4-3.3-1.2-1.8-1.8-4.1-1.9-7v-2.5c-.1,0,2.1,0,2.1,0v2.5c.2,3.1,1.1,5.3,2.7,6.7,1.1.9,2.3,1.4,3.6,1.4h10.6c1,0,1.5-.7,1.5-2s0-3.6-.1-8.6h2.6c0,1.8,0,5.1,0,10M19.1,85.5h-2.7v-2.7h2.7v2.7ZM23.6,85.5h-2.7v-2.7h2.7v2.7Z"/>
      <path class="cls-2" d="M54,98.2h-3.3c-1,0-1.9-.4-2.7-1.3-.7-.8-1.2-1.7-1.4-2.7-1.5,2.5-4.7,4-8.8,4h-1.8v-2.3h1.6c1.7,0,3.2-.3,4.5-.9,1.8-.9,2.6-2.3,2.6-4.1s0-5.6-.2-15.3h2.5c0,3.7.1,9.2.2,16.5,0,1.2.4,2.2,1.2,3,.7.6,1.4.9,2.2.9h3.2v2.2h0ZM40.5,93.7c-.7.5-1.5.5-2.6.5,0-3.1,0-9.3-.2-18.6h2.5l.2,18.2h0Z"/>
      <path class="cls-2" d="M69.1,91.7c0,4.1-2.2,6.6-6.1,6.6h-10.2v-2.2h5.3c-1-1.2-1.5-2.7-1.5-4.3,0-4.1,2.3-6.6,6.1-6.6s3.5.7,4.7,2.1c1.1,1.2,1.6,2.7,1.6,4.5M66.6,91.6c0-1.4-.4-2.6-1.2-3.5-.7-.7-1.5-1.1-2.5-1.1s-1.8.4-2.5,1.1c-.7.8-1.1,2-1.1,3.5s.4,2.6,1.2,3.5c.7.7,1.5,1.1,2.5,1.1s1.8-.4,2.5-1.1c.7-.8,1.1-2,1.1-3.5"/>
      <path class="cls-2" d="M81.6,98.2h-3.2c-1,0-1.9-.4-2.6-1-.8-.7-1.2-1.8-1.2-3.1v-18.5c-.1,0,2.4,0,2.4,0v18.2c.1,1.3.7,2,1.8,2.2h2.8v2.2h0Z"/>
      <path class="cls-2" d="M104.3,98.2h-7.3c-1.5,0-2.7-.6-3.7-1.7-2.2,1.1-4.3,1.7-6.3,1.7h-6.1v-2.2h6c1.6,0,3.2-.4,4.9-1.2-1.5-1.7-2.7-3-3.7-3.7-1.6-1.2-3.2-1.8-5-1.9v-2.9c2.2-2,5.3-2.9,9.3-2.9,2.7,0,5.1.6,7.3,1.7,1.4.7,2.4,1.4,3,2.1-1.8,3.3-4.3,6-7.6,8.2.4.3.9.5,1.5.5h7.7v2.2h0ZM99.7,87.8c-.7-.4-1.3-.8-1.9-1.2-1.6-.7-3.3-1.1-5.3-1.1s-3.1.2-4.3.5c-.8.2-1.9.7-3,1.3,2.9.7,5.7,2.9,8.4,6.5,2.5-1.6,4.5-3.6,6.1-6.1"/>
      <path class="cls-2" d="M119.3,91.7c0,4.1-2.2,6.6-6.1,6.6h-10.2v-2.2h5.3c-1-1.2-1.5-2.7-1.5-4.3,0-4.1,2.3-6.6,6.1-6.6s3.5.7,4.7,2.1c1.1,1.2,1.6,2.7,1.6,4.5M116.8,91.6c0-1.4-.4-2.6-1.2-3.5-.7-.7-1.5-1.1-2.5-1.1s-1.8.4-2.5,1.1c-.7.8-1.1,2-1.1,3.5s.4,2.6,1.2,3.5c.7.7,1.5,1.1,2.5,1.1s1.8-.4,2.5-1.1c.7-.8,1.1-2,1.1-3.5"/>
      <path class="cls-2" d="M25.4,109.4v8.7h-2.8v-8.7c0-1.4-.3-2-1.2-2s-1,.5-1.9,1.4c-.5.5-.5.5-.9.9v8.4h-2.8v-8.7c0-1.4-.3-2-1.2-2s-1,.5-1.9,1.4c-.5.5-.5.5-.9.9v8.4h-2.7v-11.7h2.8v3c1.9-2.5,2.5-3.4,4-3.4s2.8,1,2.8,3.4c1.9-2.5,2.5-3.4,4-3.4s2.8,1,2.8,3.4"/>
      <path class="cls-2" d="M40,112.3c0,3.7-2.4,6.2-5.8,6.2s-5.8-2.5-5.8-6.2,2.4-6.3,5.8-6.3,5.8,2.5,5.8,6.3M36.8,112.3c0-3.4-1-5.6-2.7-5.6s-2.7,2.2-2.7,5.6,1,5.6,2.7,5.6,2.7-2.2,2.7-5.6"/>
      <path class="cls-2" d="M53.7,118.1h-2.9v-1.8c-.7,1.2-1.8,2.2-3.6,2.2-3.3,0-5-2.2-5-6.3s1.6-6.2,5.4-6.2,2.3.4,3.3,1.2v-.8h2.9v11.7h0ZM50.8,115.8v-8.1c-.8-.7-1.7-1-2.8-1-1.7,0-2.7,2.2-2.7,5.6s.9,5.6,2.3,5.6,2.4-.9,3.2-2.1"/>
      <path class="cls-2" d="M73.8,109.4v8.7h-2.8v-8.7c0-1.4-.3-2-1.2-2s-1,.5-1.9,1.4c-.5.5-.5.5-.9.9v8.4h-2.8v-8.7c0-1.4-.3-2-1.2-2s-1,.5-1.9,1.4c-.5.5-.5.5-.9.9v8.4h-2.8v-11.7h2.8v3c1.9-2.5,2.5-3.4,4-3.4s2.8,1,2.8,3.4c1.9-2.5,2.5-3.4,4-3.4s2.8,1,2.8,3.4"/>
      <path class="cls-2" d="M88.6,118.1h-2.9v-1.8c-.7,1.2-1.8,2.2-3.6,2.2-3.3,0-5-2.2-5-6.3s1.6-6.2,5.4-6.2,2.3.4,3.3,1.2v-.8h2.9v11.7h0ZM85.7,115.8v-8.1c-.8-.7-1.7-1-2.8-1-1.7,0-2.7,2.2-2.7,5.6s.9,5.6,2.3,5.6,2.4-.9,3.2-2.1"/>
      <path class="cls-2" d="M96.9,118.1v.3c-3.4,0-4.4-1.1-4.4-4.9v-12.8h2.9v12.8c0,2.9.5,4.6,1.6,4.6"/>
      <path class="cls-2" d="M110.5,118.1h-2.9v-1.8c-.7,1.2-1.8,2.2-3.6,2.2-3.3,0-5-2.2-5-6.3s1.6-6.2,5.4-6.2,2.3.4,3.3,1.2v-.8h2.9v11.7h0ZM107.6,115.8v-8.1c-.8-.7-1.7-1-2.8-1-1.7,0-2.7,2.2-2.7,5.6s.9,5.6,2.3,5.6,2.4-.9,3.2-2.1"/>
      <path class="cls-2" d="M117.3,113.9c0,2.9.3,4,1.5,4s1.2-.2,1.2-.2v.3c-.6.2-1.5.3-2.4.3-2.2,0-3.3-1.5-3.3-4.5v-10.4h2.9v2.8h2.9v.4h-2.9v7.1Z"/>
      <path class="cls-2" d="M61.5,50.3l-25.4-15.2,10.9,13.8c5.6,0,10.2,4.6,10.2,10.3s0,1.6-.3,2.3l4.2,5.3L109.2,11.5l-47.7,38.8h0Z"/>
      <path class="cls-1" d="M55.3,59.2c0,4.7-3.8,8.5-8.5,8.5s-8.5-3.8-8.5-8.5,3.8-8.5,8.5-8.5,8.5,3.8,8.5,8.5"/>
    </g>
  </g>
</svg>